/* XPM */
static const char * broken_cert_xpm[] = {
"16 16 17 1",
" 	c #FDFDFDFDFDFD",
".	c #D7D7D7D7D7D7",
"X	c #FFFFFFFFFFFF",
"o	c #DEDEDEDEDEDE",
"O	c #7B7B7B7B4E4E",
"+	c #818181810505",
"@	c #A9A9A9A90202",
"#	c #999999999191",
"$	c #F7F7F7F70202",
"%	c #BBBBBBBB0202",
"&	c #D4D4D4D40202",
"*	c #E0E0E0E00202",
"=	c #979797970202",
"-	c #616161611212",
";	c #ABABABABAAAA",
":	c #C1C1C1C1C1C1",
">	c #CFCFCFCFCFCF",
"       .Xo      ",
"     O+XX@+#    ",
"   .O$@X++%&O   ",
"   +*+XX@$%+$O  ",
"  #*=XX+&-$%%@. ",
"  O$+XXX$*@$+*# ",
"  #$=$=XXX@$=&; ",
"  :%=*$-+XX%%=o ",
"   O*+&$XXX+&#  ",
"    O@@XX+%=#   ",
"     ;XX@@->    ",
"     #&XX+&;    ",
"     O%&XX*O    ",
"    :%=$+X@&;   ",
"    O@-+-X-%O   ",
"    .:o>o>o>o   "};
