/* XPM */
static const char * cert_xpm[] = {
"16 16 17 1",
" 	c None",
".	c #616112",
"+	c #7B7B4E",
"@	c #999991",
"#	c #D4D402",
"$	c #ABABAA",
"%	c #A9A902",
"&	c #C1C1C1",
"*	c #CFCFCF",
"=	c #D7D7D7",
"-	c #E0E002",
";	c #818105",
">	c #DEDEDE",
",	c #FDFDFD",
"'	c #979702",
")	c #F7F702",
"!	c #BBBB02",
",,,,,,,=*>,,,,,,",
",,,,,+;%!%;@,,,,",
",,,=+)%;;;!#+,,,",
",,,;-;#-%)!;)+,,",
",,@-'-#;#.)!!%=,",
",,+););))-%);-@,",
",,@)')'))#%)'#$,",
",,&!'-).;;)!!'>,",
",,,+-;#)))!;#@,,",
",,,,+%%;';!'@,,,",
",,,,,$'%%%.*,,,,",
",,,,,@#';;#$,,,,",
",,,,,+!#;'-+,,,,",
",,,,&!');#%#$,,,",
",,,,+%.;.;.!+,,,",
",,,,=&>*>*>*>,,,"};
