/* XPM */
static const char * delete_dis_xpm[] = {
"48 48 171 2",
"  	c None",
". 	c #898989",
"+ 	c #5F5F5F",
"@ 	c #989898",
"# 	c #5C5C5C",
"$ 	c #C3C3C3",
"% 	c #6F6F6F",
"& 	c #575757",
"* 	c #676767",
"= 	c #D7D7D7",
"- 	c #646464",
"; 	c #565656",
"> 	c #B9B9B9",
", 	c #616161",
"' 	c #5D5D5D",
") 	c #CCCCCC",
"! 	c #5A5A5A",
"~ 	c #555555",
"{ 	c #A2A2A2",
"] 	c #D8D8D8",
"^ 	c #D0D0D0",
"/ 	c #595959",
"( 	c #C6C6C6",
"_ 	c #DCDCDC",
": 	c #A7A7A7",
"< 	c #545454",
"[ 	c #9B9B9B",
"} 	c #C5C5C5",
"| 	c #BFBFBF",
"1 	c #CECECE",
"2 	c #585858",
"3 	c #C4C4C4",
"4 	c #C7C7C7",
"5 	c #D5D5D5",
"6 	c #A4A4A4",
"7 	c #535353",
"8 	c #949494",
"9 	c #BDBDBD",
"0 	c #B7B7B7",
"a 	c #CACACA",
"b 	c #525252",
"c 	c #C2C2C2",
"d 	c #D3D3D3",
"e 	c #A3A3A3",
"f 	c #B5B5B5",
"g 	c #B0B0B0",
"h 	c #515151",
"i 	c #4D4D4D",
"j 	c #505050",
"k 	c #C0C0C0",
"l 	c #A1A1A1",
"m 	c #6E6E6E",
"n 	c #AEAEAE",
"o 	c #A9A9A9",
"p 	c #4B4B4B",
"q 	c #464646",
"r 	c #474747",
"s 	c #4F4F4F",
"t 	c #BCBCBC",
"u 	c #B8B8B8",
"v 	c #E3E3E3",
"w 	c #6A6A6A",
"x 	c #969696",
"y 	c #4C4C4C",
"z 	c #454545",
"A 	c #404040",
"B 	c #3C3C3C",
"C 	c #444444",
"D 	c #B3B3B3",
"E 	c #C8C8C8",
"F 	c #9E9E9E",
"G 	c #9A9A9A",
"H 	c #434343",
"I 	c #3D3D3D",
"J 	c #3B3B3B",
"K 	c #353535",
"L 	c #3A3A3A",
"M 	c #B2B2B2",
"N 	c #ADADAD",
"O 	c #4E4E4E",
"P 	c #ACACAC",
"Q 	c #B1B1B1",
"R 	c #333333",
"S 	c #303030",
"T 	c #929292",
"U 	c #939393",
"V 	c #8E8E8E",
"W 	c #8D8D8D",
"X 	c #AAAAAA",
"Y 	c #A5A5A5",
"Z 	c #A0A0A0",
"` 	c #8C8C8C",
" .	c #919191",
"..	c #888888",
"+.	c #868686",
"@.	c #9D9D9D",
"#.	c #858585",
"$.	c #909090",
"%.	c #838383",
"&.	c #828282",
"*.	c #808080",
"=.	c #959595",
"-.	c #7F7F7F",
";.	c #4A4A4A",
">.	c #7E7E7E",
",.	c #7D7D7D",
"'.	c #7C7C7C",
").	c #818181",
"!.	c #B4B4B4",
"~.	c #494949",
"{.	c #7A7A7A",
"].	c #7B7B7B",
"^.	c #B6B6B6",
"/.	c #484848",
"(.	c #777777",
"_.	c #6B6B6B",
":.	c #656565",
"<.	c #8A8A8A",
"[.	c #696969",
"}.	c #5E5E5E",
"|.	c #8B8B8B",
"1.	c #6C6C6C",
"2.	c #626262",
"3.	c #606060",
"4.	c #6D6D6D",
"5.	c #707070",
"6.	c #636363",
"7.	c #8F8F8F",
"8.	c #424242",
"9.	c #727272",
"0.	c #686868",
"a.	c #737373",
"b.	c #414141",
"c.	c #767676",
"d.	c #797979",
"e.	c #878787",
"f.	c #0C0C0C",
"g.	c #717171",
"h.	c #121212",
"i.	c #111111",
"j.	c #101010",
"k.	c #747474",
"l.	c #151515",
"m.	c #1A1A1A",
"n.	c #282828",
"o.	c #181818",
"p.	c #A6A6A6",
"q.	c #848484",
"r.	c #1B1B1B",
"s.	c #2D2D2D",
"t.	c #2C2C2C",
"u.	c #191919",
"v.	c #ABABAB",
"w.	c #787878",
"x.	c #1D1D1D",
"y.	c #1C1C1C",
"z.	c #1E1E1E",
"A.	c #232323",
"B.	c #252525",
"C.	c #9F9F9F",
"D.	c #A8A8A8",
"E.	c #2A2A2A",
"F.	c #212121",
"G.	c #313131",
"H.	c #2E2E2E",
"I.	c #373737",
"J.	c #2F2F2F",
"K.	c #323232",
"L.	c #3F3F3F",
"M.	c #363636",
"N.	c #666666",
"                                                                                                ",
"                                                                                                ",
"                                                                                                ",
"                                                                                                ",
"                                                                                                ",
"                                                                                                ",
"                          . +                                     + @                           ",
"                        # $ % &                                 & * = -                         ",
"                      ; ; > , ; ;                             ; ; ' ) ! ;                       ",
"                    ~ ~ { ] ^ / ~ ~                         ~ ~ / ( _ : ~ ~                     ",
"                  < < [ } | 1 1 2 < <                     < < 2 3 4 | 5 6 < <                   ",
"                7 7 8 9 0 0 0 a a & 7 7                 b 7 & c c 0 0 0 d e 7 7                 ",
"              b b . f g g g g g 3 4 ; b h             i j ~ k 9 g g g g g ^ l b b               ",
"            h h m n o o o o o o o | $ 7 i p         q r s t u o o o o o o o v w h h             ",
"            j j < x 6 { { { { { { { > | y z z     A B C 0 D { { { { { { { 4 E < j j             ",
"              s s 7 x F G G G G G G G D u H I I J K L M N G G G G G G G u $ 7 s s               ",
"                O O b 8 @ 8 8 8 8 8 8 8 P Q L R S R P : 8 8 8 8 8 8 8 o t b O O                 ",
"                  i i h T U V V V V V V W 6 X K R Y Z ` V V V V V V [ Q h i i                   ",
"                    i y j  .V ............+.@.e Z G #.............$.{ j y i                     ",
"                      p p O $.. %.%.%.%.%.&.*.x =.-.&.%.%.%.%.T c n O p p                       ",
"                        ;.;.i V #.-.-.-.-.>.,.'.'.,.>.-.).X | !.U i ;.;.                        ",
"                          ~.~.y W ).{.{.{.{.{.{.{.].=.^.!.-.' #.y ~.~.                          ",
"                            /./.p ` >.).-.(.% ].` G ` / ~ , +.p /./.                            ",
"                              r r ;.=._./ / / / / / / / , ..p r r                               ",
"                              r q ;...- # # # # # # # # :.. ;.q r                               ",
"                            z z ~.<.[.+ + + + }.}.+ + + + w |.~.z z                             ",
"                          C C /.` 1.2.2.2., , 3.3., 2.2.2.2.4.W /.C C                           ",
"                        H H r W 5.:.:.:.:.:.6.2.2.- :.:.:.:.:.5.7.r H H                         ",
"                      H 8.q $.9.0.0.0.0.0.* :.1.4.:.* 0.0.0.0.0.a. .q 8.H                       ",
"                    8.b.q  .c._._._._._.w [.a.*.&.a.[.w _._._._._.c.@ q b.8.                    ",
"                  b.A z =.d.m m m m m 4.1.c.e.f.f.. (.4.4.m m m m m {.@.z A b.                  ",
"                b.A z [ ,.g.g.g.g.g.g.5.].V h.i.j.h. .'.5.g.g.g.g.g.g.>.6 z A b.                ",
"              C A z l ).k.k.k.k.k.k.k.-.x l.m.n.n.o.l.@ *.k.k.k.k.k.k.k.&.: q 8.%               ",
"            z O y p.q.(.(.(.(.(.(.(.%.[ o.r.s.    t.u.u.F %.(.(.(.(.(.(.(.#.v.(.%.&             ",
"            q O w.: {.{.{.{.{.{.{.+.Z x.y.t.        t.m.z.e e.{.{.{.{.{.{.{.v.V _.j             ",
"              p z . F {.{.{.{.{.e.6 A.z.s.            t.x.B.p.e.{.{.{.{.{.C.<.i h               ",
"                A A <.C.{.{.{.e.D.E.F.s.                t.F.t.o ..{.{.{.C.<.A A                 ",
"                  A A <.C.{...o G.B.H.                    s.B.R X ..{.C.<.A A                   ",
"                    A A <.X v.I.E.S                         J.t.L P P <.A A                     ",
"                      A C (.H S K.                            R K.~.M p A                       ",
"                        s ~.L.M.                                I.N.Y w                         ",
"                        ;.q A                                     3.<.                          ",
"                                                                                                ",
"                                                                                                ",
"                                                                                                ",
"                                                                                                ",
"                                                                                                ",
"                                                                                                "};
