/* XPM */
static const char * delete_xpm[] = {
"48 48 430 2",
"  	c None",
". 	c #C64D4D",
"+ 	c #B00E0E",
"@ 	c #AF0F0F",
"# 	c #CE6262",
"$ 	c #AC0D0D",
"% 	c #DFA7A7",
"& 	c #B22C2C",
"* 	c #AF0000",
"= 	c #AF2020",
"- 	c #ECC2C2",
"; 	c #AE1B1B",
"> 	c #AC0000",
", 	c #AC0101",
"' 	c #E5A38E",
") 	c #B11512",
"! 	c #B00E0B",
"~ 	c #EFBEAA",
"{ 	c #AC0808",
"] 	c #AB0000",
"^ 	c #DC7E68",
"/ 	c #FDB5B4",
"( 	c #F3BAAD",
"_ 	c #AE0604",
": 	c #F0AE9C",
"< 	c #FDBCBB",
"[ 	c #DE8470",
"} 	c #A90000",
"| 	c #D9765E",
"1 	c #F89592",
"2 	c #FC8383",
"3 	c #FD9F9F",
"4 	c #F2B8AA",
"5 	c #AC0604",
"6 	c #EFAB9A",
"7 	c #FC9292",
"8 	c #FBB2B0",
"9 	c #DC836D",
"0 	c #A70000",
"a 	c #D56C53",
"b 	c #F48B87",
"c 	c #F47B7B",
"d 	c #F99B9B",
"e 	c #F1B5A4",
"f 	c #AA0604",
"g 	c #A60000",
"h 	c #A40000",
"i 	c #EEA997",
"j 	c #F78F8E",
"k 	c #F9B0AD",
"l 	c #DB816B",
"m 	c #A50000",
"n 	c #D06043",
"o 	c #EF807B",
"p 	c #ED7474",
"q 	c #F49695",
"r 	c #EFB1A0",
"s 	c #A80604",
"t 	c #A20000",
"u 	c #9B0000",
"v 	c #A00000",
"w 	c #A70604",
"x 	c #EDA894",
"y 	c #F28989",
"z 	c #F7ADAA",
"A 	c #D97E69",
"B 	c #A30000",
"C 	c #BD361F",
"D 	c #EC7B70",
"E 	c #E66D6D",
"F 	c #EF9190",
"G 	c #EDAD9A",
"H 	c #A30603",
"I 	c #970000",
"J 	c #8C0000",
"K 	c #8F0000",
"L 	c #9C0603",
"M 	c #EAA48F",
"N 	c #ED8684",
"O 	c #FBCDCB",
"P 	c #BA331B",
"Q 	c #A10000",
"R 	c #A40704",
"S 	c #DD7650",
"T 	c #E26A67",
"U 	c #DF6565",
"V 	c #E98B89",
"W 	c #EAA894",
"X 	c #960603",
"Y 	c #8A0000",
"Z 	c #8B0000",
"` 	c #810000",
" .	c #790000",
"..	c #860603",
"+.	c #E6A189",
"@.	c #E7817F",
"#.	c #F19F9D",
"$.	c #EEB4A3",
"%.	c #9F0000",
"&.	c #A20604",
"*.	c #DD744F",
"=.	c #DC6461",
"-.	c #D85D5D",
";.	c #E48582",
">.	c #E5A38C",
",.	c #830603",
"'.	c #7A0000",
").	c #7B0000",
"!.	c #760000",
"~.	c #6B0000",
"{.	c #710603",
"].	c #E09D84",
"^.	c #E07D7A",
"/.	c #E88B88",
"(.	c #ECAD9A",
"_.	c #9D0000",
":.	c #A00604",
"<.	c #DB734D",
"[.	c #D85D59",
"}.	c #D35656",
"|.	c #DE7D7A",
"1.	c #DF9D84",
"2.	c #720603",
"3.	c #660000",
"4.	c #610000",
"5.	c #640603",
"6.	c #DA997E",
"7.	c #DA7774",
"8.	c #D25656",
"9.	c #E07672",
"0.	c #EAA58E",
"a.	c #9A0000",
"b.	c #9E0604",
"c.	c #DA724A",
"d.	c #D45853",
"e.	c #CF4E4E",
"f.	c #CE4E4E",
"g.	c #CC4E4E",
"h.	c #D67773",
"i.	c #DA967A",
"j.	c #670603",
"k.	c #630603",
"l.	c #D59376",
"m.	c #D2736F",
"n.	c #CB4E4E",
"o.	c #D76460",
"p.	c #E5997D",
"q.	c #990000",
"r.	c #9C0604",
"s.	c #DA7149",
"t.	c #D1514C",
"u.	c #CB4646",
"v.	c #CA4646",
"w.	c #C64646",
"x.	c #D06F6B",
"y.	c #D68F70",
"z.	c #D48D6D",
"A.	c #CD6D68",
"B.	c #C54646",
"C.	c #D2544F",
"D.	c #DF8665",
"E.	c #9A0603",
"F.	c #D97047",
"G.	c #CF4A44",
"H.	c #C93E3E",
"I.	c #C73E3E",
"J.	c #C23E3E",
"K.	c #CC6560",
"L.	c #CB6460",
"M.	c #C13E3E",
"N.	c #C63E3E",
"O.	c #C83E3E",
"P.	c #D05455",
"Q.	c #E99D9B",
"R.	c #E3967A",
"S.	c #950000",
"T.	c #980603",
"U.	c #D86F45",
"V.	c #CD453E",
"W.	c #C73737",
"X.	c #C63737",
"Y.	c #C43737",
"Z.	c #C13737",
"`.	c #C73B3B",
" +	c #DC797A",
".+	c #E49B9C",
"++	c #DC908C",
"@+	c #D67A50",
"#+	c #920000",
"$+	c #930000",
"%+	c #D76E43",
"&+	c #CB3E37",
"*+	c #C53030",
"=+	c #C43030",
"-+	c #C53232",
";+	c #D25858",
">+	c #E18B8B",
",+	c #DD8B8C",
"'+	c #BE4040",
")+	c #AF170C",
"!+	c #D16B39",
"~+	c #900000",
"{+	c #910000",
"]+	c #940603",
"^+	c #D76D41",
"/+	c #CB3931",
"(+	c #C93A3A",
"_+	c #C73839",
":+	c #C32C2C",
"<+	c #BE2121",
"[+	c #C33434",
"}+	c #CA4F4F",
"|+	c #CF6666",
"1+	c #C75152",
"2+	c #AD0606",
"3+	c #B5170D",
"4+	c #D26A3B",
"5+	c #920603",
"6+	c #D77B53",
"7+	c #BE1F19",
"8+	c #B20000",
"9+	c #B9120A",
"0+	c #D26C3E",
"a+	c #920604",
"b+	c #8E0000",
"c+	c #8D0000",
"d+	c #900604",
"e+	c #BF120A",
"f+	c #B80000",
"g+	c #BF120B",
"h+	c #D26D41",
"i+	c #8E0604",
"j+	c #D36D41",
"k+	c #C5170E",
"l+	c #BE0000",
"m+	c #BD0000",
"n+	c #C5180F",
"o+	c #D36F43",
"p+	c #890000",
"q+	c #8C0604",
"r+	c #D46F44",
"s+	c #CA180F",
"t+	c #C40000",
"u+	c #C30000",
"v+	c #C20000",
"w+	c #C10000",
"x+	c #CA1810",
"y+	c #D47047",
"z+	c #870000",
"A+	c #8A0604",
"B+	c #D01810",
"C+	c #CB0000",
"D+	c #CA0000",
"E+	c #C70000",
"F+	c #C50000",
"G+	c #C80000",
"H+	c #D4714B",
"I+	c #860000",
"J+	c #850000",
"K+	c #880604",
"L+	c #D5724B",
"M+	c #D51810",
"N+	c #D00000",
"O+	c #CE0000",
"P+	c #CC130D",
"Q+	c #CD130D",
"R+	c #D51811",
"S+	c #D5734E",
"T+	c #880605",
"U+	c #840000",
"V+	c #830000",
"W+	c #870605",
"X+	c #D6744D",
"Y+	c #DB1811",
"Z+	c #D60000",
"`+	c #D50000",
" @	c #D20000",
".@	c #D41912",
"+@	c #B17350",
"@@	c #B27452",
"#@	c #D30000",
"$@	c #DB1912",
"%@	c #D6795A",
"&@	c #870706",
"*@	c #820000",
"=@	c #850705",
"-@	c #D67755",
";@	c #E01912",
">@	c #DC0000",
",@	c #DB0000",
"'@	c #D90000",
")@	c #DA1913",
"!@	c #B5775A",
"~@	c #130605",
"{@	c #B6785C",
"]@	c #DB1A14",
"^@	c #DA0000",
"/@	c #E01A15",
"(@	c #D67C65",
"_@	c #850706",
":@	c #D87B5F",
"<@	c #E61A14",
"[@	c #E30000",
"}@	c #E10000",
"|@	c #E11A15",
"1@	c #B97B64",
"2@	c #1F0606",
"3@	c #230000",
"4@	c #210000",
"5@	c #1E0606",
"6@	c #BB7C68",
"7@	c #E21B16",
"8@	c #E61B17",
"9@	c #D88270",
"0@	c #7F0D09",
"a@	c #EC1B16",
"b@	c #E90000",
"c@	c #E80000",
"d@	c #E81B17",
"e@	c #BE7F6E",
"f@	c #250606",
"g@	c #340000",
"h@	c #500000",
"i@	c #510000",
"j@	c #300000",
"k@	c #C08171",
"l@	c #E81C18",
"m@	c #EC1C19",
"n@	c #D98576",
"o@	c #850707",
"p@	c #820303",
"q@	c #A03E3E",
"r@	c #7E110C",
"s@	c #7B2D21",
"t@	c #831E16",
"u@	c #DA8473",
"v@	c #F11C18",
"w@	c #EF0000",
"x@	c #EE0000",
"y@	c #EE1C18",
"z@	c #C48273",
"A@	c #2B0606",
"B@	c #360000",
"C@	c #5A0000",
"D@	c #580000",
"E@	c #320000",
"F@	c #2D0606",
"G@	c #C68376",
"H@	c #EE1C19",
"I@	c #F11C19",
"J@	c #DB897C",
"K@	c #A54949",
"L@	c #AD5959",
"M@	c #8F1F1F",
"N@	c #7F120D",
"O@	c #A25E4F",
"P@	c #F2675C",
"Q@	c #F50000",
"R@	c #F41C19",
"S@	c #CA8577",
"T@	c #350706",
"U@	c #380000",
"V@	c #590000",
"W@	c #350000",
"X@	c #370706",
"Y@	c #CC857A",
"Z@	c #F41C1A",
"`@	c #F46B63",
" #	c #B96963",
".#	c #9D3939",
"+#	c #8B1515",
"@#	c #7C251B",
"##	c #7F0F0B",
"$#	c #BD5E55",
"%#	c #F1534B",
"&#	c #CE867B",
"*#	c #400807",
"=#	c #3C0000",
"-#	c #3A0000",
";#	c #440807",
">#	c #D0877D",
",#	c #F51D1A",
"'#	c #F1544E",
")#	c #BD6058",
"!#	c #891111",
"~#	c #8C1616",
"{#	c #BD5F58",
"]#	c #F1544D",
"^#	c #D3877E",
"/#	c #4E0807",
"(#	c #420000",
"_#	c #520807",
":#	c #D4887E",
"<#	c #F51D1B",
"[#	c #D5887E",
"}#	c #5B0807",
"|#	c #4B0000",
"1#	c #5C0000",
"2#	c #5B0000",
"3#	c #600807",
"4#	c #D7887E",
"5#	c #F26A63",
"6#	c #D8897F",
"7#	c #680807",
"8#	c #550000",
"9#	c #600000",
"0#	c #5F0000",
"a#	c #6D0807",
"b#	c #D9897F",
"c#	c #F36C65",
"d#	c #7F0E0A",
"e#	c #A0594E",
"f#	c #741612",
"g#	c #650000",
"h#	c #821211",
"i#	c #E48681",
"j#	c #8B0B0B",
"k#	c #793426",
"l#	c #77251C",
"m#	c #70130E",
"n#	c #6C0000",
"o#	c #6E0000",
"p#	c #A12B2B",
"q#	c #E26868",
"r#	c #AA2B2B",
"s#	c #7C2319",
"t#	c #7C1811",
"u#	c #790908",
"v#	c #9D2323",
"w#	c #C84C4C",
"                                                                                                ",
"                                                                                                ",
"                                                                                                ",
"                                                                                                ",
"                                                                                                ",
"                                                                                                ",
"                          . +                                     @ #                           ",
"                        $ % & *                                 * = - ;                         ",
"                      > , ' ) > >                             > > ! ~ { >                       ",
"                    ] ] ^ / ( _ ] ]                         ] ] _ : < [ ] ]                     ",
"                  } } | 1 2 3 4 5 } }                     } } 5 6 7 2 8 9 } }                   ",
"                0 0 a b c c c d e f 0 g                 h 0 f i j c c c k l 0 0                 ",
"              m m n o p p p p p q r s h t             u v w x y p p p p p z A m m               ",
"            t B C D E E E E E E E F G H u I         J K L M N E E E E E E E O P B t             ",
"            Q Q R S T U U U U U U U V W X Y Z     `  ...+.@.U U U U U U U #.$.R Q Q             ",
"              %.%.&.*.=.-.-.-.-.-.-.-.;.>.,.'.).!.~.{.].^.-.-.-.-.-.-.-./.(.&.%.%.              ",
"                _._.:.<.[.}.}.}.}.}.}.}.|.1.2.3.4.5.6.7.8.}.}.}.}.}.}.9.0.:._._.                ",
"                  a.u b.c.d.e.e.e.e.e.f.g.h.i.j.k.l.m.n.f.e.e.e.e.e.o.p.b.u a.                  ",
"                    a.q.r.s.t.u.u.u.u.u.v.w.x.y.z.A.B.v.u.u.u.u.u.C.D.r.q.a.                    ",
"                      I I E.F.G.H.H.H.H.H.I.J.K.L.M.N.O.H.H.H.P.Q.R.E.I I                       ",
"                        S.S.T.U.V.W.W.W.W.X.Y.Z.Z.Y.X.W.`. +.+++@+T.S.S.                        ",
"                          #+$+X %+&+*+*+*+*+*+=+=+-+;+>+,+'+)+!+X $+#+                          ",
"                            ~+{+]+^+/+(+_+:+<+[+}+|+1+2+] 3+4+]+{+~+                            ",
"                              K K 5+6+7+8+8+8+8+8+8+8+8+9+0+a+K K                               ",
"                              b+c+d+0+e+f+f+f+f+f+f+f+f+g+h+d+c+b+                              ",
"                            Z Z i+j+k+l+l+l+l+m+m+l+l+l+l+n+o+i+Z Z                             ",
"                          p+p+q+r+s+t+t+t+u+v+w+w+u+t+t+t+t+x+y+q+p+p+                          ",
"                        z+z+A+y+B+C+C+C+D+D+E+F+F+G+D+C+C+C+C+B+H+A+z+z+                        ",
"                      I+J+K+L+M+N+N+N+N+N+O+C+P+Q+C+O+N+N+N+N+N+R+S+T+J+I+                      ",
"                    U+V+W+X+Y+Z+Z+Z+Z+Z+`+ @.@+@@@.@#@`+Z+Z+Z+Z+Z+$@%@&@V+U+                    ",
"                  *@` =@-@;@>@>@>@>@>@,@'@)@!@~@~@{@]@^@,@>@>@>@>@>@/@(@_@` *@                  ",
"                *@` _@:@<@[@[@[@[@[@[@}@|@1@2@3@4@5@6@7@}@[@[@[@[@[@[@8@9@_@` *@                ",
"              0@` _@A a@b@b@b@b@b@b@c@d@e@f@g@h@i@j@f@k@l@c@b@b@b@b@b@b@m@n@o@p@q@              ",
"            r@s@t@u@v@w@w@w@w@w@w@x@y@z@A@B@C@    D@E@F@G@H@x@w@w@w@w@w@w@I@J@K@L@M@            ",
"            N@s@O@P@Q@Q@Q@Q@Q@Q@Q@R@S@T@U@V@        D@W@X@Y@Z@Q@Q@Q@Q@Q@Q@Q@`@ #.#+#            ",
"              @###$#%#Q@Q@Q@Q@Q@Z@&#*#=#C@            D@-#;#>#,#Q@Q@Q@Q@Q@'#)#!#~#              ",
"                ` ` {#]#Q@Q@Q@,#^#/#(#C@                V@(#_#:#<#Q@Q@Q@'#)#` `                 ",
"                  ` ` )#'#Q@<#[#}#|#1#                    2#|#3#4#<#Q@'#)#` `                   ",
"                    ` ` )#5#6#7#8#9#                        0#D@a#b#c#)#` `                     ",
"                      ` d#e#f#4.g#                            3.g#h#i#j#`                       ",
"                        k#l#m#n#                                o#p#q#r#                        ",
"                        s#t#u#                                    v#w#                          ",
"                                                                                                ",
"                                                                                                ",
"                                                                                                ",
"                                                                                                ",
"                                                                                                ",
"                                                                                                "};
