/* XPM */
static const char * download_xpm[] = {
"48 48 775 2",
"  	c None",
". 	c #BD3030",
"+ 	c #D76363",
"@ 	c #C03A3A",
"# 	c #D86C6C",
"$ 	c #D66666",
"% 	c #D25A5A",
"& 	c #CF5252",
"* 	c #CD4B4B",
"= 	c #9C0000",
"- 	c #C13E3E",
"; 	c #D86969",
"> 	c #D06060",
", 	c #D86565",
"' 	c #DB5B5B",
") 	c #CE4E4E",
"! 	c #CC4848",
"~ 	c #CB4646",
"{ 	c #C74444",
"] 	c #C54141",
"^ 	c #C23D3D",
"/ 	c #BF3939",
"( 	c #BD3535",
"_ 	c #BA3131",
": 	c #B82D2D",
"< 	c #B72C2C",
"[ 	c #930000",
"} 	c #9B0000",
"| 	c #BE3232",
"1 	c #D65B5B",
"2 	c #D35050",
"3 	c #AF4C4C",
"4 	c #803838",
"5 	c #C75E5E",
"6 	c #DA6F6F",
"7 	c #D35959",
"8 	c #CF4C4C",
"9 	c #CC4444",
"0 	c #C63D3D",
"a 	c #C23838",
"b 	c #C03535",
"c 	c #BD3131",
"d 	c #B92E2E",
"e 	c #B72D2D",
"f 	c #B52D2D",
"g 	c #B42D2D",
"h 	c #B52E2E",
"i 	c #B62E2E",
"j 	c #B62F2F",
"k 	c #B52F2F",
"l 	c #B32E2E",
"m 	c #B12D2D",
"n 	c #820000",
"o 	c #BD2B2B",
"p 	c #D24F4F",
"q 	c #DA4E4E",
"r 	c #823232",
"s 	c #000101",
"t 	c #BB5E5E",
"u 	c #DE7F7F",
"v 	c #D56666",
"w 	c #D45858",
"x 	c #D54E4E",
"y 	c #D64646",
"z 	c #D54040",
"A 	c #D63E3E",
"B 	c #D43D3D",
"C 	c #D23B3B",
"D 	c #CF3939",
"E 	c #CB3737",
"F 	c #C63535",
"G 	c #C23333",
"H 	c #BE3131",
"I 	c #BA2E2E",
"J 	c #B62828",
"K 	c #B32222",
"L 	c #B01F1F",
"M 	c #AE1C1C",
"N 	c #AC1B1B",
"O 	c #AB1C1C",
"P 	c #AB2020",
"Q 	c #A92323",
"R 	c #A92525",
"S 	c #7F0000",
"T 	c #9A0000",
"U 	c #BC2929",
"V 	c #D14C4C",
"W 	c #D94E4E",
"X 	c #833030",
"Y 	c #020000",
"Z 	c #BA5959",
"` 	c #DB7575",
" .	c #D35F5F",
"..	c #D35555",
"+.	c #D44C4C",
"@.	c #D54545",
"#.	c #D54141",
"$.	c #D74040",
"%.	c #D84141",
"&.	c #D94141",
"*.	c #D64141",
"=.	c #D44040",
"-.	c #D03F3F",
";.	c #CC3C3C",
">.	c #C73737",
",.	c #C23232",
"'.	c #BB2B2B",
").	c #B52525",
"!.	c #AE2020",
"~.	c #A10B0B",
"{.	c #9D0000",
"].	c #6F0000",
"^.	c #810000",
"/.	c #D14D4D",
"(.	c #D95050",
"_.	c #843232",
":.	c #030000",
"<.	c #B95555",
"[.	c #D35D5D",
"}.	c #D35454",
"|.	c #D34B4B",
"1.	c #D44545",
"2.	c #D64040",
"3.	c #D24040",
"4.	c #D04040",
"5.	c #CF4141",
"6.	c #CD4242",
"7.	c #CB4242",
"8.	c #C94343",
"9.	c #C64848",
"0.	c #AD1F1F",
"a.	c #6D0000",
"b.	c #D04949",
"c.	c #D43F3F",
"d.	c #7F2222",
"e.	c #B85252",
"f.	c #D96D6D",
"g.	c #D35353",
"h.	c #D74141",
"i.	c #CE4040",
"j.	c #CC4040",
"k.	c #C94040",
"l.	c #C74040",
"m.	c #C54040",
"n.	c #C34242",
"o.	c #A71E1E",
"p.	c #6E0400",
"q.	c #920000",
"r.	c #B71717",
"s.	c #C52525",
"t.	c #CC2020",
"u.	c #7B1313",
"v.	c #B85050",
"w.	c #D96C6C",
"x.	c #D25C5C",
"y.	c #D25151",
"z.	c #D03C3C",
"A.	c #D13A3A",
"B.	c #D43B3B",
"C.	c #D53C3C",
"D.	c #D83F3F",
"E.	c #D84040",
"F.	c #D84242",
"G.	c #D74242",
"H.	c #D54343",
"I.	c #D34343",
"J.	c #D04444",
"K.	c #CE4343",
"L.	c #CB4343",
"M.	c #C64444",
"N.	c #C44646",
"O.	c #A71F1F",
"P.	c #7B3102",
"Q.	c #7D0000",
"R.	c #B51010",
"S.	c #C41F1F",
"T.	c #CC2121",
"U.	c #7C1414",
"V.	c #B84F4F",
"W.	c #D96A6A",
"X.	c #D25B5B",
"Y.	c #C63838",
"Z.	c #B82B2B",
"`.	c #B92929",
" +	c #B82828",
".+	c #B82626",
"++	c #B82525",
"@+	c #B82424",
"#+	c #B82323",
"$+	c #B92222",
"%+	c #B92323",
"&+	c #BA2525",
"*+	c #BA2727",
"=+	c #BA2929",
"-+	c #BB2E2E",
";+	c #BC3131",
">+	c #BA2C2C",
",+	c #B82222",
"'+	c #B61B1B",
")+	c #A21313",
"!+	c #9B0101",
"~+	c #A8CE10",
"{+	c #9C9D12",
"]+	c #7F0700",
"^+	c #910000",
"/+	c #C42020",
"(+	c #7B1414",
"_+	c #D25959",
":+	c #D35151",
"<+	c #C93939",
"[+	c #C02D2D",
"}+	c #C12C2C",
"|+	c #C02B2B",
"1+	c #BF2A2A",
"2+	c #BE2929",
"3+	c #BE2A2A",
"4+	c #B92828",
"5+	c #B31919",
"6+	c #AC0707",
"7+	c #A50000",
"8+	c #A20000",
"9+	c #9E0000",
"0+	c #A80000",
"a+	c #AD0000",
"b+	c #A00C0C",
"c+	c #A6C60E",
"d+	c #B0D822",
"e+	c #997B0B",
"f+	c #8E0000",
"g+	c #B74D4D",
"h+	c #D86868",
"i+	c #D25858",
"j+	c #BF2F2F",
"k+	c #BF2E2E",
"l+	c #BD2E2E",
"m+	c #BD2D2D",
"n+	c #B91E1E",
"o+	c #B40C0C",
"p+	c #B10707",
"q+	c #AF0707",
"r+	c #AC0404",
"s+	c #A90202",
"t+	c #A70202",
"u+	c #A40000",
"v+	c #A00000",
"w+	c #AA0000",
"x+	c #AE0000",
"y+	c #A00D0D",
"z+	c #8FA914",
"A+	c #93AE14",
"B+	c #98B312",
"C+	c #A2C110",
"D+	c #A6C50E",
"E+	c #A8C715",
"F+	c #ADCB21",
"G+	c #ACD41E",
"H+	c #995406",
"I+	c #980000",
"J+	c #CB2020",
"K+	c #D76767",
"L+	c #D25757",
"M+	c #D34E4E",
"N+	c #C63737",
"O+	c #BA2D2D",
"P+	c #BA2B2B",
"Q+	c #B61D1D",
"R+	c #B31313",
"S+	c #B21313",
"T+	c #B10D0D",
"U+	c #AF0909",
"V+	c #AE0808",
"W+	c #AC0606",
"X+	c #AA0505",
"Y+	c #A80303",
"Z+	c #A50202",
"`+	c #A20101",
" @	c #9F0000",
".@	c #A90000",
"+@	c #99B70E",
"@@	c #95AB26",
"#@	c #9DB624",
"$@	c #A3BF23",
"%@	c #A8C421",
"&@	c #ACC920",
"*@	c #ADCA20",
"=@	c #ACCA20",
"-@	c #ACCA1F",
";@	c #ACCC20",
">@	c #A5C51C",
",@	c #983002",
"'@	c #B5050F",
")@	c #C31F1F",
"!@	c #CB1F1F",
"~@	c #7A1313",
"{@	c #B74C4C",
"]@	c #D76565",
"^@	c #D15656",
"/@	c #D34949",
"(@	c #D03131",
"_@	c #CB1414",
":@	c #C80101",
"<@	c #C60000",
"[@	c #C50000",
"}@	c #C40000",
"|@	c #C20000",
"1@	c #BE0000",
"2@	c #BB0000",
"3@	c #B70000",
"4@	c #B30000",
"5@	c #AF0000",
"6@	c #A60000",
"7@	c #A30000",
"8@	c #AB0000",
"9@	c #A00E0E",
"0@	c #98B60E",
"a@	c #94AA25",
"b@	c #9CB523",
"c@	c #A2BD22",
"d@	c #A8C420",
"e@	c #ACC91F",
"f@	c #A8CA24",
"g@	c #9BAA18",
"h@	c #B22310",
"i@	c #C4171E",
"j@	c #7A1212",
"k@	c #B64A4A",
"l@	c #D76666",
"m@	c #CE3D3D",
"n@	c #C71616",
"o@	c #C70000",
"p@	c #CA0000",
"q@	c #CB0000",
"r@	c #C80000",
"s@	c #C30000",
"t@	c #C00000",
"u@	c #B80000",
"v@	c #B40000",
"w@	c #B00000",
"x@	c #AC0000",
"y@	c #A20707",
"z@	c #ACCA21",
"A@	c #ABC91D",
"B@	c #AAC91A",
"C@	c #A9C716",
"D@	c #A2BF15",
"E@	c #95BC13",
"F@	c #988B0F",
"G@	c #BF1C1B",
"H@	c #CC1B1E",
"I@	c #D55E5E",
"J@	c #C72E2E",
"K@	c #C10D0D",
"L@	c #C20202",
"M@	c #C90000",
"N@	c #C10000",
"O@	c #BF0000",
"P@	c #BC0000",
"Q@	c #B50000",
"R@	c #B20000",
"S@	c #9DB625",
"T@	c #A7C31E",
"U@	c #A9C718",
"V@	c #A8C713",
"W@	c #A6C60F",
"X@	c #A4C50A",
"Y@	c #A4C508",
"Z@	c #A3C406",
"`@	c #A2C305",
" #	c #9CBC06",
".#	c #92AF08",
"+#	c #84AB09",
"@#	c #9A6C11",
"##	c #CD161E",
"$#	c #7B1112",
"%#	c #040000",
"&#	c #B13939",
"*#	c #C82E2E",
"=#	c #C01515",
"-#	c #C20E0E",
";#	c #C30505",
">#	c #97B50D",
",#	c #90A81E",
"'#	c #95B015",
")#	c #9AB70E",
"!#	c #9EBE08",
"~#	c #A2C404",
"{#	c #A3C405",
"]#	c #A2C306",
"^#	c #9DBC08",
"/#	c #93B009",
"(#	c #87A20A",
"_#	c #799C0B",
":#	c #AA4F15",
"<#	c #7E0A12",
"[#	c #AB2222",
"}#	c #C62626",
"|#	c #C01818",
"1#	c #C20C0C",
"2#	c #C30404",
"3#	c #B10000",
"4#	c #96B40A",
"5#	c #88A10D",
"6#	c #8FAB09",
"7#	c #97B508",
"8#	c #9EBE06",
"9#	c #88A20A",
"0#	c #7A940C",
"a#	c #73820D",
"b#	c #5E280C",
"c#	c #070000",
"d#	c #AC2322",
"e#	c #C01616",
"f#	c #C20B0B",
"g#	c #C30303",
"h#	c #BD0000",
"i#	c #98B50E",
"j#	c #8DA619",
"k#	c #95AF14",
"l#	c #9AB80F",
"m#	c #9FBE0A",
"n#	c #A2C307",
"o#	c #7C940C",
"p#	c #687D0C",
"q#	c #415408",
"r#	c #160B01",
"s#	c #AA1F22",
"t#	c #C52424",
"u#	c #C1100F",
"v#	c #C10808",
"w#	c #C30202",
"x#	c #9AB714",
"y#	c #94AC28",
"z#	c #9BB423",
"A#	c #A0BB1C",
"B#	c #A4C115",
"C#	c #A5C50F",
"D#	c #A4C509",
"E#	c #687B0C",
"F#	c #47580B",
"G#	c #282203",
"H#	c #A81C20",
"I#	c #C32223",
"J#	c #B62C2C",
"K#	c #BD0E0E",
"L#	c #C30101",
"M#	c #BA0000",
"N#	c #9EB91B",
"O#	c #9EB33A",
"P#	c #A3BA34",
"Q#	c #A7C02C",
"R#	c #A9C523",
"S#	c #AAC81A",
"T#	c #A7C712",
"U#	c #697D0D",
"V#	c #415308",
"W#	c #140900",
"X#	c #AB1C1D",
"Y#	c #BD201F",
"Z#	c #BBB4B5",
"`#	c #BD8A8B",
" $	c #C20201",
".$	c #A8BA4E",
"+$	c #ACC147",
"@$	c #AEC53E",
"#$	c #B0CA34",
"$$	c #AFCB28",
"%$	c #ACCA1E",
"&$	c #A8C714",
"*$	c #A5C50A",
"=$	c #6E820C",
"-$	c #3B2406",
";$	c #080000",
">$	c #AC1C1C",
",$	c #BC2020",
"'$	c #B9A6A7",
")$	c #C3CFD0",
"!$	c #BF2929",
"~$	c #B60000",
"{$	c #A6C02B",
"]$	c #B2C364",
"^$	c #B5C75B",
"/$	c #B5CB51",
"($	c #B6CE45",
"_$	c #B5CF38",
":$	c #B1CD2A",
"<$	c #ABCA1E",
"[$	c #7C9D0B",
"}$	c #7A500D",
"|$	c #5D030B",
"1$	c #AB1B1B",
"2$	c #BF2223",
"3$	c #A28889",
"4$	c #BDC9CB",
"5$	c #C04041",
"6$	c #A9C233",
"7$	c #BDCB7A",
"8$	c #BECE70",
"9$	c #BED164",
"0$	c #BDD357",
"a$	c #BBD347",
"b$	c #B5D038",
"c$	c #B0CD29",
"d$	c #ABC91B",
"e$	c #88AB0B",
"f$	c #7A780A",
"g$	c #9D1013",
"h$	c #790C0E",
"i$	c #050000",
"j$	c #AB1A1A",
"k$	c #BD1F1E",
"l$	c #AC9FA0",
"m$	c #B2B0B2",
"n$	c #BF2C2D",
"o$	c #B90000",
"p$	c #ADC53B",
"q$	c #C8D38F",
"r$	c #C7D584",
"s$	c #C6D677",
"t$	c #C4D767",
"u$	c #C0D756",
"v$	c #BAD345",
"w$	c #B4CF34",
"x$	c #AECB24",
"y$	c #A8C716",
"z$	c #93B509",
"A$	c #869C0A",
"B$	c #8A1F10",
"C$	c #C21117",
"D$	c #7A0E0E",
"E$	c #AB1919",
"F$	c #BE2020",
"G$	c #949092",
"H$	c #954142",
"I$	c #B2C943",
"J$	c #D2DBA4",
"K$	c #D0DC97",
"L$	c #CDDC88",
"M$	c #CADB76",
"N$	c #C6DA64",
"O$	c #BFD650",
"P$	c #B8D13E",
"Q$	c #B1CD2C",
"R$	c #ABC91C",
"S$	c #9DBD08",
"T$	c #92B608",
"U$	c #873C0B",
"V$	c #B00B15",
"W$	c #C91716",
"X$	c #780D0D",
"Y$	c #AB1717",
"Z$	c #BD1F1F",
"`$	c #918F91",
" %	c #9B4041",
".%	c #B6CC4A",
"+%	c #DBE3B8",
"@%	c #D8E1A9",
"#%	c #D4E097",
"$%	c #CFDF84",
"%%	c #CADD6F",
"&%	c #C2D85A",
"*%	c #BBD346",
"=%	c #B3CE33",
"-%	c #A8C712",
";%	c #9FC808",
">%	c #816003",
",%	c #9D010C",
"'%	c #C01617",
")%	c #C61616",
"!%	c #AB1616",
"~%	c #BC1E1E",
"{%	c #838688",
"]%	c #9D3738",
"^%	c #BED451",
"/%	c #EAF0CA",
"(%	c #E5EEB7",
"_%	c #DFECA4",
":%	c #D8E88F",
"<%	c #CDDF7A",
"[%	c #C6DA63",
"}%	c #BDD54D",
"|%	c #B6D038",
"1%	c #A5CE09",
"2%	c #909105",
"3%	c #800300",
"4%	c #B2090C",
"5%	c #BF1616",
"6%	c #C61515",
"7%	c #770C0C",
"8%	c #A91616",
"9%	c #A71C1C",
"0%	c #B80707",
"a%	c #A9C816",
"b%	c #ABCE18",
"c%	c #9EB809",
"d%	c #7B1900",
"e%	c #B30C0C",
"f%	c #BE1515",
"g%	c #C61414",
"h%	c #770B0B",
"i%	c #A81616",
"j%	c #C21414",
"k%	c #C20504",
"l%	c #A30505",
"m%	c #A7C811",
"n%	c #ABD018",
"o%	c #7B3F03",
"p%	c #830000",
"q%	c #B20C0C",
"r%	c #C51414",
"s%	c #A81515",
"t%	c #C21313",
"u%	c #BE0808",
"v%	c #C00101",
"w%	c #9C0101",
"x%	c #AAD112",
"y%	c #87740D",
"z%	c #6E0000",
"A%	c #8D0000",
"B%	c #970000",
"C%	c #B10B0B",
"D%	c #BD1414",
"E%	c #C51313",
"F%	c #770A0A",
"G%	c #A81414",
"H%	c #C11212",
"I%	c #BE0707",
"J%	c #9F0D0D",
"K%	c #6C1F02",
"L%	c #770000",
"M%	c #8C0000",
"N%	c #C51212",
"O%	c #A71313",
"P%	c #C11111",
"Q%	c #BD0505",
"R%	c #640200",
"S%	c #7A0000",
"T%	c #960000",
"U%	c #BD1313",
"V%	c #C41111",
"W%	c #760909",
"X%	c #A71212",
"Y%	c #C11010",
"Z%	c #660000",
"`%	c #B10A0A",
" &	c #BC1313",
".&	c #A71111",
"+&	c #C10E0E",
"@&	c #BD0404",
"#&	c #A70000",
"$&	c #9E0D0D",
"%&	c #670000",
"&&	c #8B0000",
"*&	c #BC1212",
"=&	c #C41010",
"-&	c #A71010",
";&	c #C00D0D",
">&	c #BD0303",
",&	c #6B0000",
"'&	c #790000",
")&	c #BC1111",
"!&	c #C30F0F",
"~&	c #760808",
"{&	c #A70F0F",
"]&	c #C00C0C",
"^&	c #BD0202",
"/&	c #9F0E0E",
"(&	c #590000",
"_&	c #7C0000",
":&	c #B10909",
"<&	c #BB1111",
"[&	c #C30E0E",
"}&	c #A70E0E",
"|&	c #C00A0A",
"1&	c #9E0505",
"2&	c #540404",
"3&	c #8A0000",
"4&	c #B00909",
"5&	c #BB1010",
"6&	c #760707",
"7&	c #AA1919",
"8&	c #C41919",
"9&	c #C20808",
"0&	c #C50505",
"a&	c #C70303",
"b&	c #C90101",
"c&	c #A10000",
"d&	c #420B0B",
"e&	c #7E0000",
"f&	c #BB0F0F",
"g&	c #C20D0D",
"h&	c #750606",
"i&	c #010000",
"j&	c #AA1A1A",
"k&	c #C51E1E",
"l&	c #C21616",
"m&	c #C91515",
"n&	c #CC1414",
"o&	c #CE1313",
"p&	c #D01111",
"q&	c #D11010",
"r&	c #D10E0E",
"s&	c #CE0D0D",
"t&	c #CB0B0B",
"u&	c #C60B0B",
"v&	c #C00909",
"w&	c #B90808",
"x&	c #B20707",
"y&	c #AB0606",
"z&	c #A60404",
"A&	c #A10303",
"B&	c #9E0202",
"C&	c #9D0101",
"D&	c #A40101",
"E&	c #570909",
"F&	c #900000",
"G&	c #B00808",
"H&	c #BA0D0D",
"I&	c #C10B0B",
"J&	c #780A0A",
"K&	c #130E0E",
"L&	c #C61D1D",
"M&	c #C31515",
"N&	c #C71515",
"O&	c #C91414",
"P&	c #C81313",
"Q&	c #BF1111",
"R&	c #B40F0F",
"S&	c #AA0E0E",
"T&	c #A10C0C",
"U&	c #990909",
"V&	c #950707",
"W&	c #930505",
"X&	c #940404",
"Y&	c #970202",
"Z&	c #B20202",
"`&	c #6A0707",
" *	c #B10C0C",
".*	c #B90C0C",
"+*	c #B01010",
"@*	c #A10D0D",
"#*	c #B70F0F",
"$*	c #B20606",
"%*	c #AA0404",
"&*	c #A20202",
"**	c #950000",
"=*	c #A00101",
"-*	c #990303",
";*	c #900404",
">*	c #850505",
",*	c #790707",
"'*	c #6C0909",
")*	c #600A0A",
"!*	c #590B0B",
"~*	c #7A0303",
"{*	c #CB2727",
"]*	c #C92222",
"^*	c #CA1A1A",
"/*	c #C70606",
"(*	c #9A0202",
"_*	c #920404",
":*	c #870606",
"<*	c #7C0707",
"[*	c #700909",
"}*	c #620A0A",
"|*	c #560C0C",
"1*	c #4A0E0E",
"2*	c #951717",
"3*	c #B02B2B",
"4*	c #9C2828",
"5*	c #891919",
"6*	c #770E0E",
"7*	c #680B0B",
"8*	c #5A0D0D",
"9*	c #4C0E0E",
"0*	c #411010",
"                                                                                                ",
"                            . +                                                                 ",
"                            @ # $ % & *                                                         ",
"                          = - ; > , ' ) ! ~ { ] ^ / ( _ : < <                                   ",
"                        [ } | 1 2 3 4 5 6 7 8 9 0 a b c d e f g g f h i j j j k l m             ",
"                      n [ } o p q r s t u v w x y z A B C D E F G H I J K L M N O P Q R         ",
"                      S [ T U V W X Y Z `  ...+.@.#.$.%.%.&.&.%.*.=.-.;.>.,.'.).!.~.{.=         ",
"                    ].^.[ T U /.(._.:.<.6 [.}.|.1.2.$.$.$.$.$.2.=.3.4.5.6.7.8.{ 9.0.= =         ",
"                    a.^.[ T U b.c.d.:.e.f.[.g.+.@.h.%.%.h.$.$.2.=.3.4.i.j.k.l.m.n.o.T =         ",
"                    p.^.q.} r.s.t.u.:.v.w.x.y.4.z.A.B.C.A D.E.F.G.H.I.J.K.L.8.M.N.O.T =         ",
"                    P.Q.q.} R.S.T.U.:.V.W.X.2 Y.Z.`. +.+++@+#+$+%+&+*+=+-+;+>+,+'+)+!+=         ",
"                  ~+{+]+^+T R./+T.(+:.V.; _+:+<+[+}+|+1+2+3+3+U 4+5+6+7+8+9+} 0+a+b+!+=         ",
"                  c+d+e+f+T R./+T.u.:.g+h+i+p <+j+k+j+l+m+n+o+p+q+r+s+t+u+8+v+w+x+y+!+=         ",
"  z+A+B+C+D+c+c+c+E+F+G+H+I+R.S.J+u.:.g+K+L+M+N+O+P+Q+R+S+T+U+V+W+X+Y+Z+`+ @9+.@x+y+!+=         ",
"+@@@#@$@%@&@*@*@*@=@-@;@>@,@'@)@!@~@:.{@]@^@2 /@(@_@:@<@[@}@|@1@2@3@4@5@w+6@7@8@a+9@!+=         ",
"0@a@b@c@d@e@-@-@-@=@=@&@f@g@h@i@!@j@:.k@l@i+m@n@}@o@p@q@q@q@p@r@<@s@t@1@2@u@v@w@x@y@= =         ",
"0@a@b@c@%@&@z@=@-@A@B@C@D@E@F@G@H@j@:.g+I@J@K@L@[@r@p@p@p@p@M@o@}@N@O@P@u@Q@R@x+x@7@9+=         ",
"0@@@S@c@T@U@V@W@X@Y@Z@`@ #.#+#@###$#%#&#*#=#-#;#[@r@p@p@p@p@M@o@}@N@O@2@u@Q@R@x+x@8+9+=         ",
">#,#'#)#!#`@~#{#{#Z@Z@]#^#/#(#_#:#<#%#[#}#|#1#2#[@r@p@p@p@p@r@<@}@N@1@2@u@Q@3#x+x@8+9+=         ",
"4#5#6#7#8#]#Z@Z@Z@Z@Z@]#^#/#9#0#a#b#c#d#s.e#f#g#[@r@p@p@p@p@r@<@}@N@h#2@u@v@3#x+x@8+9+=         ",
"i#j#k#l#m#n#Z@Z@Z@Z@Z@]#^#/#9#o#p#q#r#s#t#u#v#w#[@r@p@p@p@p@r@<@}@t@1@2@3@v@3#x+8@8+9+=         ",
"x#y#z#A#B#C#D#Z@Z@Z@Z@]#^#/#9#o#E#F#G#H#I#J#K#L#<@r@p@p@p@p@r@<@s@t@1@M#3@v@w@a+8@8+9+=         ",
"N#O#P#Q#R#S#T#X@Z@Z@Z@]#^#/#9#o#U#V#W#X#Y#Z#`# $<@r@p@p@p@p@o@<@s@t@h#M#3@v@w@a+8@8+9+=         ",
"c@.$+$@$#$$$%$&$*$Z@Z@]#^#/#9#o#=$-$;$>$,$'$)$!$<@M@p@p@p@M@o@[@s@t@h#M#~$4@w@a+8@8+9+=         ",
"{$]$^$/$($_$:$<$V@D#Z@]#^#/#9#[$}$|$;$1$2$3$4$5$<@M@p@p@p@M@o@[@s@O@h#M#~$4@w@a+w+8+9+=         ",
"6$7$8$9$0$a$b$c$d$W@Z@]#^#/#e$f$g$h$i$j$k$l$m$n$<@M@p@p@p@M@o@[@|@O@h#o$~$4@w@x@w+8+9+=         ",
"p$q$r$s$t$u$v$w$x$y$*$]#^#z$A$B$C$D$%#E$F$G$H$[@<@M@p@p@p@M@o@[@|@O@P@o$~$4@5@x@w+8+9+=         ",
"I$J$K$L$M$N$O$P$Q$R$c+]#S$T$U$V$W$X$i$Y$Z$`$ %<@<@M@p@p@p@M@o@[@|@O@2@o$Q@R@5@x@w+8+9+=         ",
".%+%@%#%$%%%&%*%=%=@-%n#;%>%,%'%)%X$i$!%~%{%]%o@<@M@p@p@p@M@<@[@|@1@P@u@Q@R@5@x@.@8+9+=         ",
"^%/%(%_%:%<%[%}%|%x$E+1%2%3%4%5%6%7%%#8%|#9%0%}@<@M@p@p@p@M@<@}@N@1@P@u@Q@R@5@8@.@8+9+=         ",
"                  a%b%c%d%[ e%f%g%h%%#i%j%k%N@s@<@M@p@p@p@r@<@}@N@1@2@u@Q@3#x+8@.@l%9+=         ",
"                  m%n%o%p%I+q%f%r%h%%#s%t%u%v%s@<@M@p@p@p@r@<@}@N@1@2@3@v@3#x+8@0+y+w%=         ",
"                  x%y%z%A%B%C%D%E%F%i$G%H%I%v%s@<@M@p@p@p@r@<@}@N@1@2@3@v@3#x+8@0+J%w%=         ",
"                    K%L%M%B%C%D%N%F%%#O%P%Q%t@s@<@M@p@p@p@r@<@s@t@h#M#3@v@w@x+8@0+J%w%=         ",
"                    R%S%M%T%C%U%V%W%i$X%Y%Q%t@s@o@M@p@p@M@r@<@s@t@h#M#3@v@w@a+w+0+J%w%=         ",
"                    Z%S%M%T%`% &V%W%i$.&+&@&t@}@o@M@p@p@M@r@[@s@t@h#M#3@4@w@a+w+#&$&!+=         ",
"                    %&S%&&T%`%*&=&W%i$-&;&>&t@}@o@M@p@p@M@o@[@s@t@P@M#~$4@w@a+w+#&J%w%=         ",
"                    ,&'&&&T%`%)&!&~&i${&]&^&t@}@o@M@p@p@M@o@[@s@O@P@M#~$4@5@a+w+#&/&w%=         ",
"                    (&_&&&T%:&<&[&~&i$}&|&h#t@}@o@M@p@p@M@o@[@|@O@P@o$~$4@5@x@.@#&1&{.}         ",
"                    2&_&3&T%4&5&-#6&i$7&8&]&9&0&a&b&p@p@M@o@}@|@O@h#M#3@v@3#a+w+#&c& @c&        ",
"                    d&e&3&T%4&f&g&h&i&j&k&l&6%m&n&o&p&q&r&s&t&u&v&w&x&y&z&A&B&w%!+C&D&0+        ",
"                      E&F&T%G&H&I&J&K&1$L&M&N&O&P&N%Q&R&S&T&U&V&W&X&Y&w%v+7+0+.@w+.@5@Z&        ",
"                        `&=  *D%.*+*@*#*K#0%$*%*&*} T%**I+{.7@0+w+.@6@=*-*;*>*,*'*)*!*          ",
"                          ~*e#{*]*^*/*t@2@~$w@.@`+(*_*:*<*[*}*|*1*                              ",
"                            2*3*4*5*6*7*8*9*0*                                                  ",
"                                                                                                ",
"                                                                                                ",
"                                                                                                "};
