/* XPM */
static const char * download_dis_xpm[] = {
"48 48 150 2",
"  	c None",
". 	c #767676",
"+ 	c #9D9D9D",
"@ 	c #7D7D7D",
"# 	c #A2A2A2",
"$ 	c #9E9E9E",
"% 	c #969696",
"& 	c #909090",
"* 	c #8C8C8C",
"= 	c #4E4E4E",
"- 	c #7F7F7F",
"; 	c #A0A0A0",
"> 	c #989898",
", 	c #9B9B9B",
"' 	c #8E8E8E",
") 	c #8A8A8A",
"! 	c #888888",
"~ 	c #858585",
"{ 	c #838383",
"] 	c #7C7C7C",
"^ 	c #797979",
"/ 	c #757575",
"( 	c #727272",
"_ 	c #717171",
": 	c #494949",
"< 	c #4D4D4D",
"[ 	c #787878",
"} 	c #919191",
"| 	c #5C5C5C",
"1 	c #929292",
"2 	c #A4A4A4",
"3 	c #8D8D8D",
"4 	c #818181",
"5 	c #7A7A7A",
"6 	c #777777",
"7 	c #737373",
"8 	c #707070",
"9 	c #6F6F6F",
"0 	c #414141",
"a 	c #747474",
"b 	c #949494",
"c 	c #5A5A5A",
"d 	c #000000",
"e 	c #AEAEAE",
"f 	c #868686",
"g 	c #848484",
"h 	c #6A6A6A",
"i 	c #676767",
"j 	c #656565",
"k 	c #636363",
"l 	c #666666",
"m 	c #3F3F3F",
"n 	c #939393",
"o 	c #595959",
"p 	c #010101",
"q 	c #898989",
"r 	c #A8A8A8",
"s 	c #999999",
"t 	c #8B8B8B",
"u 	c #878787",
"v 	c #6D6D6D",
"w 	c #565656",
"x 	c #373737",
"y 	c #404040",
"z 	c #8F8F8F",
"A 	c #5B5B5B",
"B 	c #363636",
"C 	c #505050",
"D 	c #A3A3A3",
"E 	c #828282",
"F 	c #626262",
"G 	c #474747",
"H 	c #979797",
"I 	c #3E3E3E",
"J 	c #484848",
"K 	c #A1A1A1",
"L 	c #6E6E6E",
"M 	c #686868",
"N 	c #575757",
"O 	c #959595",
"P 	c #525252",
"Q 	c #515151",
"R 	c #4F4F4F",
"S 	c #545454",
"T 	c #6B6B6B",
"U 	c #606060",
"V 	c #585858",
"W 	c #555555",
"X 	c #5E5E5E",
"Y 	c #616161",
"Z 	c #696969",
"` 	c #4C4C4C",
" .	c #9F9F9F",
"..	c #7E7E7E",
"+.	c #5F5F5F",
"@.	c #535353",
"#.	c #5D5D5D",
"$.	c #464646",
"%.	c #808080",
"&.	c #646464",
"*.	c #6C6C6C",
"=.	c #020202",
"-.	c #7B7B7B",
";.	c #444444",
">.	c #353535",
",.	c #030303",
"'.	c #2E2E2E",
").	c #0B0B0B",
"!.	c #434343",
"~.	c #313131",
"{.	c #151515",
"].	c #454545",
"^.	c #2D2D2D",
"/.	c #0A0A0A",
"(.	c #B7B7B7",
"_.	c #202020",
":.	c #040404",
"<.	c #AFAFAF",
"[.	c #C9C9C9",
"}.	c #303030",
"|.	c #C4C4C4",
"1.	c #9A9A9A",
"2.	c #424242",
"3.	c #A5A5A5",
"4.	c #B1B1B1",
"5.	c #ACACAC",
"6.	c #A6A6A6",
"7.	c #BFBFBF",
"8.	c #B9B9B9",
"9.	c #B2B2B2",
"0.	c #CDCDCD",
"a.	c #C5C5C5",
"b.	c #BBBBBB",
"c.	c #DDDDDD",
"d.	c #D2D2D2",
"e.	c #C8C8C8",
"f.	c #4B4B4B",
"g.	c #3D3D3D",
"h.	c #4A4A4A",
"i.	c #3B3B3B",
"j.	c #323232",
"k.	c #333333",
"l.	c #3C3C3C",
"m.	c #2C2C2C",
"n.	c #262626",
"o.	c #101010",
"p.	c #383838",
"q.	c #3A3A3A",
"r.	c #393939",
"s.	c #282828",
"                                                                                                ",
"                            . +                                                                 ",
"                            @ # $ % & *                                                         ",
"                          = - ; > $ , ' ) ! ~ { - ] ^ / ( _ _                                   ",
"                        : < [ > } @ | 1 2 % 3 ! 4 @ 5 6 7 ( _ 8 8 _ _ ( ( ( ( ( 8 9             ",
"                      0 : < a & b c d * e + % } ' ) ) ! f g 4 @ 5 6 a 9 h i j k k j l i         ",
"                      m : < ( ' n o p q r s b & 3 t t * * 3 3 * t ) u g - 5 7 v i w = =         ",
"                    x y : < ( z b A p u 2 > n z * t t t t t t t ) q ! ! u f f ~ u l = =         ",
"                    B y : < ( * q C p ~ D > n & 3 * * * * t t t ) q ! u f g { E E F < =         ",
"                    x y : < i / . G p g # H } ! f ~ u ! ) t * 3 * * t ) ! u f ~ ~ k < =         ",
"                    I I : < F _ . J p { K % } - _ _ 8 9 L L v v L 9 8 _ a . 7 v M c = =         ",
"                  9 N m J < F ( . G p { ; O 1 4 . . / a 7 a a ( 8 l o P Q R < S w w = =         ",
"                  h @ P G < F ( . G p E ; O & 4 6 . 6 / / T U | A V W S P Q C W N w = =         ",
"  X Y F M Z h h h L . ^ R ` F _ / G p E  .b & ..7 ( Z k F +.| A o N W @.Q R R S N w = =         ",
"F M v _ ( a / / / / a . 8 < #._ / $.p 4 $ n } ' %.9 &.k F F Y +.#.A o N W @.Q W w N = =         ",
"F i *.9 ( a a a a / / a 6 Y Y v / $.p %.$ O ~ L F k j j j j j &.k Y U +.#.| c V w S = =         ",
"F i *.9 ( a / / a 7 _ L h i @.v 7 $.p E s 5 i F F &.j j j j &.k F U +.X | c o N w Q R =         ",
"F M v 9 8 9 v h i l j &.Y A c W _ $.=./ -.h M &.F &.j j j j &.k F U +.#.| c o N w Q R =         ",
"Y k F F k &.&.&.&.j j &.F | w @.+.;.=.l . *.i k F &.j j j j &.k F U +.#.| c V N w Q R =         ",
"+.N c X F &.j j j j j &.F | w C G >.,.i / T l k F &.j j j j &.k F U X #.| c V N w Q R =         ",
"Y +.Y k &.j j j j j j &.F | w C ;.'.).&.a M &.F F &.j j j j &.k F U +.#.A c V N W Q R =         ",
"j h T T T h i j j j j &.F | w C !.~.{.F ( _ j F k &.j j j j &.k Y U +.#.A c V w W Q R =         ",
"h . 6 . a _ *.i j j j &.F | w C ].^./.k L (.D Y k &.j j j j k k Y U X #.A c V w W Q R =         ",
"9 g g 4 - ^ a v i j j &.F | w C G _.:.&.L <.[.a k &.j j j &.k F Y U X #.A o V w W Q R =         ",
"/ n } ' q { -.a v i j &.F | w S !.}.:.k 8 O |.%.k &.j j j &.k F Y +.X #.A o V w W Q R =         ",
"5 #  .1.O 3 g -.( h j &.F | A 2.w 2.=.F v 3.4./ k &.j j j &.k F Y +.X | A o V w W Q R =         ",
"%.4.5.6. .% * 4 6 L i &.F +.@.< Z ;.=.F 9 1 T F k &.j j j &.k F Y +.X | A o N w W Q R =         ",
"f 7.8.9.r  .n u ] ( h &.F +.: #.9 2.=.Y L & v k k &.j j j &.k F Y +.#.| c o N w W Q R =         ",
"t 0.a.b.4.6.s * %./ *.j M 2.R T L 2.=.U v ~ h k k &.j j j &.k F Y +.X | c o N w S Q R =         ",
"1 c.d.e.b.5.$ } g 6 L T f.y #.h v 0 =.+.*.Y +.F k &.j j j &.k F U +.X | c o N W S Q R =         ",
"                  9 7 U g.: +.Z v 0 =.+.T k U Y k &.j j j &.k F U +.#.| c V N W S S R =         ",
"                  *.a m 0 ` +.Z *.0 =.X h k U Y k &.j j j &.k F U +.#.A c V N W S w = =         ",
"                  _ h.x $.f.X M *.y =.X Z F U Y k &.j j j &.k F U +.#.A c V N W S w = =         ",
"                    x i.$.f.X M T y =.#.Z Y U Y k &.j j j &.k Y U X #.A c V N W S w = =         ",
"                    j.g.$.f.X M h m =.| M Y U Y k &.j j &.&.k Y U X #.A c V w W S w = =         ",
"                    k.g.$.f.#.i h m =.| i U U F k &.j j &.&.F Y U X #.A o V w W @.W = =         ",
"                    k.g.].f.#.i h m =.A l U U F k &.j j &.k F Y U X #.A o V w W @.w = =         ",
"                    >.l.].f.#.l Z m =.A l +.U F k &.j j &.k F Y +.X #.A o N w W @.w = =         ",
"                    m.I ].f.#.l M m =.c j X U F k &.j j &.k F Y +.X | A o N w S @.Q = <         ",
"                    m.I ].f.| j M I =.Y L l j j j j j j &.k F Y +.X #.A c V w W @.C R C         ",
"                    n.m ].f.| j i g.d F _ *.v 9 8 8 8 8 9 v T M &.U | V W P C = = R P S         ",
"                      }.J f.| k l 0 o.k _ *.L L v T M Y | w Q = ` ` ` = C P S S W S N c         ",
"                        p.= X M F U N k j +.| N P < f.h.` = Q S W S @.C = h.].y q.>.j.          ",
"                          I T ^ / ( l U #.A V S Q = f.$.0 l.B ~.m.                              ",
"                            w v F Q 2.r.k.^.s.                                                  ",
"                                                                                                ",
"                                                                                                ",
"                                                                                                "};
