/* XPM */
static const char * edit_dis_xpm[] = {
"48 48 107 2",
"  	c #FFFFFF",
". 	c #B9B9B9",
"+ 	c #C1C1C1",
"@ 	c #C0C0C0",
"# 	c #CACACA",
"$ 	c #D0D0D0",
"% 	c #C9C9C9",
"& 	c #CFCFCF",
"* 	c #C8C8C8",
"= 	c #CDCDCD",
"- 	c #BEBEBE",
"; 	c #BABABA",
"> 	c #C6C6C6",
", 	c #CCCCCC",
"' 	c #C5C5C5",
") 	c #CBCBCB",
"! 	c #C7C7C7",
"~ 	c #BBBBBB",
"{ 	c #BCBCBC",
"] 	c #A8A8A8",
"^ 	c #ACACAC",
"/ 	c #AFAFAF",
"( 	c #A7A7A7",
"_ 	c #ADADAD",
": 	c #959595",
"< 	c #979797",
"[ 	c #989898",
"} 	c #9B9B9B",
"| 	c #969696",
"1 	c #999999",
"2 	c #9C9C9C",
"3 	c #9A9A9A",
"4 	c #9E9E9E",
"5 	c #9F9F9F",
"6 	c #9D9D9D",
"7 	c #A0A0A0",
"8 	c #A6A6A6",
"9 	c #BFBFBF",
"0 	c #A1A1A1",
"a 	c #A2A2A2",
"b 	c #B6B6B6",
"c 	c #D2D2D2",
"d 	c #D4D4D4",
"e 	c #A3A3A3",
"f 	c #D6D6D6",
"g 	c #D7D7D7",
"h 	c #D8D8D8",
"i 	c #D9D9D9",
"j 	c #CECECE",
"k 	c #A4A4A4",
"l 	c #DADADA",
"m 	c #DBDBDB",
"n 	c #DCDCDC",
"o 	c #DDDDDD",
"p 	c #DEDEDE",
"q 	c #C3C3C3",
"r 	c #A5A5A5",
"s 	c #B2B2B2",
"t 	c #DFDFDF",
"u 	c #E0E0E0",
"v 	c #E1E1E1",
"w 	c #B8B8B8",
"x 	c #E2E2E2",
"y 	c #E3E3E3",
"z 	c #E4E4E4",
"A 	c #E5E5E5",
"B 	c #AAAAAA",
"C 	c #E7E7E7",
"D 	c #E8E8E8",
"E 	c #E9E9E9",
"F 	c #A9A9A9",
"G 	c #E6E6E6",
"H 	c #EAEAEA",
"I 	c #EBEBEB",
"J 	c #D3D3D3",
"K 	c #ABABAB",
"L 	c #ECECEC",
"M 	c #EDEDED",
"N 	c #EEEEEE",
"O 	c #EFEFEF",
"P 	c #F0F0F0",
"Q 	c #AEAEAE",
"R 	c #F1F1F1",
"S 	c #F2F2F2",
"T 	c #F3F3F3",
"U 	c #B0B0B0",
"V 	c #F4F4F4",
"W 	c #B1B1B1",
"X 	c #F5F5F5",
"Y 	c #F6F6F6",
"Z 	c #B4B4B4",
"` 	c #F7F7F7",
" .	c #F8F8F8",
"..	c #B3B3B3",
"+.	c #F9F9F9",
"@.	c #FAFAFA",
"#.	c #B5B5B5",
"$.	c #FBFBFB",
"%.	c #B7B7B7",
"&.	c #C2C2C2",
"*.	c #BDBDBD",
"=.	c #FCFCFC",
"-.	c #FDFDFD",
";.	c #FEFEFE",
">.	c #D5D5D5",
",.	c #D1D1D1",
"'.	c #2C2C2C",
"                                                                                                ",
"                                                                                                ",
"                                                                                                ",
"        . + + + + + + + + @                                                                     ",
"        # $ $ $ $ $ $ $ $ $ #                                                                   ",
"        % & & & & & & & & & & %                                                                 ",
"        * = = = = = = = = = = = % - - - - - - - - - - - - - - - - - - - - - - - - - - ;         ",
"        > , , , , , , , , , , , , , , , , , , , , , , , , , , , , , , , , , , , , , , *         ",
"        ' ) ) ) ) ) ) ) ) ) ) ) ) ) ) ) ) ) ) ) ) ) ) ) ) ) ) ) ) ) ) ) ) ) ) ) ) ) ) !         ",
"        ~ + + + + + + + + + + + + + + + + + + + + + + + + + + + + + + + + + + + + + + {         ",
"      ] ^ / / / / / / / / / / / / / / / / / / / / / / / / / / / / / / / / / / / / / / ^ (       ",
"^ ~ ; ; ~ ~ ~ ~ ~ ~ ~ ~ ~ ~ ~ ~ ~ ~ ~ ~ ~ ~ ~ ~ ~ ~ ~ ~ ~ ~ ~ ~ ~ ~ ~ ~ ~ ~ ~ ~ ~ ~ ~ ~ ; ; ~ _ ",
": < < [ } } } } } } } } } } } } } } } } } } } } } } } } } } } } } } } } } } } } } } } } [ < < : ",
"| [ [ 1 2 2 2 2 2 2 2 2 2 2 2 2 2 2 2 2 2 2 2 2 2 2 2 2 2 2 2 2 2 2 2 2 2 2 2 2 2 2 2 2 1 [ [ | ",
"< 3 3 } 4 4 4 4 4 4 4 4 4 4 4 4 4 4 4 4 4 4 4 4 4 4 4 4 4 4 4 4 4 4 4 4 4 4 4 4 4 4 4 4 } 3 3 < ",
"[ } } 2 5 5 5 5 5 5 5 5 5 5 5 5 5 5 5 5 5 5 5 5 5 5 5 5 5 5 5 5 5 5 5 5 5 5 5 5 5 5 5 5 2 } } [ ",
"1 6 6 6 7 7 7 7 7 7 7 7 7 7 7 7 7 7 7 7 7 7 8 9 @ ( 0 7 7 7 7 7 7 7 7 7 7 7 7 7 7 7 7 7 4 6 6 1 ",
"} 4 4 5 0 0 0 0 0 0 0 0 0 0 0 0 0 0 0 0 a b = c d $ . a 0 0 0 0 0 0 0 0 0 0 0 0 0 0 0 0 5 4 4 } ",
"6 7 7 7 e e e e e e e e e e e e e e e _ * f g h h i i j / e e e e e e e e e e e e e e e 0 7 7 6 ",
"7 0 0 a k k k k k k k k k k k k k ( @ g l m m n n o o p m q ] k k k k k k k k k k k k k a 0 0 7 ",
"e e e k r r r r r r r r r r r r s c o p p t t t u u u u u v i w r r r r r r r r r r r r k e e e ",
"8 r r 8 ( ( ( ( ( ( ( ( ( ( ^ # t u u v v v x x y y y z z z A A j _ ( ( ( ( ( ( ( ( ( ( 8 r r 8 ",
"  ( ( ( ] ] ] ] ] ] ] ] B ~ m x y y y z z z A A A C C C D D D D E v q B ] ] ] ] ] ] ] ] ( ( ( F ",
"  F F F F F F F F F F F - j & A G G G C C D D D D E E E H H I I I J c q B F F F F F F F F F F   ",
"  K B B B B B B B B B B B B B A D E H H H H H I I I L L L L M N L K B B B B B B B B B B B B K   ",
"  _ ^ ^ ^ ^ ^ ^ ^ ^ ^ ^ ^ ^ ^ G I I L L L L M M N N O O O O P P L ^ ^ ^ ^ ^ ^ ^ ^ ^ ^ ^ ^ ^ _   ",
"  Q Q _ _ _ _ _ _ _ _ _ _ _ _ G M N N N O O O P P P P R R S S T M Q _ _ _ _ _ _ _ _ _ _ _ Q Q   ",
"  U / Q _ _ _ _ _ _ _ _ _ _ _ G P P P R R S S S S S T T T T V V L Q _ _ _ _ _ _ _ _ _ _ Q / U   ",
"  s W U / / / / / / / / / / / C S S T T T T & w w w w I X Y Y Y L / / / / / / / / / / / U W W   ",
"  Z s W U U U U U U U U U U U C T V V X X X ) U U U U M ` `  . .L U U U U U U U U U U U W s ..  ",
"  b Z s W W W W W W W W W W W C X Y Y Y ` ` $ W W W W R +.+.+.@.L s W W W W W W W W W W s Z b   ",
"  { ; w #.#.#.#.#.#.#.#.#.#.#.D  . . .+.+.+.d #.#.#.#.V @.@.@.$.M b #.#.#.#.#.#.#.#.#.#.%.; {   ",
"  &.@ *.~ ~ ~ ~ ~ ~ ~ ~ ~ ~ ; G +.@.@.@.@.@.l ~ ~ ~ ~  .=.=.-.-.L ~ ~ ~ ~ ~ ~ ~ ~ ~ ~ ~ *.@ &.  ",
"  * > q + + + + + + + + + + + z $.$.$.$.$.$.t + + + + $.-.;.;.;.H + + + + + + + + + + + q > *   ",
"  = = % ! ! ! ! ! ! ! ! ! ! ! ) & & & & & & # ! ! ! ! & & & & & , ! ! ! ! ! ! ! ! ! ! ! % = =   ",
"  J d & , , , , , , , , , , , , , , , , , , , , , , , , , , , , , , , , , , , , , , , , & J J   ",
"  >.f $ & j j j j j j j j j j j j j j j j j j j j j j j j j j j j j j j j j j j j j j & $ >.>.  ",
"  ,.$ # % % % % % % % % % % % % % % % % % % % % % % % % % % % % % % % % % % % % % % % % # $ ,.  ",
"    w %.%.%.%.%.%.%.%.%.%.%.%.%.%.%.%.%.%.%.%.%.%.%.%.%.%.%.%.%.%.%.%.%.%.%.%.%.%.%.%.%.%.w     ",
"      '.'.'.'.'.'.'.'.'.'.'.'.'.'.'.'.'.'.'.'.'.'.'.'.'.'.'.'.'.'.'.'.'.'.'.'.'.'.'.'.'.'.      ",
"                                                                                                ",
"                                                                                                ",
"                                                                                                ",
"                                                                                                ",
"                                                                                                ",
"                                                                                                ",
"                                                                                                ",
"                                                                                                "};
