/* XPM */
static const char * edit_xpm[] = {
"48 48 343 2",
"  	c None",
". 	c #ECB362",
"+ 	c #F2BB6E",
"@ 	c #F2BA6C",
"# 	c #FAC479",
"$ 	c #FFCA81",
"% 	c #FBC479",
"& 	c #FAC375",
"* 	c #FFC97D",
"= 	c #FBC375",
"- 	c #FAC272",
"; 	c #FFC779",
"> 	c #FBC373",
", 	c #F2B865",
"' 	c #EFB360",
") 	c #FAC06F",
"! 	c #FFC676",
"~ 	c #FBC271",
"{ 	c #FABF6B",
"] 	c #FFC472",
"^ 	c #FBC06D",
"/ 	c #F1B26F",
"( 	c #F6B979",
"_ 	c #F2B472",
": 	c #E49F4B",
"< 	c #E6A35C",
"[ 	c #E9A661",
"} 	c #E7A35D",
"| 	c #E39E4B",
"1 	c #EDA43F",
"2 	c #F2B45C",
"3 	c #F2B35B",
"4 	c #F3B45C",
"5 	c #EDA53F",
"6 	c #EA8A05",
"7 	c #EC8C05",
"8 	c #ED8D07",
"9 	c #EE900E",
"0 	c #EA8B05",
"a 	c #ED8E09",
"b 	c #EF9210",
"c 	c #EE8E0A",
"d 	c #EA8B06",
"e 	c #EB8C08",
"f 	c #EE8F0B",
"g 	c #EE900D",
"h 	c #F09313",
"i 	c #EC8D0A",
"j 	c #EF910D",
"k 	c #EF920F",
"l 	c #F19515",
"m 	c #EC8F0C",
"n 	c #F09210",
"o 	c #F09312",
"p 	c #F19617",
"q 	c #F29D25",
"r 	c #F5B862",
"s 	c #F5B964",
"t 	c #F29E27",
"u 	c #F19717",
"v 	c #F09412",
"w 	c #ED9110",
"x 	c #F19413",
"y 	c #F19514",
"z 	c #F29719",
"A 	c #F2981A",
"B 	c #F4AE4B",
"C 	c #F7C888",
"D 	c #F8CD92",
"E 	c #F8CF95",
"F 	c #F8CB8C",
"G 	c #F5B152",
"H 	c #EF9314",
"I 	c #F29615",
"J 	c #F29617",
"K 	c #F3991B",
"L 	c #F4A434",
"M 	c #F7C279",
"N 	c #F9D29C",
"O 	c #F9D39E",
"P 	c #F9D49F",
"Q 	c #F9D4A0",
"R 	c #F9D5A2",
"S 	c #F8C986",
"T 	c #F4A639",
"U 	c #F29717",
"V 	c #EE9314",
"W 	c #F09619",
"X 	c #F39718",
"Y 	c #F39819",
"Z 	c #F49A1D",
"` 	c #F49D23",
" .	c #F7B962",
"..	c #FAD39D",
"+.	c #FAD6A4",
"@.	c #FAD7A5",
"#.	c #FAD7A7",
"$.	c #FAD8A7",
"%.	c #FAD8A9",
"&.	c #FAD9AA",
"*.	c #FAD9AB",
"=.	c #FADAAD",
"-.	c #FAD7A6",
";.	c #F7BC6A",
">.	c #F49F27",
",.	c #F2991D",
"'.	c #F4991B",
").	c #F49A1C",
"!.	c #F59B1F",
"~.	c #F6A93F",
"{.	c #F9CD91",
"].	c #FBDAAD",
"^.	c #FBDBAE",
"/.	c #FBDBAF",
"(.	c #FBDBB0",
"_.	c #FBDCB2",
":.	c #FBDDB3",
"<.	c #FBDDB5",
"[.	c #FBDEB6",
"}.	c #FAD5A2",
"|.	c #F7B04E",
"1.	c #F39C23",
"2.	c #F59B1E",
"3.	c #F59C1F",
"4.	c #F59D21",
"5.	c #F6A32E",
"6.	c #F9C47A",
"7.	c #FBDEB5",
"8.	c #FBDFB7",
"9.	c #FBE0B9",
"0.	c #FBE0BA",
"a.	c #FBE1BB",
"b.	c #FBE1BD",
"c.	c #FCE1BD",
"d.	c #FCE2BF",
"e.	c #FBE2BE",
"f.	c #F9C987",
"g.	c #F6A431",
"h.	c #F49C23",
"i.	c #F69D21",
"j.	c #F69E23",
"k.	c #F6A027",
"l.	c #F8B354",
"m.	c #FBD7A6",
"n.	c #FCE0BA",
"o.	c #FCE1BC",
"p.	c #FCE2BE",
"q.	c #FCE4C1",
"r.	c #FCE4C2",
"s.	c #FCE4C3",
"t.	c #FCE5C4",
"u.	c #FCE5C5",
"v.	c #FCE5C6",
"w.	c #FCE6C7",
"x.	c #FCE6C8",
"y.	c #F8BC67",
"z.	c #F6A028",
"A.	c #F69D22",
"B.	c #F59F28",
"C.	c #F79F24",
"D.	c #F79F25",
"E.	c #F9B659",
"F.	c #FAC883",
"G.	c #FAC986",
"H.	c #FCE2BD",
"I.	c #FCE3BF",
"J.	c #FCE3C1",
"K.	c #FCE4C4",
"L.	c #FCE6C6",
"M.	c #FCE7CA",
"N.	c #FCE8CB",
"O.	c #FDE8CC",
"P.	c #FDE8CD",
"Q.	c #FDE9CE",
"R.	c #FBCE91",
"S.	c #FBCD8F",
"T.	c #F9BC69",
"U.	c #F7A026",
"V.	c #F8A128",
"W.	c #F8A026",
"X.	c #F7A027",
"Y.	c #FDE7C9",
"Z.	c #FDE8CB",
"`.	c #FDE9CD",
" +	c #FDEACF",
".+	c #FDEAD0",
"++	c #FDEAD1",
"@+	c #FDEBD4",
"#+	c #FDECD4",
"$+	c #FCEAD0",
"%+	c #F7A22B",
"&+	c #F8A027",
"*+	c #F8A127",
"=+	c #F9A32B",
"-+	c #F9A229",
";+	c #F8A229",
">+	c #FDEBD2",
",+	c #FDEBD3",
"'+	c #FDECD3",
")+	c #FDECD5",
"!+	c #FDEDD6",
"~+	c #FDEDD7",
"{+	c #FDEDD8",
"]+	c #FDEED9",
"^+	c #F8A32C",
"/+	c #FAA52E",
"(+	c #FAA42C",
"_+	c #FAA32B",
":+	c #FCE3C0",
"<+	c #FDECD6",
"[+	c #FDEEDA",
"}+	c #FDEFDA",
"|+	c #FDEFDC",
"1+	c #FDF0DD",
"2+	c #FEF0DE",
"3+	c #FEF0DF",
"4+	c #FEF1E0",
"5+	c #FDEBD1",
"6+	c #F9A42E",
"7+	c #FBA732",
"8+	c #FBA52F",
"9+	c #F9A42D",
"0+	c #FDEFDB",
"a+	c #FEEFDC",
"b+	c #FEF0DD",
"c+	c #FEF1DE",
"d+	c #FEF1DF",
"e+	c #FEF2E1",
"f+	c #FEF2E2",
"g+	c #FEF3E4",
"h+	c #FEF3E5",
"i+	c #F9A530",
"j+	c #FBA632",
"k+	c #FCA935",
"l+	c #FCA732",
"m+	c #FBA631",
"n+	c #FAA52F",
"o+	c #FDE4C2",
"p+	c #FEF1E1",
"q+	c #FCC982",
"r+	c #FBB048",
"s+	c #FEF4E7",
"t+	c #FEF5E8",
"u+	c #FEF5E9",
"v+	c #FEF5EA",
"w+	c #FAA632",
"x+	c #FCA834",
"y+	c #FDAB38",
"z+	c #FDA935",
"A+	c #FCA833",
"B+	c #FDE4C1",
"C+	c #FEF2E3",
"D+	c #FEF3E3",
"E+	c #FEF4E6",
"F+	c #FCC57A",
"G+	c #FEF6ED",
"H+	c #FEF7EE",
"I+	c #FBA733",
"J+	c #FDAA37",
"K+	c #FEAD3D",
"L+	c #FEAB38",
"M+	c #FCA936",
"N+	c #FBA834",
"O+	c #FDE4C3",
"P+	c #FEF4E8",
"Q+	c #FEF6EB",
"R+	c #FEF6EC",
"S+	c #FCCA83",
"T+	c #FEF8F0",
"U+	c #FEF8F1",
"V+	c #FEF8F2",
"W+	c #FEF9F2",
"X+	c #FBA936",
"Y+	c #FEAD3C",
"Z+	c #FFB34B",
"`+	c #FFB146",
" @	c #FDAF42",
".@	c #FCAC3F",
"+@	c #FDE5C4",
"@@	c #FEF7EF",
"#@	c #FEF8EF",
"$@	c #FDCF90",
"%@	c #FDF3E5",
"&@	c #FEFAF5",
"*@	c #FEFBF6",
"=@	c #FDEBD0",
"-@	c #FCAD41",
";@	c #FDAE42",
">@	c #FFBA5B",
",@	c #FFB857",
"'@	c #FDB552",
")@	c #FCB24E",
"!@	c #FCB24D",
"~@	c #FDE3C1",
"{@	c #FEF9F3",
"]@	c #FEFAF4",
"^@	c #FDD59E",
"/@	c #FDF7ED",
"(@	c #FEFCF8",
"_@	c #FEFCF9",
":@	c #FEFDFA",
"<@	c #FCB34F",
"[@	c #FFC16B",
"}@	c #FFBF69",
"|@	c #FDBC63",
"1@	c #FCB95E",
"2@	c #FDE1BE",
"3@	c #FEFAF6",
"4@	c #FEFBF7",
"5@	c #FEFBF8",
"6@	c #FDDBAC",
"7@	c #FDFBF6",
"8@	c #FEFDFC",
"9@	c #FEFEFC",
"0@	c #FDBC62",
"a@	c #FFC77A",
"b@	c #FDC372",
"c@	c #FCC06E",
"d@	c #FCC983",
"e@	c #FCC478",
"f@	c #FCC67B",
"g@	c #FDC272",
"h@	c #FFCD87",
"i@	c #FFCE8B",
"j@	c #FCC981",
"k@	c #FCC67D",
"l@	c #FECE8B",
"m@	c #FFCF8E",
"n@	c #FED192",
"o@	c #FCCA86",
"p@	c #FBC983",
"q@	c #FBC883",
"r@	c #FED092",
"s@	c #FCCC89",
"t@	c #FBCB89",
"u@	c #F7C47F",
"v@	c #F5C37E",
"w@	c #F6C47F",
"x@	c #FCCC8A",
"y@	c #E0B377",
"z@	c #E1B273",
"A@	c #E0B273",
"B@	c #2E2C2A",
"                                                                                                ",
"                                                                                                ",
"                                                                                                ",
"        . + + + + + + + + @                                                                     ",
"        # $ $ $ $ $ $ $ $ $ %                                                                   ",
"        & * * * * * * * * * * =                                                                 ",
"        - ; ; ; ; ; ; ; ; ; ; ; > , , , , , , , , , , , , , , , , , , , , , , , , , , '         ",
"        ) ! ! ! ! ! ! ! ! ! ! ! ! ! ! ! ! ! ! ! ! ! ! ! ! ! ! ! ! ! ! ! ! ! ! ! ! ! ! ~         ",
"        { ] ] ] ] ] ] ] ] ] ] ] ] ] ] ] ] ] ] ] ] ] ] ] ] ] ] ] ] ] ] ] ] ] ] ] ] ] ] ^         ",
"        / ( ( ( ( ( ( ( ( ( ( ( ( ( ( ( ( ( ( ( ( ( ( ( ( ( ( ( ( ( ( ( ( ( ( ( ( ( ( _         ",
"      : < [ [ [ [ [ [ [ [ [ [ [ [ [ [ [ [ [ [ [ [ [ [ [ [ [ [ [ [ [ [ [ [ [ [ [ [ [ [ } |       ",
"1 2 3 3 4 4 4 4 4 4 4 4 4 4 4 4 4 4 4 4 4 4 4 4 4 4 4 4 4 4 4 4 4 4 4 4 4 4 4 4 4 4 4 4 3 3 2 5 ",
"6 7 7 8 9 9 9 9 9 9 9 9 9 9 9 9 9 9 9 9 9 9 9 9 9 9 9 9 9 9 9 9 9 9 9 9 9 9 9 9 9 9 9 9 8 7 7 6 ",
"0 8 8 a b b b b b b b b b b b b b b b b b b b b b b b b b b b b b b b b b b b b b b b b c 8 8 d ",
"e f f g h h h h h h h h h h h h h h h h h h h h h h h h h h h h h h h h h h h h h h h h g f f e ",
"i j j k l l l l l l l l l l l l l l l l l l l l l l l l l l l l l l l l l l l l l l l l k j j i ",
"m n n o p p p p p p p p p p p p p p p p p p q r s t u p p p p p p p p p p p p p p p p p v n n m ",
"w x x y z z z z z z z z z z z z z z z z A B C D E F G A z z z z z z z z z z z z z z z z y x x w ",
"H I I J K K K K K K K K K K K K K K K L M N O P Q R R S T K K K K K K K K K K K K K K K U I I V ",
"W X X Y Z Z Z Z Z Z Z Z Z Z Z Z Z `  ...+.@.#.$.%.&.*.=.-.;.>.Z Z Z Z Z Z Z Z Z Z Z Z Z Y X X W ",
",.'.'.).!.!.!.!.!.!.!.!.!.!.!.!.~.{.*.].].^./.(._._.:.<.<.[.}.|.!.!.!.!.!.!.!.!.!.!.!.!.).'.'.,.",
"1.2.2.3.4.4.4.4.4.4.4.4.4.4.5.6./._._.7.7.[.8.8.9.0.0.a.b.c.d.e.f.g.4.4.4.4.4.4.4.4.4.4.3.2.2.h.",
"  i.i.i.j.j.j.j.j.j.j.j.k.l.m.8.9.n.n.o.o.c.p.d.d.q.r.s.t.u.v.w.x.[.y.z.j.j.j.j.j.j.j.j.A.i.i.B.",
"  C.C.C.D.D.D.D.D.D.D.D.E.F.G.H.I.J.J.r.K.t.u.L.w.x.M.M.N.O.P.P.Q.R.S.T.U.D.D.D.D.D.D.D.C.C.C.  ",
"  V.W.W.X.X.X.X.X.X.X.X.X.X.X.p.w.x.Y.Y.Z.Z.O.`.Q.Q. +.+.+++@+#+$+%+X.X.X.X.X.X.X.X.X.X.&+W.*+  ",
"  =+-+-+;+;+;+;+;+;+;+;+;+;+;+I.Q.Q. + +.+.+>+,+'+)+!+~+{+{+]+]+.+^+;+;+;+;+;+;+;+;+;+;+-+-+=+  ",
"  /+(+_+=+=+=+=+=+=+=+=+=+=+=+:+,+#+<+<+~+{+{+]+[+}+}+|+1+2+3+4+5+6+=+=+=+=+=+=+=+=+=+=+_+(+/+  ",
"  7+8+/+9+9+9+9+9+9+9+9+9+9+9+J.]+[+[+0+a+b+c+d+d+d+e+e+f+f+g+h+++i+9+9+9+9+9+9+9+9+9+9+/+8+j+  ",
"  k+l+m+n+n+n+n+n+n+n+n+n+n+n+o+d+d+4+p+e+f+q+r+r+r+r+`.s+t+u+v+++w+n+n+n+n+n+n+n+n+n+n+m+l+x+  ",
"  y+z+A+m+m+m+m+m+m+m+m+m+m+m+B+C+D+g+E+E+s+F+m+m+m+m+>+G+G+H+H+.+I+m+m+m+m+m+m+m+m+m+m+A+z+J+  ",
"  K+L+M+N+N+N+N+N+N+N+N+N+N+N+O+P+u+v+v+Q+R+S+N+N+N+N+0+T+U+V+W+.+X+N+N+N+N+N+N+N+N+N+N+M+L+Y+  ",
"  Z+`+ @.@.@.@.@.@.@.@.@.@.@.@+@H+H+@@#@T+T+$@.@.@.@.@%@&@&@&@*@=@-@.@.@.@.@.@.@.@.@.@.@;@`+Z+  ",
"  >@,@'@)@)@)@)@)@)@)@)@)@)@!@~@U+W+{@]@]@&@^@)@)@)@)@/@(@_@:@:@.+<@)@)@)@)@)@)@)@)@)@)@'@,@>@  ",
"  [@}@|@1@1@1@1@1@1@1@1@1@1@1@2@3@3@4@4@4@5@6@1@1@1@1@7@8@9@9@9@Y.1@1@1@1@1@1@1@1@1@1@1@0@}@[@  ",
"  ; a@b@c@c@c@c@c@c@c@c@c@c@c@F+q+q+q+q+q+d@e@c@c@c@c@q+d@d@d@d@f@c@c@c@c@c@c@c@c@c@c@c@g@a@;   ",
"  h@i@j@k@k@k@k@k@k@k@k@k@k@k@k@k@k@k@k@k@k@k@k@k@k@k@k@k@k@k@k@k@k@k@k@k@k@k@k@k@k@k@k@j@l@h@  ",
"  m@n@o@p@q@q@q@q@q@q@q@q@q@q@q@q@q@q@q@q@q@q@q@q@q@q@q@q@q@q@q@q@q@q@q@q@q@q@q@q@q@q@p@o@r@m@  ",
"  s@t@u@v@v@v@v@v@v@v@v@v@v@v@v@v@v@v@v@v@v@v@v@v@v@v@v@v@v@v@v@v@v@v@v@v@v@v@v@v@v@v@v@w@t@x@  ",
"    y@z@A@A@A@A@A@A@A@A@A@A@A@A@A@A@A@A@A@A@A@A@A@A@A@A@A@A@A@A@A@A@A@A@A@A@A@A@A@A@A@A@z@y@    ",
"      B@B@B@B@B@B@B@B@B@B@B@B@B@B@B@B@B@B@B@B@B@B@B@B@B@B@B@B@B@B@B@B@B@B@B@B@B@B@B@B@B@B@      ",
"                                                                                                ",
"                                                                                                ",
"                                                                                                ",
"                                                                                                ",
"                                                                                                ",
"                                                                                                ",
"                                                                                                ",
"                                                                                                "};
