/* XPM */
static const char * expired_xpm[] = {
"16 16 56 1",
" 	c None",
".	c #FDE55E",
"+	c #FEEA80",
"@	c #FEED92",
"#	c #FEEE97",
"$	c #FEEC88",
"%	c #FEEC8D",
"&	c #FDE976",
"*	c #E2CA45",
"=	c #FADF4C",
"-	c #FDE76B",
";	c #FEEA7E",
">	c #BFC1CC",
",	c #FDE769",
"'	c #FDE664",
")	c #FDE354",
"!	c #F0D649",
"~	c #D6BF41",
"{	c #EDD448",
"]	c #FDE250",
"^	c #FBFBFB",
"/	c #FCFCFC",
"(	c #FDFDFD",
"_	c #FEFEFE",
":	c #F2D84A",
"<	c #E9D047",
"[	c #DCC543",
"}	c #CFB93F",
"|	c #F6F6F6",
"1	c #F5F5F5",
"2	c #9C9C9C",
"3	c #F8F8F8",
"4	c #CDB73F",
"5	c #CEB83F",
"6	c #F3F3F3",
"7	c #F0F0F0",
"8	c #EFEFEF",
"9	c #F7F7F7",
"0	c #C6B13C",
"a	c #EDEDED",
"b	c #E9E9E9",
"c	c #E8E8E8",
"d	c #E4E4E4",
"e	c #E2E2E2",
"f	c #B64F54",
"g	c #B00000",
"h	c #DEDEDE",
"i	c #CF6767",
"j	c #FE6464",
"k	c #FCAFAD",
"l	c #737373",
"m	c #FAFAF7",
"n	c #EC4F4F",
"o	c #DA3939",
"p	c #C51D1D",
"q	c #FFFFFF",
"qqqqqqqqqqqqqqqq",
"q.+@#qq$%$&qqqqq",
"*=-;>>>>,')!qqqq",
"~{]>^/(_>:<[qqqq",
"}*>|123^_>~4qqqq",
"5>678269^_>0qqqq",
"q>abc2a63(>qqqqq",
"q>bde2222/fggqqq",
"q>cehec81igjggqq",
"q>>dedb7|gjkjgqq",
"ql2>cba6fgjmjggq",
"l2l>>>>>gnnnnngq",
"llqqqqqqgoomoogq",
"qqqqqqqgpooooopg",
"qqqqqqqqgggggggq",
"qqqqqqqqqqqqqqqq"};
