/* XPM */
static const char * file_edit_dis_xpm[] = {
"48 48 175 2",
"  	c None",
". 	c #9E9E9E",
"+ 	c #A8A8A8",
"@ 	c #A9A9A9",
"# 	c #ABABAB",
"$ 	c #ACACAC",
"% 	c #AAAAAA",
"& 	c #A6A6A6",
"* 	c #A4A4A4",
"= 	c #A2A2A2",
"- 	c #A0A0A0",
"; 	c #9C9C9C",
"> 	c #9A9A9A",
", 	c #989898",
"' 	c #969696",
") 	c #949494",
"! 	c #929292",
"~ 	c #909090",
"{ 	c #8E8E8E",
"] 	c #8C8C8C",
"^ 	c #8A8A8A",
"/ 	c #888888",
"( 	c #868686",
"_ 	c #858585",
": 	c #878787",
"< 	c #898989",
"[ 	c #8B8B8B",
"} 	c #848484",
"| 	c #999999",
"1 	c #E7E7E7",
"2 	c #F6F6F6",
"3 	c #F5F5F5",
"4 	c #F4F4F4",
"5 	c #F3F3F3",
"6 	c #F2F2F2",
"7 	c #F1F1F1",
"8 	c #F0F0F0",
"9 	c #EFEFEF",
"0 	c #E1E1E1",
"a 	c #808080",
"b 	c #9D9D9D",
"c 	c #E2E2E2",
"d 	c #DEDEDE",
"e 	c #DFDFDF",
"f 	c #E5E5E5",
"g 	c #E0E0E0",
"h 	c #E3E3E3",
"i 	c #E4E4E4",
"j 	c #E6E6E6",
"k 	c #EDEDED",
"l 	c #DDDDDD",
"m 	c #9B9B9B",
"n 	c #EEEEEE",
"o 	c #BFBFBF",
"p 	c #BBBBBB",
"q 	c #BCBCBC",
"r 	c #BDBDBD",
"s 	c #BEBEBE",
"t 	c #979797",
"u 	c #E8E8E8",
"v 	c #E9E9E9",
"w 	c #EAEAEA",
"x 	c #919191",
"y 	c #C1C1C1",
"z 	c #C0C0C0",
"A 	c #EBEBEB",
"B 	c #838383",
"C 	c #8F8F8F",
"D 	c #8D8D8D",
"E 	c #D4D4D4",
"F 	c #DCDCDC",
"G 	c #ECECEC",
"H 	c #828282",
"I 	c #B8B8B8",
"J 	c #B7B7B7",
"K 	c #737373",
"L 	c #4E4E4E",
"M 	c #454545",
"N 	c #626262",
"O 	c #777777",
"P 	c #4A4A4A",
"Q 	c #939393",
"R 	c #616161",
"S 	c #A7A7A7",
"T 	c #818181",
"U 	c #505050",
"V 	c #434343",
"W 	c #C3C3C3",
"X 	c #B5B5B5",
"Y 	c #7F7F7F",
"Z 	c #6B6B6B",
"` 	c #B0B0B0",
" .	c #787878",
"..	c #5A5A5A",
"+.	c #464646",
"@.	c #3C3C3C",
"#.	c #444444",
"$.	c #C2C2C2",
"%.	c #6A6A6A",
"&.	c #C5C5C5",
"*.	c #D2D2D2",
"=.	c #B9B9B9",
"-.	c #646464",
";.	c #424242",
">.	c #363636",
",.	c #383838",
"'.	c #606060",
").	c #C7C7C7",
"!.	c #D1D1D1",
"~.	c #D0D0D0",
"{.	c #343434",
"].	c #414141",
"^.	c #B4B4B4",
"/.	c #5E5E5E",
"(.	c #BABABA",
"_.	c #CDCDCD",
":.	c #7E7E7E",
"<.	c #959595",
"[.	c #7C7C7C",
"}.	c #5D5D5D",
"|.	c #9F9F9F",
"1.	c #767676",
"2.	c #6D6D6D",
"3.	c #5C5C5C",
"4.	c #525252",
"5.	c #7A7A7A",
"6.	c #C4C4C4",
"7.	c #B6B6B6",
"8.	c #C8C8C8",
"9.	c #ADADAD",
"0.	c #6E6E6E",
"a.	c #676767",
"b.	c #B1B1B1",
"c.	c #656565",
"d.	c #D6D6D6",
"e.	c #636363",
"f.	c #AEAEAE",
"g.	c #5F5F5F",
"h.	c #747474",
"i.	c #585858",
"j.	c #A3A3A3",
"k.	c #535353",
"l.	c #717171",
"m.	c #707070",
"n.	c #6C6C6C",
"o.	c #CBCBCB",
"p.	c #6F6F6F",
"q.	c #4D4D4D",
"r.	c #666666",
"s.	c #4F4F4F",
"t.	c #696969",
"u.	c #D9D9D9",
"v.	c #A1A1A1",
"w.	c #DBDBDB",
"x.	c #D8D8D8",
"y.	c #7B7B7B",
"z.	c #F7F7F7",
"A.	c #CACACA",
"B.	c #F8F8F8",
"C.	c #F9F9F9",
"D.	c #7D7D7D",
"E.	c #DADADA",
"F.	c #575757",
"G.	c #2B2B2B",
"H.	c #323232",
"I.	c #D3D3D3",
"J.	c #D5D5D5",
"K.	c #D7D7D7",
"L.	c #797979",
"M.	c #474747",
"N.	c #CECECE",
"O.	c #CFCFCF",
"P.	c #CCCCCC",
"Q.	c #555555",
"R.	c #545454",
"                                                                                                ",
"                                                                                                ",
"                                                                                                ",
"              . + @ # $ $ # % + & * = - . ; > , ' ) ! ~ { ] ^ / ( _ : < [ ] ] ^ }               ",
"            | 1 2 3 3 2 2 2 2 3 3 4 4 4 4 4 5 5 5 5 5 6 6 6 6 6 7 8 8 8 8 8 9 9 0 a             ",
"            b 6 c d e e f 0 g 0 0 0 c c c h h h h i i i i i i i i i i i i i i j k (             ",
"            b 6 0 l d d i g e g g 0 0 0 c c c c h h h h h h h i i i i h h h h f k (             ",
"            ; 6 c d d e f g g g 0 0 c c c h h h h i i i i i i i i i i i i i i j k _             ",
"            m 6 c d e e f 0 0 0 0 c c h h h i i i i f f f f f f f f f f f f f j n _             ",
"            > 6 h e e g j 0 0 e o p q q q q q q r r r r r r r r r r r s f f f 1 n _             ",
"            | 6 h e g g j c c e s p p q q q q q q r r r r r r r r r r r f j j 1 n _             ",
"            t 6 h g g 0 1 c c g o q q q q q q r r r r r r r r r r r r r j 1 1 u n }             ",
"            ' 7 i g 0 0 1 h h h h h i i f f f j j j j j j 1 1 1 1 1 1 1 1 1 1 v n }             ",
"            ) 7 i 0 0 c u h h i i f f j j j 1 1 1 u u u u u u v v v u u u u u v n }             ",
"            ! 7 i 0 c c u i i i f f j j 1 1 1 u u u v v v v v v v v v v v v v w n }             ",
"            x 7 f c c h u i i c y r r s s s s s o o o o o z z z z z z z v v v A n B             ",
"            C 7 f c h h u f f c z r r r s s s s s s o o o o o o o o o o v w w A n B             ",
"            D 8 j E F i v f j h y r r s s s s o o o o o o o o o o o o o w A A G 0 H             ",
"            [ 8 j I l f v j j j j 1 1 1 u u v v v w w w w A A A A A A A A A u J K L M           ",
"            < 9 j c G f w j j 1 1 u v v v w w A A A G G G G k k k k k k G i = N ' m O P         ",
"            / 9 1 i f f w 1 1 1 u v v w w w A A G G G k k k k k k k k k g Q R S - T N U V       ",
"            ( 9 1 i f f A 1 1 f W o z z z z z z y y y y y y y y y y y X Y Z ` m  ...+.@.#.      ",
"            } 9 1 f f j A u u f $.o o o o o o z z z z z z z y y y z % %.O &.*.=.-.;.>.,.;.      ",
"            H 9 u f j j A u u j W o o o o o z z z z z y y y y y y * '. .q ).!.~.~ {.{.].        ",
"            a n u f j 1 G u v v v v w w A A G k k k n n n 9 9 A ^./._ =.(.% ` _.% {.#.          ",
"            :.n u j j 1 G v v w w A A G k k n n 9 9 8 8 8 8 v % /.! (.=.* <.t r :.V             ",
"            [.n u j 1 1 G v v w A A G G k n n 9 9 8 8 7 7 f m }.|.(.I - <.Q 1.2.3.4.            ",
"            5.n u j 1 u G v w 1 6.z z y y y $.$.$.W W $.7.:.'.@ (.X m <.~ 2.L 1.8.'.            ",
"             .k u j 1 u G w w 1 W o o z z z y y y $.y 9.0.a.` (.b.| ) ] c.U ( l k '.            ",
"            O k v p d.u G w w u W o z z z y y y $.$.@ e.K X p f.t <.: g.U | j 6 k '.            ",
"            h.G v *.k v k w w A A A G k k n 9 9 k (.R T I (.+ <.) a i.i.f.G 5 5 k R             ",
"            K G v 1 v v k w A A G k k n 9 8 8 A b.N { (.I j.<.!  .k.-.o 8 4 5 5 k R             ",
"            l.G v 1 u v k w A A G k n n 9 8 i = 3.m p J |.<.! m.L n.o.4 3 4 4 5 k R             ",
"            p.G v 1 u v k A A v &.y y $.$.I H /.& (.^.> <.{ a.q.m.X &.&.4 3 4 4 k R             ",
"            2.G v 1 u v k A A u 6.z z y (.O r.9.(.` , ) / '.s.Y I 6.6.6.4 3 4 4 k R             ",
"            Z A v 1 u v k A A v 6.z z z > /.&.W $ ' <.B ..k.! s &.&.6.6.3 3 3 4 k R             ",
"            t.w v 1 u v k A A G G G k u.Z v.w.x.b.Q y.k.R p 9 z.z.z.2 2 2 3 3 4 k R             ",
"            a.w v 1 u v k A A G k n G j.t._.*.~.&. .U p.A.4 z.B.C.C.B.z.2 3 3 4 k R             ",
"            c.w v 1 u v k A A G k n !.r.& ).8.6.- ..D.x.3 z.z.B.B.B.B.z.2 3 3 4 k R             ",
"            e.w v 1 u v k A A G k v { a.D $ ^ e.Z ; E.k n 9 8 7 6 6 5 4 4 4 4 4 k R             ",
"            R w v 1 u v k A A w j s F.G.H.}.O j.&.I.J.J.J.K.u.w.l g c i j v A k w '.            ",
"            g.v v 1 u v k A A v w.L.M./.{ =.N.I.!.O._.P._.O.!.E K.E.l g c f u w 1 g.            ",
"            }.v w v v w n G G G $.D ^.w.u u j f i i i i i f j 1 v w G k n 8 7 6 k R             ",
"            k.E G G G G k G G G i j G k k k k k k k k k k k k k k k k k k k k k E.Q.            ",
"              R.'.'.'.'.'.'.'.'.'.'.'.'.'.'.'.'.R R R R R R R R R R R R R R R R Q.              ",
"                                                                                                ",
"                                                                                                ",
"                                                                                                "};
