/* XPM */
static const char * file_edit_xpm[] = {
"48 48 377 2",
"  	c None",
". 	c #9E9E9E",
"+ 	c #A8A8A8",
"@ 	c #A9A9A9",
"# 	c #ABABAB",
"$ 	c #ACACAC",
"% 	c #AAAAAA",
"& 	c #A6A6A6",
"* 	c #A4A4A4",
"= 	c #A2A2A2",
"- 	c #A0A0A0",
"; 	c #9C9C9C",
"> 	c #9A9A9A",
", 	c #989898",
"' 	c #969696",
") 	c #949494",
"! 	c #929292",
"~ 	c #909090",
"{ 	c #8E8E8E",
"] 	c #8C8C8C",
"^ 	c #8A8A8A",
"/ 	c #888888",
"( 	c #868686",
"_ 	c #858585",
": 	c #878787",
"< 	c #898989",
"[ 	c #8B8B8B",
"} 	c #848484",
"| 	c #999999",
"1 	c #E7E7E7",
"2 	c #F6F6F6",
"3 	c #F5F5F5",
"4 	c #F4F4F4",
"5 	c #F3F3F3",
"6 	c #F2F2F2",
"7 	c #F1F1F1",
"8 	c #F0F0F0",
"9 	c #EFEFEF",
"0 	c #E1E1E1",
"a 	c #808080",
"b 	c #9D9D9D",
"c 	c #E2E2E2",
"d 	c #DEDEDE",
"e 	c #DFDFDF",
"f 	c #E5E5E5",
"g 	c #E0E0E0",
"h 	c #E3E3E3",
"i 	c #E4E4E4",
"j 	c #E6E6E6",
"k 	c #EDEDED",
"l 	c #DDDDDD",
"m 	c #9B9B9B",
"n 	c #EEEEEE",
"o 	c #BFBFBF",
"p 	c #BBBBBB",
"q 	c #BCBCBC",
"r 	c #BDBDBD",
"s 	c #BEBEBE",
"t 	c #979797",
"u 	c #E8E8E8",
"v 	c #E9E9E9",
"w 	c #EAEAEA",
"x 	c #919191",
"y 	c #C1C1C1",
"z 	c #C0C0C0",
"A 	c #EBEBEB",
"B 	c #838383",
"C 	c #8F8F8F",
"D 	c #8D8D8D",
"E 	c #D4D4D4",
"F 	c #DCDCDC",
"G 	c #ECECEC",
"H 	c #E2E1DE",
"I 	c #828281",
"J 	c #B8B8B8",
"K 	c #E8E8E7",
"L 	c #BFB7A6",
"M 	c #85714B",
"N 	c #684B1C",
"O 	c #5E4310",
"P 	c #E5E4E2",
"Q 	c #ADA18A",
"R 	c #7C5F32",
"S 	c #C98A75",
"T 	c #ED867F",
"U 	c #D75E4E",
"V 	c #734313",
"W 	c #E3E0DD",
"X 	c #A09276",
"Y 	c #7D5D30",
"Z 	c #E5988A",
"` 	c #FF8686",
" .	c #FF5F5F",
"..	c #FE3838",
"+.	c #C33419",
"@.	c #5C410C",
"#.	c #C3C3C3",
"$.	c #B8B5AF",
"%.	c #8F7E5D",
"&.	c #86683E",
"*.	c #E8A293",
"=.	c #F98181",
"-.	c #FF5454",
";.	c #FD2E2E",
">.	c #EB1919",
",.	c #C41812",
"'.	c #61410C",
").	c #C2C2C2",
"!.	c #AFAAA0",
"~.	c #7C6843",
"{.	c #90744C",
"].	c #DEC298",
"^.	c #EFCF9D",
"/.	c #EDAF89",
"(.	c #F33E39",
"_.	c #E31717",
":.	c #C41010",
"<.	c #9C1E0D",
"[.	c #5D400C",
"}.	c #828282",
"|.	c #AAA396",
"1.	c #745F35",
"2.	c #96753A",
"3.	c #DBB88B",
"4.	c #E5C394",
"5.	c #F1CE94",
"6.	c #F1CD8F",
"7.	c #DC7E5E",
"8.	c #BC0F0F",
"9.	c #9B1A0B",
"0.	c #6C3A0C",
"a.	c #ECEBEA",
"b.	c #BCB3A2",
"c.	c #745C2E",
"d.	c #A48241",
"e.	c #DCB671",
"f.	c #DDB771",
"g.	c #D6A651",
"h.	c #DCAA6B",
"i.	c #F0CA89",
"j.	c #DBA26A",
"k.	c #8F1D0A",
"l.	c #673F0C",
"m.	c #7E7E7E",
"n.	c #EAE9E7",
"o.	c #B4A994",
"p.	c #755C2B",
"q.	c #B38F4E",
"r.	c #DDB772",
"s.	c #DDB670",
"t.	c #D3A044",
"u.	c #CB9023",
"v.	c #C9913E",
"w.	c #E2B97C",
"x.	c #A1784D",
"y.	c #5E4011",
"z.	c #7C7C7C",
"A.	c #E6E5E2",
"B.	c #A79A7F",
"C.	c #765B26",
"D.	c #C09C59",
"E.	c #DCB56C",
"F.	c #D09C3A",
"G.	c #CB9022",
"H.	c #C98E21",
"I.	c #A27124",
"J.	c #8E683C",
"K.	c #715A31",
"L.	c #585247",
"M.	c #7A7A7A",
"N.	c #C4C4C4",
"O.	c #B9B6B0",
"P.	c #8C7D5E",
"Q.	c #7B5E26",
"R.	c #CBA662",
"S.	c #DBB266",
"T.	c #CE9731",
"U.	c #C58B21",
"V.	c #966A18",
"W.	c #6B4C12",
"X.	c #88744F",
"Y.	c #CDC8BF",
"Z.	c #606060",
"`.	c #787878",
" +	c #B2ADA5",
".+	c #7F6D4A",
"++	c #83652B",
"@+	c #D2AD69",
"#+	c #D9AE5F",
"$+	c #CD942B",
"%+	c #CA8F21",
"&+	c #C08820",
"*+	c #8B6216",
"=+	c #6B4E16",
"-+	c #958564",
";+	c #E1DDD7",
">+	c #777777",
",+	c #D6D6D6",
"'+	c #C2C2C1",
")+	c #AEA99D",
"!+	c #76623A",
"~+	c #917135",
"{+	c #D8B26D",
"]+	c #DEB873",
"^+	c #D7AA56",
"/+	c #CC9226",
"(+	c #B9831F",
"_+	c #825C15",
":+	c #694E1B",
"<+	c #A6987D",
"[+	c #E8E6E2",
"}+	c #747474",
"|+	c #D2D2D2",
"1+	c #EDEDEC",
"2+	c #C1B9A9",
"3+	c #766033",
"4+	c #9F7E40",
"5+	c #DBB570",
"6+	c #D4A44B",
"7+	c #CA8F22",
"8+	c #AF7C1D",
"9+	c #785513",
"0+	c #6F5626",
"a+	c #B8AD99",
"b+	c #EDECEA",
"c+	c #616161",
"d+	c #737373",
"e+	c #ECEBE9",
"f+	c #BAB09C",
"g+	c #786031",
"h+	c #AD8B4B",
"i+	c #DCB56E",
"j+	c #D29F41",
"k+	c #C88E21",
"l+	c #A5741B",
"m+	c #725112",
"n+	c #796336",
"o+	c #C6BEAE",
"p+	c #F1F0EF",
"q+	c #717171",
"r+	c #E6E4E1",
"s+	c #ADA189",
"t+	c #745A28",
"u+	c #BB9856",
"v+	c #DCB46B",
"w+	c #D09B38",
"x+	c #C78D21",
"y+	c #996D19",
"z+	c #6B4C11",
"A+	c #7F6B44",
"B+	c #D1CBC0",
"C+	c #F4F4F3",
"D+	c #6F6F6F",
"E+	c #C5C5C5",
"F+	c #BAB8B3",
"G+	c #908165",
"H+	c #785C27",
"I+	c #C8A361",
"J+	c #DAB165",
"K+	c #CE962F",
"L+	c #C28920",
"M+	c #8E6417",
"N+	c #694B14",
"O+	c #816F4D",
"P+	c #B8B5AD",
"Q+	c #6D6D6D",
"R+	c #BBBAB7",
"S+	c #867657",
"T+	c #81642C",
"U+	c #CFAA67",
"V+	c #D8AD5C",
"W+	c #CC942A",
"X+	c #BA841F",
"Y+	c #845D15",
"Z+	c #684D18",
"`+	c #8C7E61",
" @	c #6B6B6B",
".@	c #C1C0C0",
"+@	c #A29988",
"@@	c #755D29",
"#@	c #D7C58E",
"$@	c #DFC181",
"%@	c #D6A852",
"&@	c #CB9226",
"*@	c #B37F1E",
"=@	c #7B5713",
"-@	c #6B5120",
";@	c #9D917B",
">@	c #BFBEBB",
",@	c #696969",
"'@	c #DCD9D4",
")@	c #7E6A42",
"!@	c #B5A16A",
"~@	c #E5DCAE",
"{@	c #E4D9A8",
"]@	c #D5AF5B",
"^@	c #C98F22",
"/@	c #A8771C",
"(@	c #765F32",
"_@	c #C3BAA8",
":@	c #F0EFEE",
"<@	c #F7F7F7",
"[@	c #676767",
"}@	c #ECECEB",
"|@	c #AEA28B",
"1@	c #826830",
"2@	c #DFCE95",
"3@	c #E2D39D",
"4@	c #E1D098",
"5@	c #DDC583",
"6@	c #A17522",
"7@	c #6E4E12",
"8@	c #826D44",
"9@	c #D0C9BC",
"0@	c #F8F8F8",
"a@	c #F9F9F9",
"b@	c #656565",
"c@	c #D6D1C9",
"d@	c #7B6438",
"e@	c #BFA564",
"f@	c #DEC787",
"g@	c #DEC888",
"h@	c #DCC483",
"i@	c #BB9F5D",
"j@	c #74581D",
"k@	c #8E7B58",
"l@	c #DCD8CF",
"m@	c #F5F5F4",
"n@	c #636363",
"o@	c #EAE9E8",
"p@	c #9D8D70",
"q@	c #786643",
"r@	c #A28C59",
"s@	c #C8AB64",
"t@	c #A68947",
"u@	c #7D6129",
"v@	c #7F693F",
"w@	c #A79B82",
"x@	c #DCDAD4",
"y@	c #C4BDB0",
"z@	c #6B552A",
"A@	c #322A1A",
"B@	c #423111",
"C@	c #745B2A",
"D@	c #887653",
"E@	c #ACA290",
"F@	c #C8C5C0",
"G@	c #D4D3D3",
"H@	c #D5D5D5",
"I@	c #D7D7D7",
"J@	c #D9D9D9",
"K@	c #DBDBDB",
"L@	c #5F5F5F",
"M@	c #DCDBD7",
"N@	c #897854",
"O@	c #5D4516",
"P@	c #705C36",
"Q@	c #9A8D73",
"R@	c #BFB9AE",
"S@	c #CFCECC",
"T@	c #D3D3D3",
"U@	c #D1D1D1",
"V@	c #CFCFCF",
"W@	c #CDCDCD",
"X@	c #CCCCCC",
"Y@	c #DADADA",
"Z@	c #5D5D5D",
"`@	c #C8C1B4",
" #	c #9B8C6E",
".#	c #BCB3A1",
"+#	c #DDDBD5",
"@#	c #E9E8E8",
"##	c #535353",
"$#	c #E6E4E2",
"%#	c #E7E6E5",
"&#	c #555555",
"*#	c #545454",
"                                                                                                ",
"                                                                                                ",
"                                                                                                ",
"              . + @ # $ $ # % + & * = - . ; > , ' ) ! ~ { ] ^ / ( _ : < [ ] ] ^ }               ",
"            | 1 2 3 3 2 2 2 2 3 3 4 4 4 4 4 5 5 5 5 5 6 6 6 6 6 7 8 8 8 8 8 9 9 0 a             ",
"            b 6 c d e e f 0 g 0 0 0 c c c h h h h i i i i i i i i i i i i i i j k (             ",
"            b 6 0 l d d i g e g g 0 0 0 c c c c h h h h h h h i i i i h h h h f k (             ",
"            ; 6 c d d e f g g g 0 0 c c c h h h h i i i i i i i i i i i i i i j k _             ",
"            m 6 c d e e f 0 0 0 0 c c h h h i i i i f f f f f f f f f f f f f j n _             ",
"            > 6 h e e g j 0 0 e o p q q q q q q r r r r r r r r r r r s f f f 1 n _             ",
"            | 6 h e g g j c c e s p p q q q q q q r r r r r r r r r r r f j j 1 n _             ",
"            t 6 h g g 0 1 c c g o q q q q q q r r r r r r r r r r r r r j 1 1 u n }             ",
"            ' 7 i g 0 0 1 h h h h h i i f f f j j j j j j 1 1 1 1 1 1 1 1 1 1 v n }             ",
"            ) 7 i 0 0 c u h h i i f f j j j 1 1 1 u u u u u u v v v u u u u u v n }             ",
"            ! 7 i 0 c c u i i i f f j j 1 1 1 u u u v v v v v v v v v v v v v w n }             ",
"            x 7 f c c h u i i c y r r s s s s s o o o o o z z z z z z z v v v A n B             ",
"            C 7 f c h h u f f c z r r r s s s s s s o o o o o o o o o o v w w A n B             ",
"            D 8 j E F i v f j h y r r s s s s o o o o o o o o o o o o o w A A G H I             ",
"            [ 8 j J l f v j j j j 1 1 1 u u v v v w w w w A A A A A A A A A K L M N O           ",
"            < 9 j c G f w j j 1 1 u v v v w w A A A G G G G k k k k k k G P Q R S T U V         ",
"            / 9 1 i f f w 1 1 1 u v v w w w A A G G G k k k k k k k k k W X Y Z `  ...+.@.      ",
"            ( 9 1 i f f A 1 1 f #.o z z z z z z y y y y y y y y y y y $.%.&.*.=.-.;.>.,.'.      ",
"            } 9 1 f f j A u u f ).o o o o o o z z z z z z z y y y z !.~.{.].^./.(._.:.<.[.      ",
"            }.9 u f j j A u u j #.o o o o o z z z z z y y y y y y |.1.2.3.4.5.6.7.8.9.0.        ",
"            a n u f j 1 G u v v v v w w A A G k k k n n n 9 9 a.b.c.d.e.f.g.h.i.j.k.l.          ",
"            m.n u j j 1 G v v w w A A G k k n n 9 9 8 8 8 8 n.o.p.q.r.s.t.u.v.w.x.y.            ",
"            z.n u j 1 1 G v v w A A G G k n n 9 9 8 8 7 7 A.B.C.D.r.E.F.G.H.I.J.K.L.            ",
"            M.n u j 1 u G v w 1 N.z z y y y ).).).#.#.).O.P.Q.R.r.S.T.G.U.V.W.X.Y.Z.            ",
"            `.k u j 1 u G w w 1 #.o o z z z y y y ).y  +.+++@+r.#+$+%+&+*+=+-+;+k Z.            ",
"            >+k v p ,+u G w w u #.o z z z y y y ).'+)+!+~+{+]+^+/+G.(+_+:+<+[+6 k Z.            ",
"            }+G v |+k v k w w A A A G k k n 9 9 1+2+3+4+5+f.6+u.7+8+9+0+a+b+5 5 k c+            ",
"            d+G v 1 v v k w A A G k k n 9 8 8 e+f+g+h+r.i+j+G.k+l+m+n+o+p+4 5 5 k c+            ",
"            q+G v 1 u v k w A A G k n n 9 8 r+s+t+u+]+v+w+G.x+y+z+A+B+C+3 4 4 5 k c+            ",
"            D+G v 1 u v k A A v E+y y ).).F+G+H+I+r.J+K+G.L+M+N+O+P+E+E+4 3 4 4 k c+            ",
"            Q+G v 1 u v k A A u N.z z y R+S+T+U+r.V+W+%+X+Y+Z+`+F+N.N.N.4 3 4 4 k c+            ",
"             @A v 1 u v k A A v N.z z .@+@@@#@$@%@&@G.*@=@-@;@>@E+E+N.N.3 3 3 4 k c+            ",
"            ,@w v 1 u v k A A G G G k '@)@!@~@{@]@^@/@m+(@_@:@<@<@<@2 2 2 3 3 4 k c+            ",
"            [@w v 1 u v k A A G k n }@|@1@2@3@4@5@6@7@8@9@C+<@0@a@a@0@<@2 3 3 4 k c+            ",
"            b@w v 1 u v k A A G k n c@d@e@f@g@h@i@j@k@l@m@<@<@0@0@0@0@<@2 3 3 4 k c+            ",
"            n@w v 1 u v k A A G k o@p@q@r@s@t@u@v@w@x@k n 9 8 7 6 6 5 4 4 4 4 4 k c+            ",
"            c+w v 1 u v k A A w j y@z@A@B@C@D@E@F@G@H@H@H@I@J@K@l g c i j v A k w Z.            ",
"            L@v v 1 u v k A A v M@N@O@P@Q@R@S@T@U@V@W@X@W@V@U@E I@Y@l g c f u w 1 L@            ",
"            Z@v w v v w n G G G `@ #.#+#@#u j f i i i i i f j 1 v w G k n 8 7 6 k c+            ",
"            ##E G G G G k G G G $#%#G k k k k k k k k k k k k k k k k k k k k k Y@&#            ",
"              *#Z.Z.Z.Z.Z.Z.Z.Z.Z.Z.Z.Z.Z.Z.Z.Z.c+c+c+c+c+c+c+c+c+c+c+c+c+c+c+c+&#              ",
"                                                                                                ",
"                                                                                                ",
"                                                                                                "};
