/* XPM */
static const char * folder_xpm[] = {
"16 16 17 1",
" 	c None",
".	c #56560E",
"+	c #FEFEFE",
"@	c #8A8A7A",
"#	c #8E8E02",
"$	c #92920E",
"%	c #EEEEEE",
"&	c #CACA02",
"*	c #5E5E32",
"=	c #FEFE02",
"-	c #66664A",
";	c #6A6A52",
">	c #828202",
",	c #828222",
"'	c #818154",
")	c #828232",
"!	c #F6F6F6",
"++++++++++++++++",
"++++++++++++++++",
"!.>>>>@+++++++++",
"-&====$,,,,,,,,'",
")=============='",
")=============='",
")=============='",
")=============='",
")=============='",
")=============='",
")=============='",
")=============='",
"*$$$$$$$$$$$$##;",
"%%%%%%%%%%%%%%%!",
"++++++++++++++++",
"++++++++++++++++"};
