/* XPM */
static const char * home_xpm[] = {
"16 16 128 2",
"  	c None",
". 	c #3C5795",
"+ 	c #3B5591",
"@ 	c #38518A",
"# 	c #627EBA",
"$ 	c #5C78B4",
"% 	c #364F86",
"& 	c #38518B",
"* 	c #617EC0",
"= 	c #3F568A",
"- 	c #405482",
"; 	c #5776B6",
"> 	c #5E7ABC",
", 	c #3D558D",
"' 	c #A5A8AE",
") 	c #C1BFB9",
"! 	c #455986",
"~ 	c #5572B5",
"{ 	c #3A5490",
"] 	c #3C5692",
"^ 	c #999EA9",
"/ 	c #E5E1D5",
"( 	c #F1EEE5",
"_ 	c #B7B7B8",
": 	c #3E5487",
"< 	c #5B7ABC",
"[ 	c #38528B",
"} 	c #5E7BBC",
"| 	c #3E5994",
"1 	c #9BA0AC",
"2 	c #DBD6CB",
"3 	c #BFBDB9",
"4 	c #AFAEA9",
"5 	c #DDD9D0",
"6 	c #B3B3B6",
"7 	c #42588C",
"8 	c #5977BA",
"9 	c #3A548F",
"0 	c #5E7CBF",
"a 	c #3F5A96",
"b 	c #9CA1AD",
"c 	c #E4E0D4",
"d 	c #CBC8C2",
"e 	c #575655",
"f 	c #B1AFA9",
"g 	c #EBE7DD",
"h 	c #B4B5B6",
"i 	c #42588E",
"j 	c #5A79BE",
"k 	c #3B5693",
"l 	c #5C79BC",
"m 	c #405A98",
"n 	c #9CA1AC",
"o 	c #E5E0D4",
"p 	c #EBE9E4",
"q 	c #CECCC5",
"r 	c #6D6C6A",
"s 	c #767472",
"t 	c #BAB7B1",
"u 	c #E5E3DE",
"v 	c #EEEAE1",
"w 	c #B1B2B4",
"x 	c #3A538E",
"y 	c #5977BC",
"z 	c #39538D",
"A 	c #374E85",
"B 	c #787D8A",
"C 	c #E3DED1",
"D 	c #ECECE7",
"E 	c #DCE1DA",
"F 	c #C7CBC3",
"G 	c #C4C8C0",
"H 	c #D4D8D1",
"I 	c #E9EAE5",
"J 	c #EAE8E3",
"K 	c #87888D",
"L 	c #374D7F",
"M 	c #375088",
"N 	c #959289",
"O 	c #ECEAE6",
"P 	c #EBEBE6",
"Q 	c #EBEBE7",
"R 	c #EAE9E5",
"S 	c #9C9991",
"T 	c #9E9C99",
"U 	c #E9E7E2",
"V 	c #ECF1EC",
"W 	c #890604",
"X 	c #8D0C0C",
"Y 	c #8D0D0D",
"Z 	c #8A0302",
"` 	c #ECF2ED",
" .	c #A09F9C",
"..	c #9C9B98",
"+.	c #ECF0EB",
"@.	c #93110F",
"#.	c #CA1D1E",
"$.	c #CC1E1E",
"%.	c #BB0D0D",
"&.	c #9F9E9B",
"*.	c #9A1211",
"=.	c #D42222",
"-.	c #D32021",
";.	c #CE807D",
">.	c #EDF0EB",
",.	c #94110F",
"'.	c #BE1B1B",
").	c #BD1919",
"!.	c #6F2422",
"~.	c #A4A2A0",
"{.	c #F4F2EE",
"].	c #F7FCF7",
"^.	c #9A1110",
"/.	c #D11E20",
"(.	c #D21F20",
"_.	c #C20D0D",
":.	c #F7FDF8",
"<.	c #A6A6A3",
"[.	c #585550",
"}.	c #595853",
"|.	c #51423C",
"1.	c #52120B",
"2.	c #591610",
"3.	c #54120B",
"4.	c #513D36",
"5.	c #595953",
"6.	c #5A5852",
"7.	c #FFFFFF",
"7.7.7.7.7.7.7.. + 7.7.7.7.7.7.7.",
"7.7.7.7.7.7.@ # $ % 7.7.7.7.7.7.",
"7.7.7.7.7.& * = - ; % 7.7.7.7.7.",
"7.7.7.7.@ > , ' ) ! ~ % 7.7.7.7.",
"7.7.7.{ * ] ^ / ( _ : < [ 7.7.7.",
"7.7.{ } | 1 2 3 4 5 6 7 8 [ 7.7.",
"7.9 0 a b c d e e f g h i j @ 7.",
"k l m n o p q r s t u v w x y z ",
"x A B C p D E F G H I J g K L M ",
"7.7.N O P Q Q Q Q Q Q Q R S 7.7.",
"7.7.T U V Q W X Y Z Q ` U  .7.7.",
"7.7...U +.Q @.#.$.%.Q V U &.7.7.",
"7.7...U +.Q *.=.-.;.Q >.U &.7.7.",
"7.7...U +.Q ,.'.).!.Q >.U &.7.7.",
"7.7.~.{.].Q ^./.(._.Q :.{.<.7.7.",
"7.7.[.[.}.|.1.2.2.3.4.5.[.6.7.7."};
