/* XPM */
static const char * import_xpm[] = {
"48 48 468 2",
"  	c None",
". 	c #B9B9B9",
"+ 	c #C2C2C2",
"@ 	c #C7C7C7",
"# 	c #CACACA",
"$ 	c #C8C8C8",
"% 	c #B8B8B8",
"& 	c #CFCFCF",
"* 	c #D1D1D1",
"= 	c #D2D2D2",
"- 	c #D4D4D4",
"; 	c #A2A2A2",
"> 	c #C1C1C1",
", 	c #D7D7D7",
"' 	c #E2E2E2",
") 	c #DEDEDE",
"! 	c #DCDCDC",
"~ 	c #D8D8D8",
"{ 	c #D6D6D6",
"] 	c #CECECE",
"^ 	c #B3B3B3",
"/ 	c #A4A4A4",
"( 	c #C5C5C5",
"_ 	c #D0D0D0",
": 	c #B0B0B0",
"< 	c #ABABAB",
"[ 	c #C9C9C9",
"} 	c #DFDFDF",
"| 	c #E9E9E9",
"1 	c #EBEBEB",
"2 	c #D9D9D9",
"3 	c #DADADA",
"4 	c #9C9C9C",
"5 	c #C3C3C3",
"6 	c #BFBFBF",
"7 	c #9A9A9A",
"8 	c #E7E7E7",
"9 	c #E8E8E8",
"0 	c #DDDDDD",
"a 	c #DBDBDB",
"b 	c #BABABA",
"c 	c #CBCBCB",
"d 	c #A5A5A5",
"e 	c #ADADAD",
"f 	c #E6E6E6",
"g 	c #EAEAEA",
"h 	c #C4C4C4",
"i 	c #A6A6A6",
"j 	c #989898",
"k 	c #E4E4E4",
"l 	c #E5E5E5",
"m 	c #B1B2B1",
"n 	c #848584",
"o 	c #BABBBA",
"p 	c #C8C9C8",
"q 	c #B7B7B7",
"r 	c #D5D5D5",
"s 	c #C6C6C6",
"t 	c #9D9D9D",
"u 	c #E3E3E3",
"v 	c #E0E0E0",
"w 	c #7E7F7D",
"x 	c #B2B3B2",
"y 	c #BBBBBB",
"z 	c #C0C1C0",
"A 	c #C3C4C3",
"B 	c #CCCCCC",
"C 	c #C0C0C0",
"D 	c #B2B2B2",
"E 	c #DBDBDC",
"F 	c #CFD0CF",
"G 	c #BDBEBD",
"H 	c #CCCDCC",
"I 	c #E8E9E8",
"J 	c #ECEDEC",
"K 	c #F3F3F3",
"L 	c #F2F2F2",
"M 	c #F4F5F4",
"N 	c #F0F0F0",
"O 	c #F8F8F8",
"P 	c #D3D3D3",
"Q 	c #959595",
"R 	c #E1E1E1",
"S 	c #C0C0BF",
"T 	c #707270",
"U 	c #B5B6B5",
"V 	c #CACBCA",
"W 	c #D0D1D0",
"X 	c #D2D3D2",
"Y 	c #D7D8D7",
"Z 	c #DBDCDB",
"` 	c #E7E8E7",
" .	c #EEEEEE",
"..	c #F1F1F1",
"+.	c #CDCDCD",
"@.	c #DCDDDC",
"#.	c #DEDFDE",
"$.	c #E3E4E3",
"%.	c #E6E7E6",
"&.	c #ECECEC",
"*.	c #EDEDED",
"=.	c #EFEFEF",
"-.	c #F5F5F5",
";.	c #F7F7F7",
">.	c #F8F9F8",
",.	c #FAFAFA",
"'.	c #FCFCFC",
").	c #FDFDFD",
"!.	c #FFFFFF",
"~.	c #7B7D7B",
"{.	c #999A99",
"].	c #BFC0BF",
"^.	c #C5C6C5",
"/.	c #C9CAC9",
"(.	c #CBCCCB",
"_.	c #CDCECD",
":.	c #D5D6D5",
"<.	c #D9DAD9",
"[.	c #EFF0EF",
"}.	c #999999",
"|.	c #D9D8D9",
"1.	c #DAD9DA",
"2.	c #E6E8E6",
"3.	c #E6E9E6",
"4.	c #E7EAE7",
"5.	c #E9EBE9",
"6.	c #EAECEA",
"7.	c #A9A9A9",
"8.	c #DDE0DD",
"9.	c #E0E1E0",
"0.	c #E8E3E8",
"a.	c #EEE5EE",
"b.	c #F2E6F2",
"c.	c #F3E7F3",
"d.	c #F3E8F3",
"e.	c #F0E9F0",
"f.	c #EAE8EA",
"g.	c #E8EAE8",
"h.	c #F4F4F4",
"i.	c #8B8B8B",
"j.	c #DFDEDF",
"k.	c #DDDFDD",
"l.	c #E2E1E2",
"m.	c #EDE2ED",
"n.	c #E4E1E4",
"o.	c #C4DDC4",
"p.	c #A1D8A1",
"q.	c #8CD58C",
"r.	c #89D589",
"s.	c #99D999",
"t.	c #B9E0B9",
"u.	c #E1E8E1",
"v.	c #F9EDF9",
"w.	c #F6EFF6",
"x.	c #EFF1EF",
"y.	c #D6D7D6",
"z.	c #A0A0A0",
"A.	c #ACACAC",
"B.	c #AEAEAE",
"C.	c #ADB0AD",
"D.	c #BDB0BD",
"E.	c #AAB1AA",
"F.	c #74C374",
"G.	c #31C731",
"H.	c #05BF05",
"I.	c #00BD00",
"J.	c #00BC00",
"K.	c #00BE00",
"L.	c #1AC41A",
"M.	c #5ECE5E",
"N.	c #9EC19E",
"O.	c #C5B5C5",
"P.	c #AAAAAA",
"Q.	c #9F9F9F",
"R.	c #00B700",
"S.	c #00BB00",
"T.	c #01BF01",
"U.	c #02BF02",
"V.	c #00B800",
"W.	c #00B500",
"X.	c #A7A7A7",
"Y.	c #A8A8A8",
"Z.	c #05BC04",
"`.	c #02BC02",
" +	c #02BD02",
".+	c #03BD03",
"++	c #02BE02",
"@+	c #03BF03",
"#+	c #01BE01",
"$+	c #02C002",
"%+	c #03B502",
"&+	c #03B602",
"*+	c #03B702",
"=+	c #02B701",
"-+	c #02B801",
";+	c #02B901",
">+	c #01B901",
",+	c #00B600",
"'+	c #01BB00",
")+	c #A3A3A3",
"!+	c #BDBDBD",
"~+	c #05B104",
"{+	c #05B204",
"]+	c #05B303",
"^+	c #04B303",
"/+	c #05B403",
"(+	c #02B401",
"_+	c #0CB70B",
":+	c #84DA84",
"<+	c #A0E39F",
"[+	c #48CA48",
"}+	c #00B400",
"|+	c #05B804",
"1+	c #01BA01",
"2+	c #8F8F8F",
"3+	c #939393",
"4+	c #08AC06",
"5+	c #07AD06",
"6+	c #07AD05",
"7+	c #07AE05",
"8+	c #06AF05",
"9+	c #07AF05",
"0+	c #03AF01",
"a+	c #14B513",
"b+	c #E5F7E5",
"c+	c #7FD77E",
"d+	c #00AD00",
"e+	c #08B407",
"f+	c #04B403",
"g+	c #04B503",
"h+	c #0AA807",
"i+	c #09A807",
"j+	c #09A907",
"k+	c #09AA06",
"l+	c #09AB07",
"m+	c #05AA03",
"n+	c #15B014",
"o+	c #E0F3DF",
"p+	c #7CD37B",
"q+	c #00A900",
"r+	c #0AAF08",
"s+	c #06B004",
"t+	c #06B104",
"u+	c #0CA309",
"v+	c #0CA409",
"w+	c #0BA408",
"x+	c #0DA50A",
"y+	c #0DA60B",
"z+	c #0AA608",
"A+	c #0BA709",
"B+	c #07A605",
"C+	c #18AC15",
"D+	c #E3F3E3",
"E+	c #7ED17D",
"F+	c #00A400",
"G+	c #0CAB0A",
"H+	c #08AA06",
"I+	c #0BAC09",
"J+	c #0E9E0B",
"K+	c #0E9F0B",
"L+	c #0D9F0A",
"M+	c #0EA00B",
"N+	c #079E04",
"O+	c #039D01",
"P+	c #0FA20C",
"Q+	c #0DA20A",
"R+	c #09A106",
"S+	c #19A817",
"T+	c #7FCF7E",
"U+	c #009F00",
"V+	c #0EA60B",
"W+	c #0CA70A",
"X+	c #08A506",
"Y+	c #00A200",
"Z+	c #09A707",
"`+	c #109A0C",
" @	c #119C0D",
".@	c #089904",
"+@	c #3DAD3A",
"@@	c #5DBB5B",
"#@	c #009700",
"$@	c #119F0E",
"%@	c #0C9D09",
"&@	c #1BA418",
"*@	c #E3F2E3",
"=@	c #80CD7F",
"-@	c #009A00",
";@	c #14A411",
">@	c #029D00",
",@	c #21AA1F",
"'@	c #6FC96E",
")@	c #0DA30A",
"!@	c #0BA308",
"~@	c #0BA508",
"{@	c #12950E",
"]@	c #12960E",
"^@	c #11960D",
"/@	c #149810",
"(@	c #CDE4CC",
"_@	c #FFFBFF",
":@	c #75C273",
"<@	c #049400",
"[@	c #0E990B",
"}@	c #1EA01B",
"|@	c #81CA7F",
"1@	c #049700",
"2@	c #069904",
"3@	c #2AA827",
"4@	c #D1ECD0",
"5@	c #67C265",
"6@	c #019A00",
"7@	c #10A10D",
"8@	c #0DA00A",
"9@	c #149110",
"0@	c #14910F",
"a@	c #14920F",
"b@	c #159311",
"c@	c #0C9008",
"d@	c #5FB35C",
"e@	c #F9F6F9",
"f@	c #91CC8F",
"g@	c #079003",
"h@	c #1E9B19",
"i@	c #E5F2E5",
"j@	c #85C983",
"k@	c #008B00",
"l@	c #45AF42",
"m@	c #E4F3E4",
"n@	c #C4E6C3",
"o@	c #1C9F19",
"p@	c #0E9A0A",
"q@	c #109B0D",
"r@	c #0F9C0C",
"s@	c #168D11",
"t@	c #168E11",
"u@	c #178F12",
"v@	c #068800",
"w@	c #7ABD77",
"x@	c #FFFDFF",
"y@	c #A7D4A5",
"z@	c #21971D",
"A@	c #E1F0E0",
"B@	c #78C076",
"C@	c #4EAE4B",
"D@	c #F7FBF7",
"E@	c #DDF0DD",
"F@	c #259D21",
"G@	c #0A9205",
"H@	c #14970F",
"I@	c #11970D",
"J@	c #11980D",
"K@	c #188813",
"L@	c #188912",
"M@	c #188A12",
"N@	c #1A8B14",
"O@	c #0B8505",
"P@	c #99C997",
"Q@	c #C7E3C6",
"R@	c #E9F3E8",
"S@	c #D2E8D1",
"T@	c #F1F8F1",
"U@	c #F0F7EF",
"V@	c #3CA338",
"W@	c #0A8C05",
"X@	c #179313",
"Y@	c #13930F",
"Z@	c #1A8414",
"`@	c #1A8514",
" #	c #1A8614",
".#	c #198613",
"+#	c #14840E",
"@#	c #B6D7B4",
"##	c #FBFCFB",
"$#	c #FEFEFE",
"%#	c #FCFDFC",
"&#	c #57AB53",
"*#	c #098504",
"=#	c #1A8E15",
"-#	c #168D10",
";#	c #168E10",
">#	c #158F10",
",#	c #1C8016",
"'#	c #1C8015",
")#	c #1C8115",
"!#	c #1B8115",
"~#	c #1D8316",
"{#	c #188112",
"]#	c #21861B",
"^#	c #D0E4CF",
"/#	c #F9FBF9",
"(#	c #75B671",
"_#	c #0A7F04",
":#	c #1C8917",
"<#	c #188812",
"[#	c #1E7B17",
"}#	c #1E7C17",
"|#	c #1E7D17",
"1#	c #1D7D16",
"2#	c #1F7F19",
"3#	c #167B0F",
"4#	c #358C2F",
"5#	c #E5EFE5",
"6#	c #F8FAF7",
"7#	c #93C390",
"8#	c #0D7B07",
"9#	c #1E8418",
"0#	c #1B8314",
"a#	c #207719",
"b#	c #207818",
"c#	c #207918",
"d#	c #1F7918",
"e#	c #1F7917",
"f#	c #227C1B",
"g#	c #14740C",
"h#	c #4D9647",
"i#	c #F3F7F3",
"j#	c #AFD0AC",
"k#	c #15780E",
"l#	c #1E7E18",
"m#	c #1D7E17",
"n#	c #1D7F16",
"o#	c #22741A",
"p#	c #22731A",
"q#	c #21751A",
"r#	c #217519",
"s#	c #25781D",
"t#	c #116D09",
"u#	c #6FA76A",
"v#	c #CADEC8",
"w#	c #21791A",
"x#	c #1E7716",
"y#	c #207A19",
"z#	c #1F7A18",
"A#	c #1F7B18",
"B#	c #246F1C",
"C#	c #24711C",
"D#	c #23701B",
"E#	c #23711B",
"F#	c #23721B",
"G#	c #24731C",
"H#	c #1F7117",
"I#	c #23741C",
"J#	c #1F7217",
"K#	c #23751B",
"L#	c #217619",
"M#	c #217719",
"N#	c #207819",
"O#	c #24671C",
"P#	c #266D1E",
"Q#	c #256C1D",
"R#	c #256D1D",
"S#	c #256D1C",
"T#	c #256E1C",
"U#	c #256F1D",
"V#	c #25701C",
"W#	c #206D19",
"X#	c #215819",
"Y#	c #27681E",
"Z#	c #27691E",
"`#	c #276A1E",
" $	c #276B1E",
".$	c #266B1D",
"+$	c #266C1D",
"@$	c #246B1C",
"#$	c #25631D",
"$$	c #27681F",
"%$	c #28691F",
"&$	c #28691E",
"                                                                                                ",
"                                                                                                ",
"                                                                                                ",
"                                                                                                ",
"                                                                                                ",
"                                                                                                ",
"                                                                                                ",
"                                                                                                ",
"                . + @ # # $ +                                                                   ",
"            % @ & * = = - - - = @                                                               ",
"        ; > * * & = , ' ) ! ~ { ~ ] ^                                                           ",
"      / ( _ + : < ^ [ } | 1 | ' 2 3 * :                                                         ",
"    4 5 ] 6         7 @ ' 8 9 1 | 0 a _                                                         ",
"    b c $ d           e { 8 f 8 | g 0 a h                                                       ",
"  i $ [ h j           ; _ k l 8 f 9 9 3 2 m n o         p                                       ",
"  q [ r s t           i = u u k f f 9 v 0 s w x y     z A 5 h $ +         B ] ] +   s           ",
"j C [ ~ & D           y ~ v ' u u k f k E F G } a H ! I | g 1 J g 3 2 2 g K L M L N O g !       ",
"; h B ~ P # : Q   j q * ! v v R u u k l ' S T U V V H H F W X r Y 3 Z ) v R u l ` g 1  ...)     ",
"i ( +.- r = +.( C $ - a 0 0 } v v R u k ) r 6 ( @ $ [ # c +.] & _ * = P - { , ~ 2 3 a ! 0 k [   ",
"i ( c P = r r - r , 3 3 a 0 0 ) v v R u 0 , . s @.@.#.v ' $.l %.9 | g &.*.=...K -.;.>.,.'.).!.& ",
"; h $ _ B # B B & & _ * P P - { , , a v a - ~.{.z ].+ h ^.$ /.(._.F = - :.Y <.a 0 } R u l l [.r ",
"}.> h ] s 6 C + h ( s $ B ] & _ * = r ) , ~ ~ c B +.] & _ * = - r { , |.1.3 a ! 0 ) } v v g #   ",
"  b h # @ + 5 s @ @ $ # +.& & _ = = { 3 r , ~ ! 0 ) } v R u k l f %.2.3.4.5.6.*.=.N ..N ,.a     ",
"  7.( h # # B B ] & _ * = P - { , , 2 r - { , , 2 3 a ! 0 ) #.8.9.0.a.b.c.d.e.f.2.g.1 h.{       ",
"  i.6 5 s [ # c +.] & * * P - r { ~ r r 2 ~ 3 a ! ! ! 0 j.k.l.m.n.o.p.q.r.s.t.u.v.w.x.y.        ",
"    z.@ + ( $ # B & _ * = P P - - * - +.d 7.< < < A.e B.C.D.E.F.G.H.I.J.J.J.K.L.M.N.O.          ",
"      P.[ h $ B & * P r r { { r * * r Q.                    R.S.I.K.T.U.U.U.K.I.J.V.W.          ",
"        X.c ] ] * - { ~ ~ ~ { - ~ { Y.                  Z.`. +.+ +I.I.++@+#+K.T.U.$+U.++        ",
"          7 > r 2 3 ! 0 0 0 ) ! $ t                   %+&+&+*+=+-+;+>+,+W.V.'+J.J.J.I.I.K.      ",
"              )+!++.{ 2 { & C i                       ~+{+{+]+^+/+(+_+:+<+[+}+|+-+-+;+;+1+1+    ",
"                    2+3+2+                          4+5+6+7+7+8+9+0+a+b+!.c+d+e+^+f+f+g+g+&+    ",
"                                                    h+i+j+j+k+k+l+m+n+o+!.p+q+r+8+8+s+s+t+~+{+  ",
"                                                  u+u+v+w+x+y+z+A+B+C+D+!.E+F+G+H+l+I+4+4+5+6+  ",
"                                                  J+K+L+M+N+O+P+Q+R+S+D+!.T+U+V+W+X+Y+Z+h+i+j+j+",
"                                                  `+`+ @.@+@@@#@$@%@&@*@!.=@-@;@>@,@'@)@!@v+w+~@",
"                                                  {@]@^@/@(@_@:@<@[@}@*@!.|@1@2@3@4@!.5@6@7@8@8@",
"                                                9@0@a@b@c@d@e@_@f@g@h@i@!.j@k@l@m@!.n@o@p@q@r@r@",
"                                                  s@s@t@u@v@w@_@x@y@z@A@!.B@C@D@!.E@F@G@H@I@I@J@",
"                                                  K@L@L@M@N@O@P@x@x@Q@R@!.S@T@!.U@V@W@X@a@a@Y@Y@",
"                                                  Z@Z@`@`@ #.#+#@#!.##).'.$#%#%#&#*#=#-#s@t@;#>#",
"                                                  ,#,#'#)#!#~#{#]#^#!./#)./#!.(#_#:#<#K@L@L@M@  ",
"                                                    [#}#}#|#1#2#3#4#5#!.6#!.7#8#9#0#0#Z@Z@`@`@  ",
"                                                    a#a#b#c#d#e#f#g#h#i#!.j#k#l#m#n#n#,#,#'#    ",
"                                                      o#p#o#q#q#r#s#t#u#v#w#x#y#z#z#A#[#[#      ",
"                                                        B#C#D#E#E#F#G#H#I#J#K#r#q#L#L#M#N#      ",
"                                                          O#P#Q#R#S#T#U#B#V#D#D#E#E#F#W#        ",
"                                                            X#Y#Z#Z#`#`# $.$.$+$Q#@$            ",
"                                                                #$$$%$%$%$%$&$Z#                "};
