/* XPM */
static const char * key_xpm[] = {
"16 16 122 2",
"  	c None",
". 	c #670003",
"+ 	c #650003",
"@ 	c #5C0202",
"# 	c #6F0001",
"$ 	c #DBBB83",
"% 	c #C2A774",
"& 	c #AC936C",
"* 	c #B09772",
"= 	c #8D7356",
"- 	c #C2A67C",
"; 	c #640002",
"> 	c #950004",
", 	c #7E0001",
"' 	c #810306",
") 	c #C7A873",
"! 	c #D1B17A",
"~ 	c #B79865",
"{ 	c #AA936B",
"] 	c #C2A67E",
"^ 	c #840003",
"/ 	c #6E0002",
"( 	c #500000",
"_ 	c #980307",
": 	c #B8966A",
"< 	c #BCA371",
"[ 	c #B6996D",
"} 	c #AF966C",
"| 	c #786A52",
"1 	c #A18C6B",
"2 	c #7C0002",
"3 	c #7E0002",
"4 	c #6A0003",
"5 	c #950102",
"6 	c #988262",
"7 	c #C3A56C",
"8 	c #A4885F",
"9 	c #BEA070",
"0 	c #C1A36F",
"a 	c #A89063",
"b 	c #BDA378",
"c 	c #7D6F58",
"d 	c #920104",
"e 	c #850304",
"f 	c #3C0000",
"g 	c #A28258",
"h 	c #BB8C5A",
"i 	c #BAA06D",
"j 	c #A58A60",
"k 	c #C3A677",
"l 	c #AB9165",
"m 	c #796850",
"n 	c #430002",
"o 	c #7D0002",
"p 	c #830203",
"q 	c #71493B",
"r 	c #8C291E",
"s 	c #8B3123",
"t 	c #A0412C",
"u 	c #AB9468",
"v 	c #AE8F64",
"w 	c #BFA370",
"x 	c #D7B57B",
"y 	c #B2976C",
"z 	c #4F0000",
"A 	c #813C32",
"B 	c #8E3128",
"C 	c #8C1D16",
"D 	c #BC9F6C",
"E 	c #A16F4C",
"F 	c #BFA06E",
"G 	c #A48960",
"H 	c #8C7558",
"I 	c #B7986A",
"J 	c #90795B",
"K 	c #CBBE93",
"L 	c #B96D55",
"M 	c #830000",
"N 	c #980D0A",
"O 	c #A25B40",
"P 	c #605642",
"Q 	c #CAAB7F",
"R 	c #CDB18B",
"S 	c #B5996B",
"T 	c #976446",
"U 	c #6B0104",
"V 	c #810000",
"W 	c #B69E73",
"X 	c #BFA57F",
"Y 	c #A38E61",
"Z 	c #BC5E3D",
"` 	c #653329",
" .	c #530606",
"..	c #7F0406",
"+.	c #740305",
"@.	c #590002",
"#.	c #AC9068",
"$.	c #BBA17A",
"%.	c #9E8156",
"&.	c #C0A170",
"*.	c #502C26",
"=.	c #3F0000",
"-.	c #510303",
";.	c #8C0002",
">.	c #9F845F",
",.	c #AE976F",
"'.	c #987D53",
").	c #B59462",
"!.	c #6C0002",
"~.	c #907858",
"{.	c #A68E6B",
"].	c #90754C",
"^.	c #B39466",
"/.	c #7F0003",
"(.	c #A5906D",
"_.	c #8E7247",
":.	c #B19164",
"<.	c #8B0003",
"[.	c #7B6647",
"}.	c #9B7F55",
"|.	c #420002",
"1.	c #510002",
"                                ",
"    . + @ #       $ % & * = -   ",
"  ; >     , '     ) ! ~ {     ] ",
"  ^ /     ( _     : < [ } |   1 ",
"  2 3     4 5   6 7 8 9 0 a b c ",
"    d     e f   g h i j 9 k l m ",
"      n o p   q r s t u v w x y ",
"          z A B C D E F G H I J ",
"            K L M N O P         ",
"          Q R S T U V           ",
"        W X Y Z `  ...  +.@.    ",
"      #.$.%.&.*.=.-.    ;./     ",
"    >.,.'.).            ^ !.    ",
"  ~.{.].^.              /.+     ",
"  (._.:.                <.3     ",
"  [.}.                    |.1.  "};
