/* XPM */
static const char * key_xpm[] = {
"16 16 100 2",
"  	c None",
". 	c #090902",
"+ 	c #0E0A03",
"@ 	c #000000",
"# 	c #000100",
"$ 	c #020202",
"% 	c #010102",
"& 	c #F5F563",
"* 	c #F9F256",
"= 	c #A79B37",
"- 	c #9E9E3C",
"; 	c #9F9A38",
"> 	c #A1972E",
", 	c #33310B",
"' 	c #000003",
") 	c #FBEF4C",
"! 	c #FFFF61",
"~ 	c #FDF251",
"{ 	c #CCB439",
"] 	c #C7C13D",
"^ 	c #080702",
"/ 	c #E7E050",
"( 	c #FDFA50",
"_ 	c #FFFF64",
": 	c #E6DE4C",
"< 	c #C9A530",
"[ 	c #AEA161",
"} 	c #C5C13D",
"| 	c #67682D",
"1 	c #ECE650",
"2 	c #DFD642",
"3 	c #EDDC47",
"4 	c #E3D742",
"5 	c #CDB332",
"6 	c #90902B",
"7 	c #C6C057",
"8 	c #CFBD59",
"9 	c #D7CE46",
"0 	c #D7D344",
"a 	c #E1CB49",
"b 	c #FFFF60",
"c 	c #EAD848",
"d 	c #AA8D2E",
"e 	c #3C381E",
"f 	c #FFFF7A",
"g 	c #FFFF6F",
"h 	c #E7DE50",
"i 	c #ECEA52",
"j 	c #DCD74D",
"k 	c #F7E75A",
"l 	c #FFFF68",
"m 	c #E1D755",
"n 	c #939241",
"o 	c #FFFD6C",
"p 	c #F8F26A",
"q 	c #F8F46B",
"r 	c #E0CD56",
"s 	c #CBC356",
"t 	c #A09445",
"u 	c #D8C056",
"v 	c #88863B",
"w 	c #090906",
"x 	c #9A913C",
"y 	c #FFFF70",
"z 	c #F0ED6D",
"A 	c #A68F3F",
"B 	c #544026",
"C 	c #131010",
"D 	c #050508",
"E 	c #06070A",
"F 	c #0B0A0A",
"G 	c #0A0A05",
"H 	c #867E36",
"I 	c #ECEA6A",
"J 	c #E9DE65",
"K 	c #232017",
"L 	c #1A1812",
"M 	c #2E2D11",
"N 	c #ECE166",
"O 	c #FFFF76",
"P 	c #EDE368",
"Q 	c #282316",
"R 	c #989543",
"S 	c #FFFF78",
"T 	c #E5DF65",
"U 	c #232014",
"V 	c #0C0D07",
"W 	c #6B5825",
"X 	c #FFFE73",
"Y 	c #DED162",
"Z 	c #1C190F",
"` 	c #A49D48",
" .	c #FFFF77",
"..	c #D5CB58",
"+.	c #140F0C",
"@.	c #040302",
"#.	c #D3D161",
"$.	c #BFB356",
"%.	c #0D080A",
"&.	c #070605",
"                . + @   # $     ",
"              % & * = - ; > ,   ",
"              ' ) ! ~ {     ] ^ ",
"              @ / ( _ : < [ } @ ",
"              | 1 2 3 ! 4 5 6   ",
"            @ 7 8 9 0 a b c d @ ",
"            e f g h i j k l m ^ ",
"            n o p q r s t u v w ",
"          @ x y z A B C D E F   ",
"        G H I J K L @           ",
"      M N O P Q @               ",
"    @ R S T U                   ",
"  V W X Y Z                     ",
"@ `  ...+.                      ",
"@.#.$.%.                        ",
"  w &.                          "};
