/* XPM */
static const char * left_xpm[] = {
"16 16 70 1",
" 	c None",
".	c #000000",
"+	c #040804",
"@	c #315A2F",
"#	c #325A2F",
"$	c #020402",
"%	c #274725",
"&	c #58A055",
"*	c #6EC86A",
"=	c #3E713C",
"-	c #244223",
";	c #51944D",
">	c #64B55F",
",	c #6EC769",
"'	c #7BE076",
")	c #42783F",
"!	c #244222",
"~	c #63B45F",
"{	c #6CC467",
"]	c #72CF6D",
"^	c #75D570",
"/	c #7EE478",
"(	c #42793F",
"_	c #1D351C",
":	c #4B8A48",
"<	c #63B35E",
"[	c #74D470",
"}	c #76D671",
"|	c #62B25E",
"1	c #6BC266",
"2	c #71CE6C",
"3	c #74D370",
"4	c #162915",
"5	c #498545",
"6	c #62B25D",
"7	c #74D36F",
"8	c #335C30",
"9	c #66BA62",
"0	c #72CE6D",
"a	c #264625",
"b	c #67BB62",
"c	c #78DA73",
"d	c #77D872",
"e	c #76D670",
"f	c #030603",
"g	c #325B30",
"h	c #6FC96A",
"i	c #060C06",
"j	c #40743D",
"k	c #75D470",
"l	c #0D180C",
"m	c #4D8C4A",
"n	c #79DB74",
"o	c #78DA72",
"p	c #76D771",
"q	c #172B16",
"r	c #5BA557",
"s	c #79DB73",
"t	c #76D872",
"u	c #7EE579",
"v	c #213C20",
"w	c #64B660",
"x	c #7ADD74",
"y	c #80E97B",
"z	c #437A40",
"A	c #335C31",
"B	c #73D26E",
"C	c #447C41",
"D	c #070C06",
"E	c #1A2F18",
"............+@#.",
"..........$%&*=.",
"........$-;>,').",
".......!;~{]^/(.",
"....._:<{][^}/(.",
"..._:|123^^^}/(.",
".456127^^^^^}/(.",
"89{07^^^^^^^}/(.",
".abcde^^^^^^}/(.",
"..fghcd^^^^^}/(.",
"....ijkc}^^^}/(.",
"......lmnop^}/(.",
"........qrsdtu(.",
"..........vwxyz.",
"............ABC.",
".............DE."};
