/* XPM */
static const char * loc_add_dis_xpm[] = {
"48 48 161 2",
"  	c None",
". 	c #8E8E8E",
"+ 	c #8F8F8F",
"@ 	c #ACACAC",
"# 	c #ADADAD",
"$ 	c #595959",
"% 	c #6D6D6D",
"& 	c #6E6E6E",
"* 	c #A9A9A9",
"= 	c #A3A3A3",
"- 	c #A5A5A5",
"; 	c #909090",
"> 	c #AFAFAF",
", 	c #A7A7A7",
"' 	c #B5B5B5",
") 	c #8C8C8C",
"! 	c #A6A6A6",
"~ 	c #9F9F9F",
"{ 	c #969696",
"] 	c #999999",
"^ 	c #6C6C6C",
"/ 	c #A1A1A1",
"( 	c #8B8B8B",
"_ 	c #A8A8A8",
": 	c #919191",
"< 	c #929292",
"[ 	c #989898",
"} 	c #A4A4A4",
"| 	c #6B6B6B",
"1 	c #9D9D9D",
"2 	c #868686",
"3 	c #8A8A8A",
"4 	c #767676",
"5 	c #A0A0A0",
"6 	c #949494",
"7 	c #8D8D8D",
"8 	c #959595",
"9 	c #979797",
"0 	c #818181",
"a 	c #858585",
"b 	c #9C9C9C",
"c 	c #888888",
"d 	c #ABABAB",
"e 	c #6A6A6A",
"f 	c #7C7C7C",
"g 	c #898989",
"h 	c #9B9B9B",
"i 	c #828282",
"j 	c #878787",
"k 	c #696969",
"l 	c #797979",
"m 	c #7A7A7A",
"n 	c #7D7D7D",
"o 	c #7F7F7F",
"p 	c #848484",
"q 	c #939393",
"r 	c #A2A2A2",
"s 	c #686868",
"t 	c #777777",
"u 	c #616161",
"v 	c #717171",
"w 	c #727272",
"x 	c #757575",
"y 	c #7E7E7E",
"z 	c #838383",
"A 	c #AAAAAA",
"B 	c #787878",
"C 	c #6F6F6F",
"D 	c #747474",
"E 	c #7B7B7B",
"F 	c #808080",
"G 	c #676767",
"H 	c #737373",
"I 	c #707070",
"J 	c #636363",
"K 	c #646464",
"L 	c #666666",
"M 	c #5D5D5D",
"N 	c #5F5F5F",
"O 	c #606060",
"P 	c #656565",
"Q 	c #5B5B5B",
"R 	c #5C5C5C",
"S 	c #5E5E5E",
"T 	c #626262",
"U 	c #9A9A9A",
"V 	c #B1B1B1",
"W 	c #B4B4B4",
"X 	c #BBBBBB",
"Y 	c #9E9E9E",
"Z 	c #E6E6E6",
"` 	c #E2E2E2",
" .	c #E3E3E3",
"..	c #E4E4E4",
"+.	c #E5E5E5",
"@.	c #E7E7E7",
"#.	c #E8E8E8",
"$.	c #E9E9E9",
"%.	c #EAEAEA",
"&.	c #EBEBEB",
"*.	c #ECECEC",
"=.	c #EDEDED",
"-.	c #EEEEEE",
";.	c #EFEFEF",
">.	c #F0F0F0",
",.	c #F1F1F1",
"'.	c #F2F2F2",
").	c #F3F3F3",
"!.	c #F4F4F4",
"~.	c #F6F6F6",
"{.	c #F7F7F7",
"].	c #F8F8F8",
"^.	c #FAFAFA",
"/.	c #E1E1E1",
"(.	c #F5F5F5",
"_.	c #F9F9F9",
":.	c #DFDFDF",
"<.	c #E0E0E0",
"[.	c #DEDEDE",
"}.	c #DDDDDD",
"|.	c #DCDCDC",
"1.	c #C9C9C9",
"2.	c #C1C1C1",
"3.	c #C2C2C2",
"4.	c #C3C3C3",
"5.	c #C4C4C4",
"6.	c #C6C6C6",
"7.	c #D0D0D0",
"8.	c #DBDBDB",
"9.	c #C7C7C7",
"0.	c #DADADA",
"a.	c #BFBFBF",
"b.	c #CACACA",
"c.	c #CBCBCB",
"d.	c #CCCCCC",
"e.	c #CECECE",
"f.	c #D1D1D1",
"g.	c #D5D5D5",
"h.	c #C8C8C8",
"i.	c #D8D8D8",
"j.	c #D9D9D9",
"k.	c #BEBEBE",
"l.	c #C0C0C0",
"m.	c #CFCFCF",
"n.	c #BDBDBD",
"o.	c #C5C5C5",
"p.	c #D7D7D7",
"q.	c #BCBCBC",
"r.	c #D6D6D6",
"s.	c #B8B8B8",
"t.	c #BABABA",
"u.	c #B6B6B6",
"v.	c #B7B7B7",
"w.	c #D4D4D4",
"x.	c #B9B9B9",
"y.	c #D3D3D3",
"z.	c #B3B3B3",
"A.	c #D2D2D2",
"B.	c #AEAEAE",
"C.	c #B0B0B0",
"D.	c #B2B2B2",
"                                                                                                ",
"                                                                                                ",
"                                                                                                ",
"                                                                                                ",
"                                              . +                                               ",
"                                            . @ # +                                             ",
"                        $ % % % & $       + * = - # ;                                           ",
"                        % > - , ' &     ) ! ~ { ] - @ .                                         ",
"                        ^ / ( + _ &   ( = ] : < { [ } @ .                                       ",
"                        | 1 2 3 - 4 ) 5 6 ( 7 + < 8 9 } @ ;                                     ",
"                        | ] 0 a 6 ; b ; 2 c 3 ) + : 6 9 } d .                                   ",
"                        e 8 f 0 g h 3 0 i a j 3 7 + : 6 9 = d .                                 ",
"                        k : l 3 9 a m n o i p 2 g ( . : q 8 r d +                               ",
"                        s : a 6 i 4 t l f o 0 p 2 c ( . ; < { = d .                             ",
"                        u ) 6 f v w x t l f y 0 z 2 c ( 7 + q 8 / A .                           ",
"                        c . B | % C w D 4 l E n F i a c 3 ) + < 6 / A +                         ",
"                      2 ) x G s e ^ C v H 4 B m n o i a j g ) + : 8 / A +                       ",
"                    j 7 I J K L s e % C v H x B m n o i p j g ) . : 6 5 * ;                     ",
"                  2 j ^ M N O J P G e ^ & I w D t l E o 0 z 2 c ( 7 ; < ~ * +                   ",
"                c a e Q Q R S u T P G k | & I w D 4 l f y F z a c ( 7 ; q 5 * :                 ",
"              c : < 3 g ( ) 7 . ; : q 6 8 9 [ U b 1 ~ / = } ! _ A @ # > V W X > <               ",
"            3 3 ( F h U U U U h h h h b b b b b 1 1 1 Y Y Y Y Y ~ ~ ~ ~ ~ 5 F : ; ;             ",
"                  l Z ` `  ...+.Z @.#.$.%.&.*.=.-.;.>.,.'.).!.!.~.~.{.].].^.n                   ",
"                  l Z /./.` ....+.@.@.#.$.%.&.*.=.-.;.>.,.'.).!.(.(.~.{.]._.n                   ",
"                  l ..:.<./.`  ...+.Z @.#.$.%.&.*.=.-.;.>.>.'.'.).!.(.~.~._.n                   ",
"                  l ..[.:.<./.`  ...+.Z @.#.#.%.&.&.=.-.-.>.>.,.).).!.(.~.].f                   ",
"                  l  .}.[.:.<./.`  ...+.Z @.#.$.%.&.*.=.-.;.>.>.'.'.).!.(.].f                   ",
"                  B ` |.|.[.[.<././.[.1.2.2.3.3.4.5.5.6.7.#.;.;.>.,.'.).!.{.f                   ",
"                  B /.8.8.|.}.[.:.<.9.j { 9 [ [ ] ] U U ( 7.=.-.;.>.,.'.).(.f                   ",
"                  B <.0.8.8.}.}.[.<.a.{ b.1.c.d.e.7.f.g.h h.*.=.-.;.>.,.'.(.f                   ",
"                  B :.i.j.0.8.|.}.[.k.8 5.l.3.5.6.h.b.m.U 9.&.*.=.-.;.>.>.!.f                   ",
"                  B [.i.i.j.0.8.|.}.n.6 2.k.a.2.5.o.9.e.] 6.%.%.*.=.=.;.>.).f                   ",
"                  t [.p.p.i.j.0.8.|.q.6 a.X n.a.3.5.o.d.] o.$.%.&.*.=.-.;.'.E                   ",
"                  t }.g.r.p.i.j.0.0.X < n.s.t.q.a.l.3.m.[ 5.#.#.$.%.&.*.=.,.E                   ",
"                  t |.g.g.r.p.i.i.0.X < X u.v.t.q.k.d./.b 4.Z @.#.$.%.&.*.,.E                   ",
"                  t |.w.g.g.r.p.i.i.t.: x.W ' v.t.X 4.[.] 3.+.Z @.#.$.%.&.>.E                   ",
"                  t 8.y.y.w.g.r.p.p.x.: u.V z.' v.x.X 4.8 2.+.+.Z @.#.$.%.;.E                   ",
"                  t 0.A.y.y.w.g.g.r.s.; W B.C.D.W u.s.2.6 l. . .+.Z Z #.$.=.m                   ",
"                  t 0.f.A.A.y.w.g.r.s.; z.@ B.C.D.W u.a.6 a.`  ...+.Z @.#.=.m                   ",
"                  t 8.g.g.r.p.p.i.j.t.+ u.D.z.' v.x.t.2.q 2...+.+.Z @.#.$.=.m                   ",
"                  k U h h h h b b b ( v . + + ; : : : : H 7 ~ 5 5 5 / / / r |                   ",
"                                                                                                ",
"                                                                                                ",
"                                                                                                ",
"                                                                                                ",
"                                                                                                ",
"                                                                                                ",
"                                                                                                "};
