/* XPM */
static const char * loc_add_xpm[] = {
"48 48 516 2",
"  	c None",
". 	c #D78E46",
"+ 	c #D98F46",
"@ 	c #D78C46",
"# 	c #EEB461",
"$ 	c #EFB661",
"% 	c #D98E45",
"& 	c #5B5958",
"* 	c #746C66",
"= 	c #746D66",
"- 	c #756D66",
"; 	c #756E67",
"> 	c #D88C48",
", 	c #F0AF5B",
"' 	c #F9B13E",
") 	c #F9B740",
"! 	c #F1B85E",
"~ 	c #D88F48",
"{ 	c #D1AD90",
"] 	c #CBA381",
"^ 	c #CEA583",
"/ 	c #D6B396",
"( 	c #756E68",
"_ 	c #D68845",
": 	c #F0A85A",
"< 	c #F8A73D",
"[ 	c #F8A229",
"} 	c #F9A92A",
"| 	c #F9B641",
"1 	c #F0B75D",
"2 	c #D98E44",
"3 	c #736C65",
"4 	c #C79F7D",
"5 	c #BB885E",
"6 	c #BF8C61",
"7 	c #CEA685",
"8 	c #756D67",
"9 	c #D68745",
"0 	c #ECA15C",
"a 	c #F89B39",
"b 	c #F79726",
"c 	c #F79B25",
"d 	c #F8A227",
"e 	c #F8A72A",
"f 	c #F9B43F",
"g 	c #EEB561",
"h 	c #726B65",
"i 	c #C39A79",
"j 	c #B68358",
"k 	c #BA885C",
"l 	c #8B7562",
"m 	c #D78746",
"n 	c #EF9A56",
"o 	c #F78F36",
"p 	c #F78921",
"q 	c #F78E22",
"r 	c #F79323",
"s 	c #F89A25",
"t 	c #F89F27",
"u 	c #F8A428",
"v 	c #F9B33F",
"w 	c #F1B65D",
"x 	c #726A64",
"y 	c #BE9775",
"z 	c #B17F54",
"A 	c #B58358",
"B 	c #C59165",
"C 	c #D58B50",
"D 	c #EE9354",
"E 	c #F68635",
"F 	c #F57D1F",
"G 	c #F6821F",
"H 	c #F68720",
"I 	c #F68D22",
"J 	c #F79924",
"K 	c #F79E26",
"L 	c #F8A529",
"M 	c #F9B341",
"N 	c #F0B55D",
"O 	c #716963",
"P 	c #BB9371",
"Q 	c #AC7A4F",
"R 	c #B67E4E",
"S 	c #D18347",
"T 	c #EB8F57",
"U 	c #F57A30",
"V 	c #F5721C",
"W 	c #F5761B",
"X 	c #F57C1D",
"Y 	c #F6811E",
"Z 	c #F78D22",
"` 	c #F79223",
" .	c #F79824",
"..	c #F89E26",
"+.	c #F8A429",
"@.	c #EEB360",
"#.	c #706862",
"$.	c #B78E6D",
"%.	c #AF7647",
"&.	c #D78245",
"*.	c #ED8651",
"=.	c #F56E2D",
"-.	c #F46317",
";.	c #F46919",
">.	c #F46E1A",
",.	c #F5751C",
"'.	c #F57A1D",
").	c #F67F1E",
"!.	c #F68520",
"~.	c #F78A21",
"{.	c #F79023",
"].	c #F89624",
"^.	c #F89C26",
"/.	c #F8A127",
"(.	c #F9B03E",
"_.	c #F1B35D",
":.	c #D88E48",
"<.	c #6F6862",
"[.	c #BE8F67",
"}.	c #CE7E44",
"|.	c #ED7F4F",
"1.	c #F4652D",
"2.	c #F35816",
"3.	c #F35D15",
"4.	c #F36216",
"5.	c #F36818",
"6.	c #F4731B",
"7.	c #F5791D",
"8.	c #F6841F",
"9.	c #F68921",
"0.	c #F79022",
"a.	c #F79524",
"b.	c #F9AF40",
"c.	c #D98D44",
"d.	c #716052",
"e.	c #D3844D",
"f.	c #EA7F53",
"g.	c #F35A28",
"h.	c #F24E14",
"i.	c #F25113",
"j.	c #F35714",
"k.	c #F35C15",
"l.	c #F36116",
"m.	c #F46818",
"n.	c #F46D19",
"o.	c #F5791C",
"p.	c #F57E1E",
"q.	c #F6831F",
"r.	c #F68F22",
"s.	c #F79423",
"t.	c #F89B25",
"u.	c #F8A028",
"v.	c #F9AE3D",
"w.	c #EEB15F",
"x.	c #D67D44",
"y.	c #EC724C",
"z.	c #F24F26",
"A.	c #F1400F",
"B.	c #F24511",
"C.	c #F24A12",
"D.	c #F35013",
"E.	c #F35414",
"F.	c #F35915",
"G.	c #F46017",
"H.	c #F46518",
"I.	c #F46B19",
"J.	c #F5711B",
"K.	c #F5761C",
"L.	c #F68721",
"M.	c #F78C22",
"N.	c #F89825",
"O.	c #F89D26",
"P.	c #F9AD3D",
"Q.	c #F1B25C",
"R.	c #D57A43",
"S.	c #EB6D4B",
"T.	c #F14726",
"U.	c #F0370E",
"V.	c #F13B0D",
"W.	c #F13F0E",
"X.	c #F14410",
"Y.	c #F24A11",
"Z.	c #F24E12",
"`.	c #F25313",
" +	c #F35A15",
".+	c #F35F16",
"++	c #F36417",
"@+	c #F4701A",
"#+	c #F4751C",
"$+	c #F5811E",
"%+	c #F68620",
"&+	c #F78C21",
"*+	c #F89724",
"=+	c #F89F28",
"-+	c #F8AD3F",
";+	c #F1B15C",
">+	c #D88E47",
",+	c #D57B44",
"'+	c #E96F4F",
")+	c #F13D21",
"!+	c #F02D0C",
"~+	c #F0300B",
"{+	c #F0350C",
"]+	c #F13A0D",
"^+	c #F13F0F",
"/+	c #F24410",
"(+	c #F24911",
"_+	c #F35413",
":+	c #F35914",
"<+	c #F35E16",
"[+	c #F46417",
"}+	c #F46A19",
"|+	c #F46F1A",
"1+	c #F57B1D",
"2+	c #F6801F",
"3+	c #F78B21",
"4+	c #F79123",
"5+	c #F79724",
"6+	c #F89E27",
"7+	c #F8AB3C",
"8+	c #EEAF5F",
"9+	c #D88F49",
"0+	c #D67A43",
"a+	c #EA6348",
"b+	c #F0341F",
"c+	c #EE2107",
"d+	c #EF2508",
"e+	c #EF2909",
"f+	c #F02E0B",
"g+	c #F0330C",
"h+	c #F0370D",
"i+	c #F13D0F",
"j+	c #F14210",
"k+	c #F14711",
"l+	c #F24D12",
"m+	c #F25614",
"n+	c #F35D16",
"o+	c #F36217",
"p+	c #F36718",
"q+	c #F5781C",
"r+	c #F57F1E",
"s+	c #F8AA3C",
"t+	c #F0B05B",
"u+	c #D47C47",
"v+	c #EA5E47",
"w+	c #EF2F1F",
"x+	c #EE1B07",
"y+	c #EE1D06",
"z+	c #EE2007",
"A+	c #EF2408",
"B+	c #F02909",
"C+	c #EF2D0A",
"D+	c #F0320C",
"E+	c #F1380D",
"F+	c #F03C0E",
"G+	c #F1410F",
"H+	c #F24711",
"I+	c #F24C12",
"J+	c #F25013",
"K+	c #F35614",
"L+	c #F35B15",
"M+	c #F36117",
"N+	c #F46718",
"O+	c #F4721B",
"P+	c #F57E1D",
"Q+	c #F68E22",
"R+	c #F79424",
"S+	c #F79B27",
"T+	c #F8AA3E",
"U+	c #F1B05B",
"V+	c #D7904D",
"W+	c #D47C48",
"X+	c #E97159",
"Y+	c #F4655C",
"Z+	c #F35A50",
"`+	c #F35B4E",
" @	c #F35E4F",
".@	c #F36050",
"+@	c #F36350",
"@@	c #F46651",
"#@	c #F46952",
"$@	c #F46C53",
"%@	c #F57054",
"&@	c #F57354",
"*@	c #F57655",
"=@	c #F67A56",
"-@	c #F57D57",
";@	c #F58158",
">@	c #F68559",
",@	c #F6885A",
"'@	c #F78C5B",
")@	c #F7915C",
"!@	c #F7945D",
"~@	c #F7985E",
"{@	c #F89C5F",
"]@	c #F8A060",
"^@	c #F9A461",
"/@	c #F9A862",
"(@	c #F9AB63",
"_@	c #F9B064",
":@	c #F9B465",
"<@	c #FAB968",
"[@	c #FBC274",
"}@	c #EEB36B",
"|@	c #D7904E",
"1@	c #CE834C",
"2@	c #CF834C",
"3@	c #D0834D",
"4@	c #B97C4A",
"5@	c #D49866",
"6@	c #D39764",
"7@	c #D39765",
"8@	c #D49865",
"9@	c #D59966",
"0@	c #D59967",
"a@	c #D69A68",
"b@	c #D79B68",
"c@	c #D79B69",
"d@	c #D89C69",
"e@	c #D89C6A",
"f@	c #D99D6A",
"g@	c #B97D4B",
"h@	c #D38E51",
"i@	c #D28D51",
"j@	c #797979",
"k@	c #E6E6E6",
"l@	c #E2E2E2",
"m@	c #E3E3E3",
"n@	c #E4E4E4",
"o@	c #E5E5E5",
"p@	c #E7E7E7",
"q@	c #E8E8E8",
"r@	c #E9E9E9",
"s@	c #EAEAEA",
"t@	c #EBEBEB",
"u@	c #ECECEC",
"v@	c #EDEDED",
"w@	c #EEEEEE",
"x@	c #EFEFEF",
"y@	c #F0F0F0",
"z@	c #F1F1F1",
"A@	c #F2F2F2",
"B@	c #F3F3F3",
"C@	c #F4F4F4",
"D@	c #F6F6F6",
"E@	c #F7F7F7",
"F@	c #F8F8F8",
"G@	c #FAFAFA",
"H@	c #7D7D7D",
"I@	c #E1E1E1",
"J@	c #F5F5F5",
"K@	c #F9F9F9",
"L@	c #DFDFDF",
"M@	c #E0E0E0",
"N@	c #DEDEDE",
"O@	c #7D7C7C",
"P@	c #DDDDDD",
"Q@	c #7C7C7C",
"R@	c #787878",
"S@	c #DCDCDC",
"T@	c #C9C9C9",
"U@	c #C1C1C1",
"V@	c #C2C2C2",
"W@	c #C3C3C3",
"X@	c #C4C4C4",
"Y@	c #C6C6C6",
"Z@	c #D0D0D0",
"`@	c #DBDBDB",
" #	c #C7C7C7",
".#	c #83888A",
"+#	c #8E989D",
"@#	c #8F999E",
"##	c #8F9A9E",
"$#	c #909A9F",
"%#	c #909B9F",
"&#	c #919BA0",
"*#	c #919CA0",
"=#	c #929CA1",
"-#	c #878C8E",
";#	c #DADADA",
">#	c #BFBFBF",
",#	c #8D989C",
"'#	c #B3D0DC",
")#	c #AFD0DD",
"!#	c #B0D1DF",
"~#	c #B2D3E0",
"{#	c #B4D4E2",
"]#	c #B6D6E4",
"^#	c #B7D7E5",
"/#	c #BEDBE7",
"(#	c #939CA1",
"_#	c #C8C8C8",
":#	c #D8D8D8",
"<#	c #D9D9D9",
"[#	c #BEBEBE",
"}#	c #8C979B",
"|#	c #AACAD7",
"1#	c #A3C7D6",
"2#	c #A5C9D8",
"3#	c #A7CBDA",
"4#	c #A9CDDC",
"5#	c #ABCFDE",
"6#	c #ADD1E0",
"7#	c #B6D5E3",
"8#	c #929BA0",
"9#	c #BDBDBD",
"0#	c #8C969B",
"a#	c #A8C7D5",
"b#	c #A1C4D4",
"c#	c #A2C6D6",
"d#	c #A4C8D8",
"e#	c #A8CCDC",
"f#	c #AACEDE",
"g#	c #B5D4E1",
"h#	c #919B9F",
"i#	c #777777",
"j#	c #D7D7D7",
"k#	c #BCBCBC",
"l#	c #8B969A",
"m#	c #A6C5D3",
"n#	c #9EC2D2",
"o#	c #A0C3D4",
"p#	c #A4C9D8",
"q#	c #A6CBDA",
"r#	c #B3D2DF",
"s#	c #C5C5C5",
"t#	c #7B7B7B",
"u#	c #D5D5D5",
"v#	c #D6D6D6",
"w#	c #BBBBBB",
"x#	c #8A9499",
"y#	c #A4C2D0",
"z#	c #9BBFCF",
"A#	c #9DC0D0",
"B#	c #9FC2D2",
"C#	c #A2C5D5",
"D#	c #A3C7D7",
"E#	c #A5C9D9",
"F#	c #B8D4E0",
"G#	c #8A9498",
"H#	c #A1C1CE",
"I#	c #99BCCC",
"J#	c #9ABECE",
"K#	c #9FC2D3",
"L#	c #B5D1DE",
"M#	c #D3E4EB",
"N#	c #969EA1",
"O#	c #D4D4D4",
"P#	c #BABABA",
"Q#	c #899398",
"R#	c #A0BECC",
"S#	c #97BACA",
"T#	c #98BBCB",
"U#	c #9ABDCD",
"V#	c #9EC1D2",
"W#	c #A9C9D8",
"X#	c #D0E2E9",
"Y#	c #929B9E",
"Z#	c #D3D3D3",
"`#	c #B9B9B9",
" $	c #899397",
".$	c #9DBCCA",
"+$	c #94B7C7",
"@$	c #96B9C9",
"#$	c #9ABDCE",
"$$	c #9CBFCF",
"%$	c #9EC1D1",
"&$	c #AACAD6",
"*$	c #8D979B",
"=$	c #D2D2D2",
"-$	c #B8B8B8",
";$	c #889296",
">$	c #9BBAC7",
",$	c #91B5C4",
"'$	c #93B6C6",
")$	c #95B8C8",
"!$	c #97BBCB",
"~$	c #9BBECE",
"{$	c #A8C7D4",
"]$	c #C0C0C0",
"^$	c #7A7A7A",
"/$	c #D1D1D1",
"($	c #879296",
"_$	c #9AB8C6",
":$	c #8FB3C2",
"<$	c #95B9C9",
"[$	c #A6C4D2",
"}$	c #8B969B",
"|$	c #879195",
"1$	c #9FBCC8",
"2$	c #98B9C6",
"3$	c #9AB9C7",
"4$	c #9BBBC9",
"5$	c #9DBDCB",
"6$	c #9FBECD",
"7$	c #A0C0CF",
"8$	c #AAC7D3",
"9$	c #8B959A",
"0$	c #696969",
"a$	c #9A9A9A",
"b$	c #9B9B9B",
"c$	c #9C9C9C",
"d$	c #8B8B8B",
"e$	c #6D7274",
"f$	c #859094",
"g$	c #869196",
"h$	c #889397",
"i$	c #889398",
"j$	c #889498",
"k$	c #6F7476",
"l$	c #8D8D8D",
"m$	c #9F9F9F",
"n$	c #A0A0A0",
"o$	c #A1A1A1",
"p$	c #A2A2A2",
"q$	c #6B6B6B",
"                                                                                                ",
"                                                                                                ",
"                                                                                                ",
"                                                                                                ",
"                                              . +                                               ",
"                                            @ # $ %                                             ",
"                        & * = - ; &       > , ' ) ! ~                                           ",
"                        * { ] ^ / (     _ : < [ } | 1 2                                         ",
"                        3 4 5 6 7 8   9 0 a b c d e f g 2                                       ",
"                        h i j k ] l m n o p q r s t u v w ~                                     ",
"                        x y z A B C D E F G H I r J K L M N 2                                   ",
"                        O P Q R S T U V W X Y H Z `  ...+.' @.2                                 ",
"                        #.$.%.&.*.=.-.;.>.,.'.).!.~.{.].^./.(._.:.                              ",
"                        <.[.}.|.1.2.3.4.5.>.6.7.).8.9.0.a.c [ b._.c.                            ",
"                        d.e.f.g.h.i.j.k.l.m.n.6.o.p.q.~.r.s.t.u.v.w.c.                          ",
"                        x.y.z.A.B.C.D.E.F.G.H.I.J.K.X G L.M.r N.O.P.Q.:.                        ",
"                      R.S.T.U.V.W.X.Y.Z.`. +.+++I.@+#+X $+%+&+` *+=+-+;+>+                      ",
"                    ,+'+)+!+~+{+]+^+/+(+Z._+:+<+[+}+|+K.1+2+%+3+4+5+6+7+8+9+                    ",
"                  0+a+b+c+d+e+f+g+h+i+j+k+l+i.m+n+o+p+>.6.q+r+8.9.r.a.s s+t+:.                  ",
"                u+v+w+x+y+z+A+B+C+D+E+F+G+H+I+J+K+L+M+N+n.O+q+P+q.9.Q+R+S+T+U+V+                ",
"              W+X+Y+Z+`+ @.@+@@@#@$@%@&@*@=@-@;@>@,@'@)@!@~@{@]@^@/@(@_@:@<@[@}@|@              ",
"            1@2@3@4@5@6@7@7@7@8@5@5@5@9@9@0@0@0@a@a@a@b@b@c@c@c@d@d@e@e@e@f@g@h@i@i@            ",
"                  j@k@l@l@m@n@o@k@p@q@r@s@t@u@v@w@x@y@z@A@B@C@C@D@D@E@F@F@G@H@                  ",
"                  j@k@I@I@l@n@n@o@p@p@q@r@s@t@u@v@w@x@y@z@A@B@C@J@J@D@E@F@K@H@                  ",
"                  j@n@L@M@I@l@m@n@o@k@p@q@r@s@t@u@v@w@x@y@y@A@A@B@C@J@D@D@K@H@                  ",
"                  j@n@N@L@M@I@l@m@n@o@k@p@q@q@s@t@t@v@w@w@y@y@z@B@B@C@J@D@F@O@                  ",
"                  j@m@P@N@L@M@I@l@m@n@o@k@p@q@r@s@t@u@v@w@x@y@y@A@A@B@C@J@F@Q@                  ",
"                  R@l@S@S@N@N@M@I@I@N@T@U@U@V@V@W@X@X@Y@Z@q@x@x@y@z@A@B@C@E@Q@                  ",
"                  R@I@`@`@S@P@N@L@M@ #.#+#@###$#%#&#*#=#-#Z@v@w@x@y@z@A@B@J@Q@                  ",
"                  R@M@;#`@`@P@P@N@M@>#,#'#)#!#~#{#]#^#/#(#_#u@v@w@x@y@z@A@J@Q@                  ",
"                  R@L@:#<#;#`@S@P@N@[#}#|#1#2#3#4#5#6#7#8# #t@u@v@w@x@y@y@C@Q@                  ",
"                  R@N@:#:#<#;#`@S@P@9#0#a#b#c#d#3#e#f#g#h#Y@s@s@u@v@v@x@y@B@Q@                  ",
"                  i#N@j#j#:#<#;#`@S@k#l#m#n#o#c#p#q#e#r#%#s#r@s@t@u@v@w@x@A@t#                  ",
"                  i#P@u#v#j#:#<#;#;#w#x#y#z#A#B#C#D#E#F###X@q@q@r@s@t@u@v@z@t#                  ",
"                  i#S@u#u#v#j#:#:#;#w#G#H#I#J#A#K#b#L#M#N#W@k@p@q@r@s@t@u@z@t#                  ",
"                  i#S@O#u#u#v#j#:#:#P#Q#R#S#T#U#A#V#W#X#Y#V@o@k@p@q@r@s@t@y@t#                  ",
"                  i#`@Z#Z#O#u#v#j#j#`# $.$+$@$T##$$$%$&$*$U@o@o@k@p@q@r@s@x@t#                  ",
"                  i#;#=$Z#Z#O#u#u#v#-$;$>$,$'$)$!$I#~${$0#]$m@m@o@k@k@q@r@v@^$                  ",
"                  i#;#/$=$=$Z#O#u#v#-$($_$:$,$'$<$S#I#[$}$>#l@m@n@o@k@p@q@v@^$                  ",
"                  i#`@u#u#v#j#j#:#<#P#|$1$2$3$4$5$6$7$8$9$U@n@o@o@k@p@q@r@v@^$                  ",
"                  0$a$b$b$b$b$c$c$c$d$e$f$g$g$($h$i$j$Q#k$l$m$n$n$n$o$o$o$p$q$                  ",
"                                                                                                ",
"                                                                                                ",
"                                                                                                ",
"                                                                                                ",
"                                                                                                ",
"                                                                                                ",
"                                                                                                "};
