/* XPM */
static const char * lotw_xpm[] = {
"48 48 128 2",
"  	c #D0CFD2",
". 	c #61531E",
"+ 	c #5B090C",
"@ 	c #434559",
"# 	c #F3DE9B",
"$ 	c #585665",
"% 	c #E49C6C",
"& 	c #747387",
"* 	c #E9CD27",
"= 	c #EFD74C",
"- 	c #676568",
"; 	c #787775",
"> 	c #887270",
", 	c #83701B",
"' 	c #363746",
") 	c #080401",
"! 	c #676578",
"~ 	c #E8E8EA",
"{ 	c #E6B393",
"] 	c #8C8476",
"^ 	c #9698A8",
"/ 	c #484244",
"( 	c #262327",
"_ 	c #383337",
": 	c #858485",
"< 	c #F2DD65",
"[ 	c #BDBDBF",
"} 	c #D1B41A",
"| 	c #58535A",
"1 	c #FFFFFF",
"2 	c #AC9317",
"3 	c #665954",
"4 	c #ADB4C9",
"5 	c #858696",
"6 	c #29120E",
"7 	c #161317",
"8 	c #B2938C",
"9 	c #A6A4A5",
"0 	c #484B61",
"a 	c #940F13",
"b 	c #9B999A",
"c 	c #B08973",
"d 	c #272832",
"e 	c #72654B",
"f 	c #5D6065",
"g 	c #625C69",
"h 	c #FCE8D1",
"i 	c #AC972F",
"j 	c #F28B36",
"k 	c #F5D7C4",
"l 	c #788195",
"m 	c #756767",
"n 	c #726A78",
"o 	c #8B6F54",
"p 	c #AB6D4E",
"q 	c #807B8A",
"r 	c #544843",
"s 	c #AFA694",
"t 	c #A6A8B6",
"u 	c #514B54",
"v 	c #302828",
"w 	c #5A5A6F",
"x 	c #958851",
"y 	c #0F0903",
"z 	c #75716C",
"A 	c #423B3F",
"B 	c #BBC8D8",
"C 	c #98862F",
"D 	c #CEB42E",
"E 	c #AC7A67",
"F 	c #9B8414",
"G 	c #DCDCDF",
"H 	c #B6A971",
"I 	c #FCF5ED",
"J 	c #F4F4F5",
"K 	c #9DA1AD",
"L 	c #FAEDE5",
"M 	c #FE0000",
"N 	c #1B100A",
"O 	c #988684",
"P 	c #A89CA6",
"Q 	c #BBA32F",
"R 	c #2A201C",
"S 	c #19181E",
"T 	c #4F5168",
"U 	c #3D3F52",
"V 	c #C50E13",
"W 	c #A69756",
"X 	c #DA1820",
"Y 	c #B4A8A5",
"Z 	c #979387",
"` 	c #6B6E7D",
" .	c #2F2D31",
"..	c #F4E37F",
"+.	c #BAAA59",
"@.	c #5C504A",
"#.	c #8E909D",
"$.	c #DDE3EA",
"%.	c #CE7E55",
"&.	c #BCA218",
"*.	c #D1C06C",
"=.	c #918D92",
"-.	c #B3B1AE",
";.	c #3A312A",
">.	c #B5AAB5",
",.	c #D7C352",
"'.	c #FFFBF5",
").	c #FCF7F4",
"!.	c #965A42",
"~.	c #AEB0BA",
"{.	c #1F1D20",
"].	c #2E2F3D",
"^.	c #EFEFEF",
"/.	c #1F2028",
"(.	c #C3BFC9",
"_.	c #7F7F7B",
":.	c #0A0A0C",
"<.	c #ECF3F6",
"[.	c #E4E2E2",
"}.	c #100C0D",
"|.	c #505056",
"1.	c #F0F1ED",
"2.	c #EF1C24",
"3.	c #4F4E60",
"4.	c #101013",
"5.	c #6E6F6E",
"6.	c #51556F",
"7.	c #000000",
"7.7.7.7.7.7.7.7.7.7.7.7.7.7.7.7.7.7.7.7.7.7.7.7.7.7.7.7.7.7.7.7.7.7.7.7.7.7.7.7.7.7.7.7.7.7.7.7.",
"7.7.7.7.7.7.7.7.7.7.7.7.7.7.7.7.7.7.7.7.7.7.7.7.7.7.7.7.7.7.7.7.7.7.7.7.7.7.7.7.7.7.7.7.7.7.7.7.",
"7.7.7.7.7.7.7.7.7.7.7.7.7.7.7.7.7.7.7.7.7.7.7.7.7.7.7.7.7.7.7.7.7.7.7.7.7.7.7.7.7.7.7.7.7.7.7.7.",
"7.7.7.7.7.7.7.7.7.7.7.7.7.7.7.7.7.7.7.7.7.7.7.7.7.7.7.7.7.7.7.7.7.7.7.7.7.7.7.7.7.7.7.7.7.7.7.7.",
"7.7.7.7.7.7.7.7.7.7.7.7.7.7.7.7.7.7.7.7.7.7.7.7.7.7.7.7.7.7.7.7.7.7.7.7.7.7.7.7.7.7.7.7.7.7.7.7.",
"7.7.7.7.7.7.7.7.7.7.7.7.7.7.7.7.7.7.7.7.7.7.7.7.7.7.7.7.7.7.7.7.7.7.7.7.7.7.7.7.7.7.7.7.7.7.7.7.",
"7.7.7.7.7.7.7.7.7.7.7.7.7.7.7.7.7.7.7.7.7.7.7.7.7.7.7.7.7.7.7.7.7.7.7.7.7.7.7.7.7.7.7.7.7.7.7.7.",
"7.7.7.7.7.7.7.7.7.7.7.7.7.7.7.7.7.7.7.7.7.7.7.7.7.7.7.7.7.7.7.7.7.7.7.7.7.7.7.7.7.7.7.7.7.7.7.7.",
"7.' @ @ @ @ @ @ @ @ @ 4.7.@ d @ @ @ @ @ @ @ @ /.) ) ) 7.7.7.7.7.7.7.7.7.7.7.7.7.7.7.7.7.7.7.7.7.",
"7.@ U @ @ 1 U   @ @ @ 7 :.1 @ ' & 1 ' & 1 @ @ 4.:.:.:.:.) ) ) ) 7.7.7.7.7.7.7.7.7.7.7.7.7.7.7.7.",
"7.7.U @ {.1 @ [ @ @ [ 4.].@ 1 ' ^ 0 ' ^ 0 0 0 d /.7 7 4.}.:.:.:.) 7.7.7.7.7.7.7.7.7.7.7.7.7.7.7.",
"7.7.U @ {.^.U ~.@ @ @ d @ ' ~ U ` G @ & G T 0 0 U /.{.S S 4.4.:.:.) ) 7.7.7.7.7.7.7.7.7.7.7.7.7.",
"7.7.@ @ d @ @ @ @ @ @ {.0 ' 0 0 T 0 T T 0 T T T U ]. .d /.{.S 4.}.:.:.) 7.7.7.7.7.7.7.7.7.7.7.7.",
"7.7.) ) ) ) ) ) y :.}.7 S ( d ].' U U @ 0 0 0 0 0 @ U ' ].d ( {.7 4.:.) ) 7.7.7.7.7.7.7.7.7.7.7.",
"7.) ) ) ) ) ) ) }.4.7 {.(  .' U @ 3.B 4 $.^ l l 8 #.l 0 @ ' ].d /.S 4.:.) 7.7.7.7.7.7.7.7.7.7.7.",
") ) ) ) ) ) y }.4.7 {.d _ U 0 t L k L k k { { =.O c c > ` 3.@ ' ]./.S 4.:.:.7.7.7.7.7.7.7.7.7.7.",
") ) ) ) ) y y }.7 {.d ' U 3.).I h L h { % % %.%.@ E E E u | | @ ' ]./.S 4.:.) 7.7.7.7.7.7.7.7.7.",
") ) ) ) ) y }.7 {.d _ / 3.I I 1 h { O > %.> o 3 c 8 c E o  .U A @ '  ./.7 :.:.) 7.7.7.7.7.7.7.7.",
") ) ) y y }.7 {.v _ U T B >.(.[.t   8 z 3 3 3 O E !.p A _ @  .d d 0 ' d {.7 :.) 7.7.7.7.7.7.7.7.",
") ) 7 S S 4.7 {. .U T ^ 5 >.K ^ (.b : ; P : 9 c c E > A U /  . ./ {.0 U d S S S 7 4.4.4.7.7.7.7.",
") d 0 0 0 U {.v T w s & & q & 5 s s & ! n q & ! g $ | w Z g T U | w 0 Z T U 0 @ @ @ @ @ U 7.7.7.",
") {.0 < 0 ' ( @ O = & ,.*.& & ..5 n } q n ..& _.= & & = ! g < $ 3.# x 6.< 0 0 # @ @ &.@ ].7.7.7.",
") ) U * 3.{.v $ < & ` l < ` *.} =.> n q 5 < q q = & H e $ T < ` T * T T 6.< @ ..@ &.@ S 7.7.7.7.",
") y U * 3.R _ w * ` 5 #.< q * z >.q n 5 =.< n +.,.` * $ / 3.+.= +.F 3.d 6.* 0 ..= @ d 7.7.7.7.7.",
") y U * 3.( A w } ` 5 & = ! &.m p > ..q #.* n - * & * w / u *.} i , 0 d 6.* 0 * &., @ ) 7.7.7.7.",
"y y U * 3._ $ g &.! ! ! } ! F &.c o = m m * g ! &.! C n u $ * @.6.F w ' 6.F 0 } @ F } ' 7.7.7.7.",
"y {.@ } 3.$ = w , 2 ! W . g ! 2 & m } - n } - g . g g F w $ , $ T F f T } 6.0 F 0 @ F @ ' 7.7.7.",
"y  .e r r @.3 g & & , 3 q 5 - - ;.. m q m e @.r g $ u $ , @.$ / u T 3 . w 0 @./ ;.U  .;.@ ) 7.7.",
"y y R v  .A / u 5 l 5 & : K b z ;.( 9 s 3 @.@.@./ A A A u / _  . . ._ u T ' ' d /.S S S 4.7.7.7.",
"y y y N R v _ / ` b - g ; @.> | , Q . -.Y ] r r / A r A A | / _ v  .( ( 0 ' d S :.) 7.7.7.7.7.7.",
"y y y N 6 v _ / g ! : : r [ z Q {.S S 3 -.q ` ! w 6.6.T T 6.! w 0 @ 0 0 6.T @ 0 ].; 7.7.7.7.7.7.",
"y y y N S R ;./ | 5.: ; m @.-., C i &.@.9 1 & #.! 6.w 5 t T @ ~ T [ 0 K 1 K U 0 @ ) 7.7.7.7.7.7.",
"y y y N N R ;.A u f _.- : @.m . C Q ( 9 9 J K 5 w w w 5 K T T 0 G & T ^ G ^ ^ 0 @ ) 7.7.7.7.7.7.",
"y y y N N R v _ / $ | ; _.3 Z / C i r b _.3 3 5.r u | 5.- A _ - _  .A 0 U ' d d :.) 7.7.7.7.7.7.",
"y y y N N 6 R ;.A u $ | ; z ; : {.{.A _.e ] z 3 r ;.| : _.f f f v v v U ]./.7 :.) 7.7.7.7.7.7.7.",
"y y y N N N R v _ / | f 3 5.- 3 i r : 3 @.; @.3 m r r A / 5.5.f _ ( @ ].d S 4.:.) 7.7.7.7.7.7.7.",
"y y y y N N 6 R ;.A u $ f z ; _.f A : : : m ] m - 3 / ;.;.| r v v 0 U  ./.7 :.:.7.7.7.7.7.7.7.7.",
"y y y y }.N N R v ;.A u g f 5.; ; z _._._.; 5.- A | $ - - A v v 3.U ].( S 4.:.) 7.7.7.7.7.7.7.7.",
"y y y y y N N S R v ;.A u $ f - - ; ; ; ; ; ; ; f 5.f | $ r _ 0 A ].( S 4.:.) 7.7.7.7.7.7.7.7.7.",
") y y y y }.N N N R v ;.A u | 3 f - 5.z 5.5.5.5.- f f / u 3.@ A ].( {.7 }.:.) 7.7.7.7.7.7.7.7.7.",
") y y y y y N N N 6 R v ;._ / u | g | f f f f f f $ u 3.u U '  .( S 7 }.:.) ) 7.7.7.7.7.7.7.7.7.",
") ) y y y y y y N N N R R v ;.A / r u | | $ $ $ 3.u @ U ' ].d ( S 7 }.:.) ) 7.7.7.7.7.7.7.7.7.7.",
") ) y y y y y y N N N N R R v  ._ A A / / / / / A A _  . .( {.S 4.}.:.) ) 7.7.7.7.7.7.7.7.7.7.7.",
") ) ) y y y y y y y }.N N S {.R R v v  . . . . . .v ( {.{.S 7 }.}.:.) ) ) 7.7.7.7.7.7.7.7.7.7.7.",
") ) ) ) y y y y y y y N N N N 6 6 R R R R R R R {.{.S 7 7 4.}.y y ) ) ) ) 7.7.7.7.7.7.7.7.7.7.7.",
") ) ) ) ) y y y y y y y y N N N N N N N 6 N N N N 4.}.}.}.y y y ) ) ) ) ) 7.7.7.7.7.7.7.7.7.7.7.",
") ) ) ) ) ) y y y y y y y y y y y N }.}.}.}.}.}.}.y y y y y ) ) ) ) ) 7.7.7.7.7.7.7.7.7.7.7.7.7.",
") ) ) ) ) ) ) ) y y y y y y y y y y y y y y y y y y y y y ) ) ) ) ) ) 7.7.7.7.7.7.7.7.7.7.7.7.7."};
