/* XPM */
static const char * nocert_xpm[] = {
"16 16 31 1",
" 	c None",
".	c #FF6A15",
"+	c #FF6711",
"@	c #FF5B00",
"#	c #FF5000",
"$	c #FF660F",
"%	c #FF6209",
"&	c #FF5C00",
"*	c #FFC7A9",
"=	c #FFFFFF",
"-	c #FF701D",
";	c #FF9356",
">	c #FF7E35",
",	c #FF7526",
"'	c #FF5E02",
")	c #FF7B30",
"!	c #FF6A14",
"~	c #FF7B31",
"{	c #FF6108",
"]	c #FF660E",
"^	c #FF7A30",
"/	c #FF5E03",
"(	c #FF9253",
"_	c #FF4D00",
":	c #FFA36F",
"<	c #FF4600",
"[	c #FF9D64",
"}	c #FF792E",
"|	c #FF813B",
"1	c #FF701F",
"2	c #FF6B15",
"  .....++.....  ",
" ...+@#$$#@+... ",
"...%&*====*&%...",
"..%-===;>===-%..",
".+&====,'====&+.",
".@*====)%====*@.",
"!#=====~{=====#!",
"+]=====^/=====]+",
"+]=====(_:====]+",
"!#======~<[===#!",
".@*======}|==*@.",
".+&==========&+.",
"..%1========1%..",
"...%&*====*&%...",
" 2..+@#$$#@+... ",
"  .....++.....  "};
