/* XPM */
static const char * properties_dis_xpm[] = {
"48 48 179 2",
"  	c None",
". 	c #ACACAC",
"+ 	c #AAAAAA",
"@ 	c #AFAFAF",
"# 	c #B2B2B2",
"$ 	c #B3B3B3",
"% 	c #B0B0B0",
"& 	c #ADADAD",
"* 	c #9C9C9C",
"= 	c #989898",
"- 	c #A2A2A2",
"; 	c #BFBFBF",
"> 	c #C7C7C7",
", 	c #CECECE",
"' 	c #D0D0D0",
") 	c #D1D1D1",
"! 	c #CFCFCF",
"~ 	c #C8C8C8",
"{ 	c #C0C0C0",
"] 	c #B1B1B1",
"^ 	c #A3A3A3",
"/ 	c #9A9A9A",
"( 	c #9E9E9E",
"_ 	c #8B8B8B",
": 	c #8D8D8D",
"< 	c #9D9D9D",
"[ 	c #B9B9B9",
"} 	c #CBCBCB",
"| 	c #BBBBBB",
"1 	c #B8B8B8",
"2 	c #B5B5B5",
"3 	c #9F9F9F",
"4 	c #909090",
"5 	c #858585",
"6 	c #7F7F7F",
"7 	c #999999",
"8 	c #C5C5C5",
"9 	c #ABABAB",
"0 	c #A8A8A8",
"a 	c #B6B6B6",
"b 	c #828282",
"c 	c #868686",
"d 	c #767676",
"e 	c #7E7E7E",
"f 	c #BCBCBC",
"g 	c #A7A7A7",
"h 	c #A5A5A5",
"i 	c #BDBDBD",
"j 	c #818181",
"k 	c #787878",
"l 	c #686868",
"m 	c #7D7D7D",
"n 	c #B4B4B4",
"o 	c #6B6B6B",
"p 	c #5E5E5E",
"q 	c #A0A0A0",
"r 	c #838383",
"s 	c #616161",
"t 	c #535353",
"u 	c #727272",
"v 	c #AEAEAE",
"w 	c #A1A1A1",
"x 	c #565656",
"y 	c #494949",
"z 	c #ECECEC",
"A 	c #F9F9F9",
"B 	c #EDEDED",
"C 	c #646464",
"D 	c #4C4C4C",
"E 	c #3F3F3F",
"F 	c #919191",
"G 	c #959595",
"H 	c #E7E7E7",
"I 	c #FFFFFF",
"J 	c #E8E8E8",
"K 	c #949494",
"L 	c #9B9B9B",
"M 	c #4E4E4E",
"N 	c #414141",
"O 	c #3C3C3C",
"P 	c #696969",
"Q 	c #929292",
"R 	c #F4F4F4",
"S 	c #F6F6F6",
"T 	c #747474",
"U 	c #353535",
"V 	c #4B4B4B",
"W 	c #8A8A8A",
"X 	c #8F8F8F",
"Y 	c #8E8E8E",
"Z 	c #F1F1F1",
"` 	c #F3F3F3",
" .	c #373737",
"..	c #363636",
"+.	c #6A6A6A",
"@.	c #8C8C8C",
"#.	c #D6D6D6",
"$.	c #D8D8D8",
"%.	c #939393",
"&.	c #797979",
"*.	c #333333",
"=.	c #3D3D3D",
"-.	c #898989",
";.	c #D2D2D2",
">.	c #EBEBEB",
",.	c #D3D3D3",
"'.	c #404040",
").	c #343434",
"!.	c #575757",
"~.	c #888888",
"{.	c #878787",
"].	c #383838",
"^.	c #6F6F6F",
"/.	c #808080",
"(.	c #7B7B7B",
"_.	c #3A3A3A",
":.	c #737373",
"<.	c #BABABA",
"[.	c #444444",
"}.	c #303030",
"|.	c #454545",
"1.	c #757575",
"2.	c #7C7C7C",
"3.	c #FBFBFB",
"4.	c #E9E9E9",
"5.	c #505050",
"6.	c #313131",
"7.	c #4A4A4A",
"8.	c #7A7A7A",
"9.	c #595959",
"0.	c #2F2F2F",
"a.	c #4D4D4D",
"b.	c #777777",
"c.	c #717171",
"d.	c #C3C3C3",
"e.	c #5F5F5F",
"f.	c #E4E4E4",
"g.	c #6D6D6D",
"h.	c #707070",
"i.	c #E3E3E3",
"j.	c #E6E6E6",
"k.	c #848484",
"l.	c #5B5B5B",
"m.	c #424242",
"n.	c #393939",
"o.	c #474747",
"p.	c #5A5A5A",
"q.	c #666666",
"r.	c #6C6C6C",
"s.	c #6E6E6E",
"t.	c #E2E2E2",
"u.	c #585858",
"v.	c #464646",
"w.	c #4F4F4F",
"x.	c #636363",
"y.	c #E0E0E0",
"z.	c #FAFAFA",
"A.	c #F8F8F8",
"B.	c #F7F7F7",
"C.	c #DDDDDD",
"D.	c #606060",
"E.	c #434343",
"F.	c #2D2D2D",
"G.	c #515151",
"H.	c #545454",
"I.	c #EEEEEE",
"J.	c #676767",
"K.	c #525252",
"L.	c #484848",
"M.	c #555555",
"N.	c #656565",
"O.	c #DFDFDF",
"P.	c #2E2E2E",
"Q.	c #A4A4A4",
"R.	c #5D5D5D",
"S.	c #626262",
"T.	c #3E3E3E",
"U.	c #5C5C5C",
"V.	c #323232",
"                                                                                                ",
"                                                                                                ",
"                                                                                                ",
"                                      . + . @ # $ % & . &                                       ",
"                                * = - % ; > , ' ) ! ~ { ] ^ / (                                 ",
"                            _ : < [ } ~ ; | 1 1 1 1 | { > ~ 2 3 4 :                             ",
"                        5 6 7 2 8 1 9 0 0 0 0 0 0 0 0 0 0 9 1 8 a * b c                         ",
"                      d e ^ f $ g h h h h h h h h h h h h h h g $ i g j k                       ",
"                    l m % # - - - - - - - - - - - - - - - - - - - - ] n b o                     ",
"                  p m 9 0 q 3 3 3 3 3 3 3 3 3 3 3 3 3 3 3 3 3 3 3 3 q 0 @ r s                   ",
"                t u . q * * * * * * * * * * v ; { @ * * * * * * * * * * w % d x                 ",
"              y p / * 7 7 7 7 7 7 7 7 7 = ] z A A B # = 7 7 7 7 7 7 7 7 7 < - C D               ",
"            E y F * G G G G G G G G G G 3 H I I I I J q K G G G G G G G G G < L M N             ",
"            O P / Q Q Q Q Q Q Q Q Q Q F g R I I I I S 0 4 Q Q Q Q Q Q Q Q Q Q 3 T E             ",
"          U V W X X X X X X X X X X X Y 3 Z I I I I ` q : X X X X X X X X X X X G t  .          ",
"          ..+.X : : : : : : : : : : : @._ #.I I I I $._ @.: : : : : : : : : : : %.&. .          ",
"        *.=.@.-.-.-.-.-.-.-.-.-.-.-.-.-.5 Y ;.>.z ,.Y 5 -.-.-.-.-.-.-.-.-.-.-.-.W L '.U         ",
"        ).!.~.c c c c c c c c c c c c c 5 r {.K K {.b 5 c c c c c c c c c c c c c : s U         ",
"        ].^.b b b b b b b b b b b j j j /././././././.j b b b b b b b b b b b b b b (._.        ",
"        E :.6 6 6 6 6 6 6 6 6 6 6 m [ <.<.<.<.<.<.<.@ c 6 6 6 6 6 6 6 6 6 6 6 6 6 6 /.[.        ",
"      }.|.1.m m m m m m m m m m 2.k 3.I I I I I I I 4.X m m m m m m m m m m m m m m 6 5.6.      ",
"      }.7.1.8.8.8.8.8.8.8.8.8.8.&.T 3.I I I I I I I J @.8.(.(.8.8.8.8.8.8.8.8.8.8.8.6 9.6.      ",
"      0.a.:.d d d d d d d d d b.d c.| | d.Z I I I I H ~.&.&.k k b.d d d d d d d d d (.e.}.      ",
"      0.a.c.:.:.:.:.:.:.:.T 1.d d T 1.T r f.I I I I H c d b.b.b.d 1.T :.:.:.:.:.:.m j !.0.      ",
"      0.7.g.^.^.^.^.^.h.c.u :.:.T T 1.1.j i.I I I I j.k.1.d 1.T :.:.u u T d &.k h.l.m.n.0.      ",
"      0.o.+.g.g.g.g.g.^.^.h.c.u :.T T T /.i.I I I I j.b :.T T T 1.k 6 b d o p.V m.N N n.0.      ",
"      0.N e.C q.P +.o r.s.s.h.h.c.c.:.u e t.I I I I H c &.&.8.e b.+.u.y v.[.m.N N N N n.0.      ",
"      0. .o.y V w.t p.e.x.q.+.g.h.T d d 6 y.z.A A.B.C.1.x.D.9.t a.V 7.y o.v.E.m.N N N  .0.      ",
"      F.U m.N N m.[.v.o.7.V D w.G.t H.t C ' I.I.I.I.,.J.K.t G.5.w.a.D 7.L.v.|.E.N N E.U F.      ",
"        *.m.N N [.|.o.y V D M 5.G.K.H.H.C ' I.I.I.I.,.J.H.H.t K.5.w.a.D 7.L.v.|.m.m.E.*.        ",
"        }.O [.m.|.v.L.7.D M 5.G.t H.M.x N.' I.I.I.I.,.l x x M.H.K.5.w.a.V 7.o.v.[.|.=.}.        ",
"        0.U v.|.v.o.7.V a.w.G.t H.x !.u.q.' I.I.I.I.,.l u.u.x M.H.K.5.w.D 7.y v.|.o...0.        ",
"          }.N L.v.L.V D w.5.K.H.x !.9.9.l ) I.I.I.I.,.+.9.9.9.!.M.H.G.5.a.V y o.y m.}.          ",
"          0.].L.L.y V a.5.G.H.M.!.x M.x J.) I.I.I.I.,.P x x x u.x H.K.5.w.a.7.y 7.n.0.          ",
"            6.E a.V D M 5.K.H.x !.G.= / g O.I.I.I.I.y.0 / 7 K.u.!.M.t G.w.a.V M '.6.            ",
"            P.U 7.M a.w.G.t M.!.u.G.4.I.I.I.I.I.I.I.I.I.I.I.H.9.9.x H.K.5.M w.V U P.            ",
"              0.].D 5.5.K.H.x u.9.H.4.I.I.I.I.I.I.I.I.I.I.I.x 9.9.!.M.t 5.G.a.n.0.              ",
"                }.O K.t K.H.x 9.9.H.w ^ Q.Q.h h h h Q.^ ^ - x p.9.!.M.t H.H.=.}.                ",
"                  }.=.w.x M.x 9.p.p.p.R.p D.S.x.C x.D.e.R.l.p.l.9.!.M.!.5.T.}.                  ",
"                    }._.5.9.u.9.l.R.e.s x.N.l P +.P J.C S.D.p U.9.9.p.G._.}.                    ",
"                      0...v.!.l.U.R.e.s x.N.J.l l J.q.C S.D.p R.U.!.v...0.                      ",
"                        0.V.=.D R.e.e.D.S.x.N.J.J.q.C x.s D.D.p a.=.V.0.                        ",
"                            0.6._.o.M.U.D.S.x.C N.C x.D.U.x o._.6.0.                            ",
"                                }.*. .O [.y w.5.5.w.y [.O  .*.6.                                ",
"                                      V.}.6.V.V.V.V.V.}.V.                                      ",
"                                                                                                ",
"                                                                                                ",
"                                                                                                "};
