/* XPM */
static const char * properties_xpm[] = {
"48 48 628 2",
"  	c None",
". 	c #8FB1D0",
"+ 	c #8CAFCF",
"@ 	c #8EB1D0",
"# 	c #93B4D3",
"$ 	c #96B7D4",
"% 	c #98B7D4",
"& 	c #95B5D3",
"* 	c #90B2D1",
"= 	c #8FB1D1",
"- 	c #91B2D1",
"; 	c #7BA2C7",
"> 	c #749EC4",
", 	c #82A8CB",
"' 	c #95B5D4",
") 	c #A8C3DC",
"! 	c #B2CAE1",
"~ 	c #BCD1E6",
"{ 	c #BFD3E7",
"] 	c #C0D4E7",
"^ 	c #BDD2E6",
"/ 	c #B3CBE2",
"( 	c #AAC4DE",
"_ 	c #96B6D5",
": 	c #83A9CC",
"< 	c #76A0C6",
"[ 	c #7DA4C8",
"} 	c #6592BC",
"| 	c #6694BE",
"1 	c #7CA3C9",
"2 	c #A0BDD9",
"3 	c #B9CEE4",
"4 	c #B4CBE5",
"5 	c #A9C2E1",
"6 	c #A3BEDF",
"7 	c #9FBCDF",
"8 	c #9FBBDF",
"9 	c #A3BFE0",
"0 	c #A9C3E2",
"a 	c #B3CAE4",
"b 	c #9AB9D7",
"c 	c #7DA5CA",
"d 	c #6A97C0",
"e 	c #6794BE",
"f 	c #5E8CB7",
"g 	c #5486B5",
"h 	c #779FC6",
"i 	c #9BB9D7",
"j 	c #B0C8E3",
"k 	c #9EBCDE",
"l 	c #8CAFD8",
"m 	c #89ADD7",
"n 	c #8DAFD8",
"o 	c #9FBCDE",
"p 	c #9BBAD8",
"q 	c #7AA2C8",
"r 	c #5889B8",
"s 	c #5F8DB9",
"t 	c #4A7DAD",
"u 	c #5385B4",
"v 	c #A5C0DE",
"w 	c #98B7DB",
"x 	c #87ACD6",
"y 	c #85AAD5",
"z 	c #98B7DC",
"A 	c #A5C1DE",
"B 	c #89ACCF",
"C 	c #5788B7",
"D 	c #4C7FB0",
"E 	c #3870A5",
"F 	c #5284B3",
"G 	c #95B4D6",
"H 	c #96B6DA",
"I 	c #81A7D3",
"J 	c #96B5DA",
"K 	c #9AB8D8",
"L 	c #5889B7",
"M 	c #3B73A7",
"N 	c #2C669D",
"O 	c #5384B3",
"P 	c #8EB0D2",
"Q 	c #89ADD5",
"R 	c #7DA5D1",
"S 	c #7DA4D1",
"T 	c #89ADD6",
"U 	c #93B3D5",
"V 	c #5A8AB7",
"W 	c #2F69A0",
"X 	c #205C96",
"Y 	c #4579AB",
"Z 	c #8FB0D5",
"` 	c #7FA5D2",
" .	c #78A1CF",
"..	c #79A1CF",
"+.	c #91B2D8",
"@.	c #A8C2E0",
"#.	c #A9C3E0",
"$.	c #92B3D8",
"%.	c #7FA6D2",
"&.	c #94B4D7",
"*.	c #4A7DAF",
"=.	c #235F99",
"-.	c #15528E",
";.	c #2D669F",
">.	c #799FC9",
",.	c #749ECE",
"'.	c #739DCD",
").	c #96B5D9",
"!.	c #E6EDF5",
"~.	c #F7F9FC",
"{.	c #E7EEF6",
"].	c #97B6D9",
"^.	c #7AA2D0",
"/.	c #82A7CD",
"(.	c #336CA3",
"_.	c #185591",
":.	c #0A4885",
"<.	c #13528E",
"[.	c #6D97C3",
"}.	c #79A1CE",
"|.	c #709BCB",
"1.	c #6F9BCB",
"2.	c #7FA4CE",
"3.	c #DFE8F2",
"4.	c #FFFFFF",
"5.	c #E1E9F2",
"6.	c #80A5CE",
"7.	c #6F9ACB",
"8.	c #7AA2CF",
"9.	c #79A0C8",
"0.	c #185793",
"a.	c #0C4A88",
"b.	c #054584",
"c.	c #3B70A6",
"d.	c #769FCD",
"e.	c #6C98CA",
"f.	c #6B97C9",
"g.	c #8BABD0",
"h.	c #F1F5F9",
"i.	c #F3F6FA",
"j.	c #8DACD1",
"k.	c #6A96C8",
"l.	c #7DA4CF",
"m.	c #487BAC",
"n.	c #064887",
"o.	c #003E7D",
"p.	c #175490",
"q.	c #6490C0",
"r.	c #6895C7",
"s.	c #6794C6",
"t.	c #81A3CB",
"u.	c #EDF2F7",
"v.	c #EFF3F8",
"w.	c #83A4CB",
"x.	c #6693C6",
"y.	c #729BC6",
"z.	c #1F5B96",
"A.	c #00407F",
"B.	c #003F7D",
"C.	c #3C72A7",
"D.	c #6795C7",
"E.	c #6493C6",
"F.	c #6492C6",
"G.	c #6691C0",
"H.	c #CBD8E8",
"I.	c #CDDAE9",
"J.	c #6791C0",
"K.	c #6392C6",
"L.	c #6E99C9",
"M.	c #5080B1",
"N.	c #004080",
"O.	c #003B79",
"P.	c #084683",
"Q.	c #6492C3",
"R.	c #6090C3",
"S.	c #5F8FC3",
"T.	c #5B8BC0",
"U.	c #6A93C1",
"V.	c #C4D4E5",
"W.	c #E6ECF4",
"X.	c #E6EDF4",
"Y.	c #C6D5E6",
"Z.	c #6B93C1",
"`.	c #6090C4",
" +	c #78A0CB",
".+	c #0B4987",
"++	c #003D7B",
"@+	c #003D7A",
"#+	c #275F97",
"$+	c #5E8EC3",
"%+	c #5C8DC2",
"&+	c #5B8CC2",
"*+	c #5989BF",
"=+	c #608DBF",
"-+	c #7299C5",
";+	c #618DBF",
">+	c #5889BF",
",+	c #6593C5",
"'+	c #34699D",
")+	c #003E7C",
"!+	c #04407C",
"~+	c #4176AC",
"{+	c #5789C0",
"]+	c #5688BF",
"^+	c #5687BF",
"/+	c #5587BE",
"(+	c #5586BE",
"_+	c #5281B2",
":+	c #064380",
"<+	c #0C4782",
"[+	c #457AB2",
"}+	c #5386BE",
"|+	c #5184BC",
"1+	c #A2BDDA",
"2+	c #A3BEDB",
"3+	c #A3BDDA",
"4+	c #96B3D5",
"5+	c #5E8CC0",
"6+	c #5786B9",
"7+	c #124C87",
"8+	c #003872",
"9+	c #134D88",
"0+	c #477CB5",
"a+	c #4F84BC",
"b+	c #4E83BC",
"c+	c #4A7FB8",
"d+	c #FAFBFC",
"e+	c #E1EAF3",
"f+	c #6995C4",
"g+	c #4E84BD",
"h+	c #4F84BE",
"i+	c #4F84BD",
"j+	c #5486BB",
"k+	c #215890",
"l+	c #003974",
"m+	c #18528D",
"n+	c #467DB6",
"o+	c #4B81BA",
"p+	c #4B81BB",
"q+	c #4A81BA",
"r+	c #457BB7",
"s+	c #E0E9F3",
"t+	c #6592C3",
"u+	c #4A82BD",
"v+	c #4B83BE",
"w+	c #4B82BD",
"x+	c #4B82BC",
"y+	c #5286BB",
"z+	c #2B6197",
"A+	c #003771",
"B+	c #1B5590",
"C+	c #437BB6",
"D+	c #467DB8",
"E+	c #467EBA",
"F+	c #467FBA",
"G+	c #457EBB",
"H+	c #4179B6",
"I+	c #A4BFDC",
"J+	c #A4BFDB",
"K+	c #AFC6DF",
"L+	c #EDF2F8",
"M+	c #5F8FC2",
"N+	c #4681BE",
"O+	c #4680BD",
"P+	c #4680BC",
"Q+	c #467FBB",
"R+	c #467EB9",
"S+	c #4D82BA",
"T+	c #32669C",
"U+	c #003770",
"V+	c #1C5590",
"W+	c #4079B5",
"X+	c #427BB6",
"Y+	c #427BB7",
"Z+	c #427CB8",
"`+	c #427DBA",
" @	c #427EBB",
".@	c #427EBC",
"+@	c #407CBB",
"@@	c #417DBA",
"#@	c #3F7CBA",
"$@	c #588ABF",
"%@	c #DBE6F0",
"&@	c #417FBE",
"*@	c #4280BF",
"=@	c #427FBE",
"-@	c #427FBD",
";@	c #427DBB",
">@	c #427CB9",
",@	c #427BB8",
"'@	c #437BB7",
")@	c #4F84BB",
"!@	c #5688BD",
"~@	c #285F98",
"{@	c #003670",
"]@	c #18528F",
"^@	c #3B75B2",
"/@	c #3E77B4",
"(@	c #3E78B5",
"_@	c #3E79B7",
":@	c #3E7AB8",
"<@	c #3E7BBA",
"[@	c #3E7CBB",
"}@	c #3E7DBD",
"|@	c #3E7DBE",
"1@	c #3E7EBF",
"2@	c #3D7EBF",
"3@	c #5488C0",
"4@	c #DAE5F0",
"5@	c #DEE7F2",
"6@	c #588BC1",
"7@	c #3D7EBE",
"8@	c #3E7FBF",
"9@	c #3E7CBC",
"0@	c #3E7AB9",
"a@	c #437CB8",
"b@	c #477EB8",
"c@	c #4A80B8",
"d@	c #497FB8",
"e@	c #3E78B2",
"f@	c #2164A6",
"g@	c #024D98",
"h@	c #004286",
"i@	c #134F8D",
"j@	c #3672B0",
"k@	c #3A75B2",
"l@	c #3A75B4",
"m@	c #3A77B5",
"n@	c #3A78B7",
"o@	c #3A79B9",
"p@	c #3A7ABB",
"q@	c #3A7BBC",
"r@	c #3A7CBE",
"s@	c #3A7DBF",
"t@	c #3A7EC0",
"u@	c #3A7DC0",
"v@	c #5187BF",
"w@	c #D9E4F0",
"x@	c #DDE7F1",
"y@	c #5489C0",
"z@	c #397DC0",
"A@	c #4380BE",
"B@	c #4D87C0",
"C@	c #548AC1",
"D@	c #457EB9",
"E@	c #3674B1",
"F@	c #2163A6",
"G@	c #0E559D",
"H@	c #004C98",
"I@	c #004B97",
"J@	c #2868AA",
"K@	c #2F6DAD",
"L@	c #316FAE",
"M@	c #3471AF",
"N@	c #3573B1",
"O@	c #3674B4",
"P@	c #3675B6",
"Q@	c #3677B8",
"R@	c #3677B9",
"S@	c #3679BB",
"T@	c #367ABD",
"U@	c #367BBF",
"V@	c #367BC0",
"W@	c #367DC2",
"X@	c #357CC1",
"Y@	c #4D86BF",
"Z@	c #D8E4F0",
"`@	c #DEE8F2",
" #	c #588DC2",
".#	c #3F83C5",
"+#	c #4184C4",
"@#	c #4787C5",
"##	c #3E81C1",
"$#	c #2D74B9",
"%#	c #1563AE",
"&#	c #0355A5",
"*#	c #0051A1",
"=#	c #004F9E",
"-#	c #004D9A",
";#	c #004C97",
">#	c #004284",
",#	c #00366F",
"'#	c #014080",
")#	c #07519B",
"!#	c #0B539C",
"~#	c #0E559E",
"{#	c #1159A1",
"]#	c #165DA5",
"^#	c #1D64AB",
"/#	c #2269AF",
"(#	c #266DB3",
"_#	c #2870B7",
":#	c #2C74BA",
"<#	c #2E77BD",
"[#	c #327AC0",
"}#	c #367EC2",
"|#	c #3880C5",
"1#	c #4E87C0",
"2#	c #D6E2ED",
"3#	c #FAFAFA",
"4#	c #F9F9F9",
"5#	c #F8F8F8",
"6#	c #F7F7F7",
"7#	c #D3DEEA",
"8#	c #407EBB",
"9#	c #1B6FBD",
"0#	c #176DBC",
"a#	c #0F66B8",
"b#	c #0760B3",
"c#	c #005AAE",
"d#	c #0058AC",
"e#	c #0056A9",
"f#	c #0055A7",
"g#	c #0053A3",
"h#	c #004E9C",
"i#	c #004C99",
"j#	c #004081",
"k#	c #00346F",
"l#	c #004D99",
"m#	c #004D9B",
"n#	c #0051A2",
"o#	c #0053A4",
"p#	c #0057AB",
"q#	c #0059AE",
"r#	c #005CB1",
"s#	c #025FB4",
"t#	c #0361B7",
"u#	c #0262B9",
"v#	c #0161BA",
"w#	c #256FB5",
"x#	c #C4D2E0",
"y#	c #EEEEEE",
"z#	c #C8D5E1",
"A#	c #2971B5",
"B#	c #0060B9",
"C#	c #0061BA",
"D#	c #005FB7",
"E#	c #005EB5",
"F#	c #005CB3",
"G#	c #005AAF",
"H#	c #0059AD",
"I#	c #0057AA",
"J#	c #0054A6",
"K#	c #0052A3",
"L#	c #00509F",
"M#	c #004E9B",
"N#	c #003B77",
"O#	c #004F9D",
"P#	c #0051A0",
"Q#	c #005BB1",
"R#	c #005DB4",
"S#	c #005FB6",
"T#	c #0062BB",
"U#	c #0062BC",
"V#	c #256FB6",
"W#	c #C3D2E0",
"X#	c #C8D5E2",
"Y#	c #2971B7",
"Z#	c #0063BD",
"`#	c #0060B8",
" $	c #0056A8",
".$	c #0054A5",
"+$	c #0052A1",
"@$	c #00509E",
"#$	c #004E9A",
"$$	c #003B78",
"%$	c #003873",
"&$	c #00468B",
"*$	c #004F9F",
"=$	c #0052A2",
"-$	c #0054A7",
";$	c #005BB0",
">$	c #0061BB",
",$	c #0064C0",
"'$	c #0065C1",
")$	c #2570B8",
"!$	c #2972B8",
"~$	c #0064BE",
"{$	c #005EB6",
"]$	c #005CB2",
"^$	c #0058AB",
"/$	c #0050A0",
"($	c #00478D",
"_$	c #005AB0",
":$	c #0065C0",
"<$	c #0066C3",
"[$	c #0067C3",
"}$	c #2571BA",
"|$	c #C3D2E1",
"1$	c #2973B9",
"2$	c #0067C4",
"3$	c #0064BF",
"4$	c #005EB4",
"5$	c #0055A6",
"6$	c #0053A5",
"7$	c #004C95",
"8$	c #0069C6",
"9$	c #0069C7",
"0$	c #2573BC",
"a$	c #C3D3E1",
"b$	c #2975BC",
"c$	c #0068C4",
"d$	c #0066C2",
"e$	c #0055A8",
"f$	c #004D98",
"g$	c #004182",
"h$	c #2572BC",
"i$	c #C3D3E2",
"j$	c #2974BB",
"k$	c #0057A9",
"l$	c #0056A7",
"m$	c #004283",
"n$	c #004A91",
"o$	c #709FCC",
"p$	c #72A1CD",
"q$	c #85ADD1",
"r$	c #D8E0E7",
"s$	c #DAE1E8",
"t$	c #88ADD1",
"u$	c #72A1CC",
"v$	c #72A0CC",
"w$	c #025FB6",
"x$	c #005FB8",
"y$	c #004B93",
"z$	c #003570",
"A$	c #005BB2",
"B$	c #0067C5",
"C$	c #005FB9",
"D$	c #E7E9EB",
"E$	c #0562B8",
"F$	c #0068C5",
"G$	c #005CB4",
"H$	c #003D7C",
"I$	c #004183",
"J$	c #0059AC",
"K$	c #0068C6",
"L$	c #E7E9EC",
"M$	c #0564BB",
"N$	c #0063BE",
"O$	c #78A8D4",
"P$	c #7BAAD5",
"Q$	c #7BABD6",
"R$	c #7BABD7",
"S$	c #7BACD8",
"T$	c #7BACD9",
"U$	c #7BAAD6",
"V$	c #7BA9D4",
"W$	c #0264BD",
"X$	c #006AC8",
"Y$	c #00478C",
"Z$	c #005DB3",
"`$	c #0063BF",
" %	c #006AC9",
".%	c #006ACA",
"+%	c #006DCE",
"@%	c #006FD1",
"#%	c #0071D4",
"$%	c #0073D8",
"%%	c #0075DB",
"&%	c #0076DB",
"*%	c #0074D9",
"=%	c #0071D5",
"-%	c #0070D2",
";%	c #006BCB",
">%	c #0066C4",
",%	c #00488E",
"'%	c #004385",
")%	c #0068C7",
"!%	c #006BCA",
"~%	c #006DCD",
"{%	c #0072D6",
"]%	c #0075DA",
"^%	c #0077DE",
"/%	c #007BE2",
"(%	c #007CE6",
"_%	c #007DE7",
":%	c #007CE4",
"<%	c #0079E0",
"[%	c #0076DC",
"}%	c #0073D7",
"|%	c #006ECF",
"1%	c #006CCC",
"2%	c #0069C8",
"3%	c #004386",
"4%	c #003F7E",
"5%	c #00529E",
"6%	c #0066C1",
"7%	c #0070D1",
"8%	c #0072D5",
"9%	c #0075D9",
"0%	c #0077DD",
"a%	c #007AE2",
"b%	c #007BE3",
"c%	c #007AE1",
"d%	c #0078DE",
"e%	c #0071D3",
"f%	c #00529F",
"g%	c #003A76",
"h%	c #00478B",
"i%	c #0070D3",
"j%	c #0079DF",
"k%	c #006ED0",
"l%	c #005AAD",
"m%	c #004486",
"n%	c #0053A0",
"o%	c #006CCA",
"p%	c #0074D8",
"q%	c #006CCB",
"r%	c #0065BF",
"s%	c #0053A1",
"t%	c #004487",
"u%	c #003975",
"v%	c #013872",
"w%	c #003B75",
"x%	c #00407E",
"y%	c #004689",
"z%	c #004F9A",
"A%	c #0056A6",
"B%	c #005CB0",
"C%	c #005EB3",
"D%	c #00468A",
"E%	c #013972",
"F%	c #023A73",
"G%	c #003871",
"H%	c #003973",
"I%	c #003A73",
"J%	c #003A74",
"K%	c #023A72",
"                                                                                                ",
"                                                                                                ",
"                                                                                                ",
"                                      . + @ # $ % & * = -                                       ",
"                                ; > , ' ) ! ~ { ] ^ / ( _ : < [                                 ",
"                            } | 1 2 3 4 5 6 7 8 8 7 9 0 a / b c d e                             ",
"                        f g h i j k l m m m m m m m m m m n o j p q r s                         ",
"                      t u : v w x y y y y y y y y y y y y y y x z A B C D                       ",
"                    E F G H I I I I I I I I I I I I I I I I I I I I J K L M                     ",
"                  N O P Q R S S S S S S S S S S S S S S S S S S S S R T U V W                   ",
"                X Y Z `  . . . . . . . . ...+.@.#.$... . . . . . . . . .%.&.*.=.                ",
"              -.;.>...,.,.,.,.,.,.,.,.,.'.).!.~.~.{.].'.,.,.,.,.,.,.,.,.,.^./.(._.              ",
"            :.<.[.}.|.|.|.|.|.|.|.|.|.1.2.3.4.4.4.4.5.6.7.|.|.|.|.|.|.|.|.|.8.9.0.a.            ",
"            b.c.d.e.e.e.e.e.e.e.e.e.e.f.g.h.4.4.4.4.i.j.k.e.e.e.e.e.e.e.e.e.e.l.m.n.            ",
"          o.p.q.r.r.r.r.r.r.r.r.r.r.r.s.t.u.4.4.4.4.v.w.x.r.r.r.r.r.r.r.r.r.r.r.y.z.A.          ",
"          B.C.D.E.E.E.E.E.E.E.E.E.E.E.F.G.H.4.4.4.4.I.J.K.E.E.E.E.E.E.E.E.E.E.E.L.M.N.          ",
"        O.P.Q.R.S.S.S.S.S.S.S.S.S.S.S.S.T.U.V.W.X.Y.Z.T.S.S.S.S.S.S.S.S.S.S.S.S.`. +.+++        ",
"        @+#+$+%+%+%+%+%+%+%+%+%+%+%+%+%+&+*+=+-+-+;+>+&+%+%+%+%+%+%+%+%+%+%+%+%+%+,+'+)+        ",
"        !+~+{+{+{+{+{+{+{+{+{+{+{+]+]+^+/+/+(+(+(+/+/+^+{+{+{+{+{+{+{+{+{+{+{+{+{+{+_+:+        ",
"        <+[+}+}+}+}+}+}+}+}+}+}+}+|+1+2+3+3+3+3+3+3+4+5+}+}+}+}+}+}+}+}+}+}+}+}+}+}+6+7+        ",
"      8+9+0+a+a+a+a+a+a+a+a+a+a+b+c+d+4.4.4.4.4.4.4.e+f+g+h+i+a+a+a+a+a+a+a+a+a+a+a+j+k+l+      ",
"      8+m+n+o+o+o+o+o+o+o+o+o+p+q+r+d+4.4.4.4.4.4.4.s+t+u+v+w+x+p+o+o+o+o+o+o+o+o+o+y+z+l+      ",
"      A+B+C+D+D+D+D+D+D+D+D+E+F+G+H+I+J+K+L+4.4.4.4.3.M+N+N+O+P+Q+E+R+D+D+D+D+D+D+D+S+T+8+      ",
"      U+V+W+X+X+X+X+X+Y+Y+Z+`+ @.@+@@@#@$@%@4.4.4.4.3.%+&@*@=@-@ @;@>@,@Y+X+X+X+'@)@!@~@A+      ",
"      {@]@^@/@/@/@/@/@(@_@:@<@[@}@|@1@2@3@4@4.4.4.4.5@6@7@8@1@|@9@[@0@:@a@b@c@d@e@f@g@h@U+      ",
"      {@i@j@k@k@k@k@l@m@n@o@p@q@r@s@t@u@v@w@4.4.4.4.x@y@z@t@s@s@7@A@B@C@D@E@F@G@g@H@I@h@{@      ",
"      {@a.J@K@L@M@N@O@P@Q@R@S@T@U@V@W@X@Y@Z@4.4.4.4.`@ #.#.#+#@###$#%#&#*#=#-#H@H@H@;#>#{@      ",
"      ,#'#)#!#~#{#]#^#/#(#_#:#<#[#}#|#|#1#2#3#4#5#6#7#8#9#0#a#b#c#d#e#f#g#*#h#-#H@H@i#j#,#      ",
"      k#++l#H@H@m#=#n#o#e#p#q#r#s#t#u#v#w#x#y#y#y#y#z#A#B#C#D#E#F#G#H#I#J#K#L#h#H@H@M#o.k#      ",
"        N#l#i#i#O#P#o#f#p#q#Q#R#S#B#T#U#V#W#y#y#y#y#X#Y#U#Z#C#`#E#F#G#H# $.$+$@$-#-##$$$        ",
"        %$&$*$m#L#=$-$e#q#;$R#D#>$Z#,$'$)$W#y#y#y#y#X#!$'$'$~$U#B#{$]$G#^$ $o#*#O#/$($%$        ",
"        {@)+K#L#*#o# $d#_$F#D#C#Z#:$<$[$}$|$y#y#y#y#X#1$[$2$'$3$T#`#4$r#H#I#5$=$/$6$B.{@        ",
"          %$7$.$K#J#p#q#]$E#B#U#:$<$8$9$0$a$y#y#y#y#X#b$9$9$c$d$~$T#D#R#G#d#e$6$f#f$%$          ",
"          ,#g$.$.$f#d#G#R#D#T#3$d$:$,$'$h$i$y#y#y#y#X#j$:$:$'$[$:$Z#B#{$r#c#k$f#l$m$,#          ",
"            l+n$G#p#H#Q#{$B#Z#'$<$D#o$p$q$r$y#y#y#y#s$t$u$v$w$2$d$3$>$x$F#G#d#Q#y$l+            ",
"            z$++k$A$G#]$D#C#3$d$B$C$D$y#y#y#y#y#y#y#y#y#y#y#E$F$c$'$U#`#R#Q#G$^$H$z$            ",
"              {@I$J${$R#`#U#:$2$K$T#L$y#y#y#y#y#y#y#y#y#y#y#M$9$K$d$N$C#E#D#c#>#{@              ",
"                %$&$B#C#B#U#'$F$9$Z#O$P$Q$R$S$T$S$S$R$U$P$V$W$X$9$<$N$>$T#T#Y$%$                ",
"                  8+($Z$'$`$'$F$ % %.%+%@%#%$%%%&%*%=%-%+%;%.%;%9$>%,$d$E#,%8+                  ",
"                    %$'%E#)%2$K$!%~%-%{%]%^%/%(%_%:%<%[%}%#%|%1%9$K$2%S#3%%$                    ",
"                      {@4%5%6%;%1%~%7%8%9%0%<%a%b%c%d%&%}%e%|%~%1%d$f%4%{@                      ",
"                        {@g%h%J$+%i%i%#%$%%%^%j%j%d%[%*%{%#%=%k%l%Y$g%{@                        ",
"                            U+l+m%n%~$o%e%$%%%[%0%[%p%#%q%r%s%t%u%A+                            ",
"                                v%w%x%y%z%A%B%C%C%B%A%z%D%A.w%E%                                ",
"                                      F%G%H%I%J%J%J%I%G%K%                                      ",
"                                                                                                ",
"                                                                                                ",
"                                                                                                "};
