/* XPM */
static const char * replaced_xpm[] = {
"16 16 37 1",
" 	c None",
".	c #494949",
"+	c #3E3E3E",
"@	c #2E2E2E",
"#	c #1B1B1B",
"$	c #0B0B0B",
"%	c #6C6C6C",
"&	c #6F6F6F",
"*	c #CECECE",
"=	c #949494",
"-	c #6D6D6D",
";	c #CACACA",
">	c #F7F7F8",
",	c #F4F4F5",
"'	c #969696",
")	c #929292",
"!	c #A6A6A6",
"~	c #A7A7A7",
"{	c #F0F0F1",
"]	c #EFEFF0",
"^	c #EEEEEF",
"/	c #BFBFBF",
"(	c #A4A4A4",
"_	c #EEEEEE",
":	c #EAEAEB",
"<	c #EDEDEE",
"[	c #CFCFCF",
"}	c #787878",
"|	c #E5E5E5",
"1	c #E8E8E9",
"2	c #E9E9EA",
"3	c #DDDDDE",
"4	c #AEAEAE",
"5	c #D6D6D6",
"6	c #DCDCDC",
"7	c #F1F1F1",
"8	c #FFFFFF",
"8888888888888888",
"888..88888888888",
"88+++88888888888",
"88@8@88888888888",
"88####8888888888",
"8$$88$8888888888",
"8888888888888888",
"888%888888888888",
"88&*=%8-88888888",
"8%;>,')!88888888",
"88~,{]^/%888...8",
"88%(_:<[%888+8+8",
"888}|123%888@@@8",
"888456|7%888#8##",
"8888%%%%8888$$$8",
"8888888888888888"};
