/* XPM */
static const char * save_xpm[] = {
"48 48 431 2",
"  	c None",
". 	c #4CA21B",
"+ 	c #4CA61A",
"@ 	c #51A520",
"# 	c #58AB28",
"$ 	c #58AA29",
"% 	c #50A41E",
"& 	c #4DA61B",
"* 	c #5BA82B",
"= 	c #A6DE8D",
"- 	c #E6FADE",
"; 	c #E4FBDC",
"> 	c #E3FBDB",
", 	c #CBF8BC",
"' 	c #D5F8CA",
") 	c #BFF0AD",
"! 	c #94D976",
"~ 	c #64B038",
"{ 	c #4EA41B",
"] 	c #4DA419",
"^ 	c #90CE71",
"/ 	c #E4FADC",
"( 	c #E3FADB",
"_ 	c #CBF1BC",
": 	c #9DE381",
"< 	c #B2ED9B",
"[ 	c #D2F9C5",
"} 	c #90F070",
"| 	c #60E933",
"1 	c #CCF8BD",
"2 	c #A9E691",
"3 	c #61AF34",
"4 	c #4EA31A",
"5 	c #86CA64",
"6 	c #E2F9DA",
"7 	c #B0DC9A",
"8 	c #53A525",
"9 	c #409912",
"0 	c #3F9612",
"a 	c #469F16",
"b 	c #5CAD2F",
"c 	c #ADEC96",
"d 	c #ACF395",
"e 	c #41E50B",
"f 	c #42E50D",
"g 	c #82EE5F",
"h 	c #C8F6B8",
"i 	c #85CE63",
"j 	c #4DA31A",
"k 	c #4CA31A",
"l 	c #4DCA1A",
"m 	c #5EAB31",
"n 	c #3A910F",
"o 	c #2B8606",
"p 	c #2B8506",
"q 	c #358D0B",
"r 	c #4CA21C",
"s 	c #9BE67F",
"t 	c #96F078",
"u 	c #3DE406",
"v 	c #4EE51C",
"w 	c #B2F39C",
"x 	c #9CDF81",
"y 	c #4FA51D",
"z 	c #4EA21B",
"A 	c #4CA21A",
"B 	c #34930A",
"C 	c #2E9006",
"D 	c #339309",
"E 	c #4DA41C",
"F 	c #B3F09D",
"G 	c #5FE732",
"H 	c #3DE106",
"I 	c #3DDF06",
"J 	c #42DF0C",
"K 	c #9EEE83",
"L 	c #99DE7D",
"M 	c #4FA31C",
"N 	c #4EA01C",
"O 	c #38A00A",
"P 	c #34A007",
"Q 	c #35A007",
"R 	c #4C9F1A",
"S 	c #66B83B",
"T 	c #B2F29C",
"U 	c #40DE0A",
"V 	c #3DDC07",
"W 	c #3EDA07",
"X 	c #41DA0B",
"Y 	c #A1EC86",
"Z 	c #83CD60",
"` 	c #4EA41A",
" .	c #9B9B9B",
"..	c #9A9A9A",
"+.	c #999999",
"@.	c #46A513",
"#.	c #39AF07",
"$.	c #3FAB0C",
"%.	c #4DA01B",
"&.	c #4DA51A",
"*.	c #9AE47E",
"=.	c #6DE343",
"-.	c #3ED907",
";.	c #3ED707",
">.	c #3ED608",
",.	c #48D615",
"'.	c #AFEC99",
").	c #5FAE32",
"!.	c #9C9C9C",
"~.	c #A2A2A2",
"{.	c #D0D0D0",
"].	c #EEEEEE",
"^.	c #FBFBFB",
"/.	c #868686",
"(.	c #8B8B8B",
"_.	c #909090",
":.	c #8F8F8F",
"<.	c #929292",
"[.	c #969696",
"}.	c #4BA218",
"|.	c #40B50B",
"1.	c #3CBB07",
"2.	c #45AE10",
"3.	c #6EBD44",
"4.	c #A0EB85",
"5.	c #3ED408",
"6.	c #3FD308",
"7.	c #3FD108",
"8.	c #64D938",
"9.	c #9CDE7E",
"0.	c #ADADAD",
"a.	c #DADADA",
"b.	c #F3F3F3",
"c.	c #FCFCFC",
"d.	c #F8F8F8",
"e.	c #858585",
"f.	c #848484",
"g.	c #838383",
"h.	c #44AB0E",
"i.	c #4FA21C",
"j.	c #B0EB9A",
"k.	c #4FD71C",
"l.	c #3FD009",
"m.	c #3FCE09",
"n.	c #3FCD09",
"o.	c #A1E686",
"p.	c #64AF38",
"q.	c #B9B9B9",
"r.	c #E4E4E4",
"s.	c #F7F7F7",
"t.	c #FAFAFA",
"u.	c #F6F6F6",
"v.	c #F5F5F5",
"w.	c #7B7B7B",
"x.	c #4A4A4A",
"y.	c #3B3B3B",
"z.	c #474747",
"A.	c #828282",
"B.	c #4DA41A",
"C.	c #92D872",
"D.	c #6EDB45",
"E.	c #3FCB09",
"F.	c #40CA0A",
"G.	c #6FD647",
"H.	c #8BD06A",
"I.	c #55A027",
"J.	c #9E9E9E",
"K.	c #C8C8C8",
"L.	c #EBEBEB",
"M.	c #F4F4F4",
"N.	c #3E3E3E",
"O.	c #3F3F3F",
"P.	c #5C5C5C",
"Q.	c #818181",
"R.	c #77C152",
"S.	c #8AE069",
"T.	c #40C80A",
"U.	c #40C70A",
"V.	c #4DC91B",
"W.	c #A5E08B",
"X.	c #54A325",
"Y.	c #D4D4D4",
"Z.	c #F1F1F1",
"`.	c #F9F9F9",
" +	c #545454",
".+	c #5F5F5F",
"++	c #64B338",
"@+	c #9CE380",
"#+	c #40C60A",
"$+	c #40C50A",
"%+	c #40C30B",
"&+	c #41C20B",
"*+	c #A3E088",
"=+	c #5CA92F",
"-+	c #EAF2E6",
";+	c #F2F2F2",
">+	c #1D1D1D",
",+	c #4EA11B",
"'+	c #4EA11C",
")+	c #5AA82C",
"!+	c #A4E48A",
"~+	c #41C00B",
"{+	c #41BF0B",
"]+	c #94DA76",
"^+	c #63AF38",
"/+	c #53A323",
"(+	c #53A322",
"_+	c #F0F0F0",
":+	c #808080",
"<+	c #B0E79A",
"[+	c #B2E89C",
"}+	c #B2E89B",
"|+	c #B0E69A",
"1+	c #AFE699",
"2+	c #ADE597",
"3+	c #41BD0B",
"4+	c #41BC0C",
"5+	c #91D772",
"6+	c #A7DE8E",
"7+	c #A6DC8C",
"8+	c #A5DC8C",
"9+	c #A4DA8A",
"0+	c #A3D989",
"a+	c #51A420",
"b+	c #91B878",
"c+	c #DFDFDF",
"d+	c #EFEFEF",
"e+	c #6ABB41",
"f+	c #A0E385",
"g+	c #47C713",
"h+	c #41BA0C",
"i+	c #42B90C",
"j+	c #42B70C",
"k+	c #42B60D",
"l+	c #42B40D",
"m+	c #43B40F",
"n+	c #8BCF69",
"o+	c #71BB4A",
"p+	c #6AAA43",
"q+	c #C6C7C6",
"r+	c #C6C6C6",
"s+	c #D8D8D8",
"t+	c #E8E8E8",
"u+	c #EDEDED",
"v+	c #222222",
"w+	c #7F7F7F",
"x+	c #4DA31B",
"y+	c #83CD5F",
"z+	c #86D863",
"A+	c #41BD0C",
"B+	c #42B30D",
"C+	c #43B10D",
"D+	c #6EC245",
"E+	c #87C965",
"F+	c #54A324",
"G+	c #B9C1B4",
"H+	c #C3C3C3",
"I+	c #C2C2C2",
"J+	c #D7D7D7",
"K+	c #ECECEC",
"L+	c #757575",
"M+	c #383838",
"N+	c #7E7E7E",
"O+	c #52A31F",
"P+	c #96D978",
"Q+	c #66CA3C",
"R+	c #43B00E",
"S+	c #54B524",
"T+	c #92CF73",
"U+	c #5BA72D",
"V+	c #9CB78C",
"W+	c #C0C0C0",
"X+	c #BFBFBF",
"Y+	c #BEBEBE",
"Z+	c #EAEAEA",
"`+	c #5FAC33",
" @	c #9ADA7E",
".@	c #4FBE1D",
"+@	c #43AF0E",
"@@	c #43AE0E",
"#@	c #46AD12",
"$@	c #8ACB69",
"%@	c #6AB341",
"&@	c #75AB55",
"*@	c #BDBDBD",
"=@	c #BCBCBC",
"-@	c #BBBBBB",
";@	c #BABABA",
">@	c #CACACA",
",@	c #E5E5E5",
"'@	c #E9E9E9",
")@	c #7D7D7D",
"!@	c #619E3C",
"~@	c #72BE4A",
"{@	c #8BD16A",
"]@	c #43B50F",
"^@	c #42B20D",
"/@	c #43AC0E",
"(@	c #43AB0E",
"_@	c #71BE49",
":@	c #7CBF57",
"<@	c #58A22B",
"[@	c #B6BAB3",
"}@	c #B8B8B8",
"|@	c #B7B7B7",
"1@	c #D6D6D6",
"2@	c #E7E7E7",
"3@	c #E6E6E6",
"4@	c #91978D",
"5@	c #59A72A",
"6@	c #82C85F",
"7@	c #71C448",
"8@	c #44A90F",
"9@	c #59B229",
"0@	c #8BC86B",
"a@	c #56A527",
"b@	c #A1B396",
"c@	c #B6B6B6",
"d@	c #B5B5B5",
"e@	c #B4B4B4",
"f@	c #B3B3B3",
"g@	c #CECECE",
"h@	c #7C7C7C",
"i@	c #CDE3C0",
"j@	c #59A72B",
"k@	c #8ECD6E",
"l@	c #58B529",
"m@	c #44A80F",
"n@	c #49A816",
"o@	c #87C565",
"p@	c #64AC38",
"q@	c #81AA67",
"r@	c #B2B2B2",
"s@	c #B1B1B1",
"t@	c #B0B0B0",
"u@	c #AFAFAF",
"v@	c #DDDDDD",
"w@	c #E3E3E3",
"x@	c #313131",
"y@	c #2F2F2F",
"z@	c #424242",
"A@	c #95C378",
"B@	c #65B03A",
"C@	c #8AC968",
"D@	c #49AA16",
"E@	c #44A60F",
"F@	c #44A50F",
"G@	c #74BA4D",
"H@	c #75B74E",
"I@	c #5FA235",
"J@	c #9E9F9D",
"K@	c #989898",
"L@	c #919191",
"M@	c #939393",
"N@	c #A0A0A0",
"O@	c #ABABAB",
"P@	c #ACACAC",
"Q@	c #D3D3D3",
"R@	c #E2E2E2",
"S@	c #E1E1E1",
"T@	c #292929",
"U@	c #4D4D4D",
"V@	c #ECEEEB",
"W@	c #65AC3B",
"X@	c #72B84A",
"Y@	c #77BE51",
"Z@	c #44A310",
"`@	c #5DAE30",
" #	c #86C164",
".#	c #54A124",
"+#	c #848F7E",
"@#	c #8D8D8D",
"##	c #8E8E8E",
"$#	c #A6A6A6",
"%#	c #A7A7A7",
"&#	c #CDCDCD",
"*#	c #E0E0E0",
"=#	c #4C4C4C",
"-#	c #7A7A7A",
";#	c #D6E3CE",
">#	c #56A526",
",#	c #82C05E",
"'#	c #6AB340",
")#	c #8AC269",
"!#	c #5FA733",
"~#	c #749462",
"{#	c #DEDEDE",
"]#	c #ACCE97",
"^#	c #5FA932",
"/#	c #90C572",
"(#	c #71B14A",
"_#	c #5F9A3D",
":#	c #DCDCDC",
"<#	c #DBDBDB",
"[#	c #77B252",
"}#	c #56A426",
"|#	c #539E25",
"1#	c #898E85",
"2#	c #D9D9D9",
"3#	c #4B4B4B",
"4#	c #797979",
"5#	c #D8DED4",
"6#	c #7C926F",
"7#	c #D5D5D5",
"8#	c #787878",
"9#	c #949494",
"0#	c #D2D2D2",
"a#	c #D1D1D1",
"b#	c #979797",
"c#	c #A5A5A5",
"d#	c #C9C9C9",
"e#	c #9F9F9F",
"f#	c #CFCFCF",
"g#	c #9D9D9D",
"h#	c #CCCCCC",
"i#	c #A3A3A3",
"j#	c #A8A8A8",
"k#	c #C7C7C7",
"l#	c #CBCBCB",
"m#	c #C5C5C5",
"n#	c #C1C1C1",
"o#	c #AEAEAE",
"p#	c #888888",
"q#	c #959595",
"r#	c #303030",
"s#	c #2D2D2D",
"t#	c #353535",
"u#	c #434343",
"v#	c #898989",
"w#	c #8A8A8A",
"x#	c #8C8C8C",
"          . + @ # $ % &                                                                         ",
"        * = - ; > , ' ) ! ~ {                                                                   ",
"    ] ^ / ( _ : < [ } | } 1 2 3 4                                                               ",
"    5 6 7 8 9 0 a b c d e f g h i j                                                             ",
"  k l m n o p p p q r s t u u v w x y                                                           ",
"  z A B C C C C C C D E F G H I J K L M                                                         ",
"N N O P P P P P P P Q R S T U V W X Y Z `                                  ...+. ...            ",
"N @.#.#.#.#.#.#.#.#.$.%.&.*.=.-.;.>.,.'.).                          !.~.{.].^./.(._.:.:.<.[.[.  ",
"}.|.1.1.1.1.1.1.1.1.2.    3.4.>.5.6.7.8.9.j                 +...0.a.b.c.^.d.c./.e.f.f.f.g.g.[.  ",
"                    h.    i.j.k.7.l.m.n.o.p.          !. .q.r.s.c.t.d.u.v.v.c.e.f.w.x.y.z.A.[.  ",
"                          B.C.D.m.n.E.F.G.H.I.  !.J.K.L.t.c.t.d.u.u.v.v.v.M.c.f.f.N.y.O.P.Q.[.  ",
"                            R.S.E.F.T.U.V.W.X.Y.Z.c.c.`.d.u.u.u.v.v.M.b.b.b.^.f.g.y.y. +.+Q.[.  ",
"                            ++@+T.#+$+%+&+*+=+-+`.s.s.u.u.v.v.v.M.b.b.b.;+Z.^.g.g.>+>+.+.+Q.[.  ",
"                N N ,+,+'+N )+!+$+%+&+~+{+]+^+N /+/+(+N N ;+M.b.b.;+Z.Z.Z._+t.g.g.>+>+.+.+:+[.  ",
"                  z <+[+}+|+1+2+&+~+{+3+4+5+6+7+8+9+0+a+b+c+L.;+Z.Z._+_+d+d+t.A.A.>+>+.+.+:+[.  ",
"                  4 e+f+g+%+&+~+{+3+4+h+i+j+k+l+m+n+o+p+q+r+s+t+_+d+d+].].u+t.A.Q.v+>+.+.+w+[.  ",
"                    x+y+z+~+{+A+4+h+i+j+k+l+B+C+D+E+F+G+H+H+I+J+L.].].u+K+L.`.Q.Q.L+M+.+.+N+[.  ",
"                      O+P+Q+4+h+i+j+k+l+B+C+R+S+T+U+V+W+W+X+Y+X+a.u+K+L.L.Z+d.Q.:+:+w+w+N+N+[.  ",
"                        `+ @.@j+k+l+B+C++@@@#@$@%@&@*@*@=@-@-@;@>@,@L.Z+'@t+s.:+:+w+N+N+N+)@[.  ",
"                        !@~@{@]@^@C++@@@/@(@_@:@<@[@;@q.}@}@|@|@|@1@'@t+2@3@u.:+w+N+N+N+)@)@[.  ",
"                        4@5@6@7@+@@@/@(@8@9@0@a@b@|@c@c@d@e@e@f@f@g@3@3@,@,@v.w+N+N+N+)@)@h@[.  ",
"                        [.i@j@k@l@(@8@m@n@o@p@q@e@f@f@r@r@s@t@t@u@-@v@r.w@w@M.N+N+x@y@x@z@h@[.  ",
"                        [.t.A@B@C@D@E@F@G@H@I@J@K@<.L@M@+.N@O@P@O@t@Q@w@R@S@;+N+)@T@T@x.U@w.[.  ",
"                        [.`.V@W@X@Y@Z@`@ #.#+#@#@#@#@#@#@#@###+.$#%#&#S@*#c+Z.)@)@>+>+U@=#-#[.  ",
"                        [.d.d+;#>#,#'#)#!#~#@#@#@#@#@#@#@#@#@#@###!.K.c+{#v@d+)@h@>+>+=#=#-#[.  ",
"                        [.s.].u+]#^#/#(#_#@#@#@#@#@#@#@#@#@#@#@#@#@#X+v@:#<#].h@h@>+>+=#=#-#[.  ",
"                        [.u.K+K+t+[#}#|#1#@#@#@#@#@#@#@#@#@#@#@#@#@#}@s+a.2#K+h@h@>+>+=#3#4#[.  ",
"                        [.v.L.2@r.5#N 6#@#@#@#@#@#@#@#@#@#@#@#@#@#@#;@7#1@J+Z+h@w.>+>+3#3#4#[.  ",
"                        [.M.2@r.w@R@*@@#@#@#@#@#@#@#@#@#@#@#@#@#@#@#-@Y.Q@Y.t+w.-#>+>+3#3#8#[.  ",
"                        [.;+r.w@R@S@X+@#@#@#@#@#_.9#....K@@#@#@#@#@#*@Q@0#a#3@-#-#>+>+x.x.8#[.  ",
"                        [._+w@R@S@Q@f@9#@###L@..f@a.;+b. .@#@#@#@#9#I+0#a#{.,@-#4#>+>+x.x.8#[.  ",
"                        [.d+R@S@Y.N@>@O@b#c#d#K+_+d+d+>@M@@#@#@#@#e#>@a#{.f#r.4#4#>+>+x.x.8#[.  ",
"                        [.].S@*#u@1@t+Z+R@K+3@,@u+r.J+!.@#@#@#@#@#d@f#{.f#f#R@4#8#>+>+x.x.8#[.  ",
"                        [.u+*#c+g#K+d#0#s+v@2@t+a.0#e###@#@#@#@#:.*@{.f#g@g@S@8#8#>+>+x.x.8#[.  ",
"                        [.K+c+{# .3@&#J+R@K+c+a#d#J.:.@#@#@#@#@#%#d#f#g@&#&#c+8#8#>+>+x.x.8#[.  ",
"                        [.Z+{#v@$#2#c+2@Z+J+>@-@J._.@#@#@#@#@#_.=@f#g@&#&#h#{#8#8#>+>+x.x.8#[.  ",
"                        [.'@v@:#X+;@_+R@{.I+O@..##@#@#@#@#@#@#e@h#g@&#h#h#h#v@8#8#>+>+x.x.8#[.  ",
"                        [.t+:#:#2#i#X+>@s@e#~.@#@#@#@#@#@#@#t@r+g@&#h#h#h#h#:#8#8#>+>+x.x.8#[.  ",
"                        [.2@*#v@a.{.%# .j#k#l#}@K@@#@#@#K@}@K.g@&#h#h#h#h#h#<#8#8#>+>+x.x.8#[.  ",
"                        [.t@m#7#S@*#v@<#J+7#Y.a#I+=@;@=@n#h#g@&#h#h#h#h#h#h#a.8#8#>+>+x.x.8#[.  ",
"                            M@+.+.$#-@h#a.{#a.J+Y.a#{.f#g@g@&#h#h#h#h#h#h#h#a.8#8#>+>+x.x.8#[.  ",
"                                    g.<.b#J.o#I+{.a.s+Y.a#g@h#h#h#h#h#h#h#h#2#8#8#>+>+x.x.8#[.  ",
"                                              p#q#+.c#|@K.Y.1@Q@a#g@h#h#h#h#s+8#8#r#s#t#u#8#[.  ",
"                                                      w+<.[.e#t@X+&#1@Y.a#f#J+8#8#8#8#8#8#8#[.  ",
"                                                                _.b#..j#q.k#Q@4#w+g.v#w#x#:.[.  ",
"                                                                        ##K@b#K@b#[.M@          ",
"                                                                                                ",
"                                                                                                "};
