/* XPM */
static const char * upload_dis_xpm[] = {
"48 48 182 2",
"  	c None",
". 	c #8F8F8F",
"+ 	c #979797",
"@ 	c #999999",
"# 	c #9B9B9B",
"$ 	c #707070",
"% 	c #717171",
"& 	c #676767",
"* 	c #606060",
"= 	c #646464",
"- 	c #666666",
"; 	c #6D6D6D",
"> 	c #8C8C8C",
", 	c #909090",
"' 	c #A9A9A9",
") 	c #ACACAC",
"! 	c #A8A8A8",
"~ 	c #656565",
"{ 	c #6E6E6E",
"] 	c #888888",
"^ 	c #838383",
"/ 	c #949494",
"( 	c #939393",
"_ 	c #858585",
": 	c #6B6B6B",
"< 	c #737373",
"[ 	c #B3B3B3",
"} 	c #B2B2B2",
"| 	c #B4B4B4",
"1 	c #A7A7A7",
"2 	c #6C6C6C",
"3 	c #848484",
"4 	c #A1A1A1",
"5 	c #5C5C5C",
"6 	c #626262",
"7 	c #6F6F6F",
"8 	c #818181",
"9 	c #919191",
"0 	c #ABABAB",
"a 	c #B6B6B6",
"b 	c #BFBFBF",
"c 	c #696969",
"d 	c #989898",
"e 	c #B5B5B5",
"f 	c #7C7C7C",
"g 	c #797979",
"h 	c #777777",
"i 	c #747474",
"j 	c #959595",
"k 	c #8A8A8A",
"l 	c #8B8B8B",
"m 	c #575757",
"n 	c #515151",
"o 	c #5E5E5E",
"p 	c #6A6A6A",
"q 	c #787878",
"r 	c #BABABA",
"s 	c #AEAEAE",
"t 	c #7B7B7B",
"u 	c #808080",
"v 	c #969696",
"w 	c #7F7F7F",
"x 	c #4D4D4D",
"y 	c #4C4C4C",
"z 	c #565656",
"A 	c #545454",
"B 	c #4E4E4E",
"C 	c #555555",
"D 	c #868686",
"E 	c #757575",
"F 	c #A3A3A3",
"G 	c #878787",
"H 	c #898989",
"I 	c #828282",
"J 	c #454545",
"K 	c #464646",
"L 	c #5D5D5D",
"M 	c #525252",
"N 	c #9C9C9C",
"O 	c #A0A0A0",
"P 	c #A5A5A5",
"Q 	c #A6A6A6",
"R 	c #767676",
"S 	c #929292",
"T 	c #AAAAAA",
"U 	c #444444",
"V 	c #414141",
"W 	c #484848",
"X 	c #686868",
"Y 	c #9D9D9D",
"Z 	c #7A7A7A",
"` 	c #9A9A9A",
" .	c #9E9E9E",
"..	c #B1B1B1",
"+.	c #9F9F9F",
"@.	c #3E3E3E",
"#.	c #424242",
"$.	c #474747",
"%.	c #636363",
"&.	c #727272",
"*.	c #7E7E7E",
"=.	c #8D8D8D",
"-.	c #A2A2A2",
";.	c #3B3B3B",
">.	c #8E8E8E",
",.	c #ADADAD",
"'.	c #595959",
").	c #3A3A3A",
"!.	c #3D3D3D",
"~.	c #404040",
"{.	c #616161",
"].	c #AFAFAF",
"^.	c #B0B0B0",
"/.	c #535353",
"(.	c #393939",
"_.	c #3C3C3C",
":.	c #3F3F3F",
"<.	c #434343",
"[.	c #4B4B4B",
"}.	c #B8B8B8",
"|.	c #505050",
"1.	c #B7B7B7",
"2.	c #7D7D7D",
"3.	c #4F4F4F",
"4.	c #383838",
"5.	c #B9B9B9",
"6.	c #5A5A5A",
"7.	c #BBBBBB",
"8.	c #585858",
"9.	c #363636",
"0.	c #333333",
"a.	c #323232",
"b.	c #4A4A4A",
"c.	c #BCBCBC",
"d.	c #353535",
"e.	c #373737",
"f.	c #A4A4A4",
"g.	c #313131",
"h.	c #C0C0C0",
"i.	c #BEBEBE",
"j.	c #C5C5C5",
"k.	c #C8C8C8",
"l.	c #C9C9C9",
"m.	c #C7C7C7",
"n.	c #C3C3C3",
"o.	c #BDBDBD",
"p.	c #494949",
"q.	c #C6C6C6",
"r.	c #CBCBCB",
"s.	c #CECECE",
"t.	c #CFCFCF",
"u.	c #CDCDCD",
"v.	c #CACACA",
"w.	c #5F5F5F",
"x.	c #C2C2C2",
"y.	c #D2D2D2",
"z.	c #C4C4C4",
"A.	c #C1C1C1",
"B.	c #D3D3D3",
"C.	c #343434",
"D.	c #303030",
"E.	c #2D2D2D",
"F.	c #5B5B5B",
"G.	c #2C2C2C",
"H.	c #2F2F2F",
"I.	c #2A2A2A",
"J.	c #282828",
"K.	c #292929",
"L.	c #2B2B2B",
"M.	c #2E2E2E",
"N.	c #262626",
"O.	c #272727",
"P.	c #222222",
"Q.	c #141414",
"R.	c #202020",
"S.	c #000000",
"T.	c #131313",
"U.	c #020202",
"V.	c #232323",
"W.	c #212121",
"X.	c #070707",
"Y.	c #1B1B1B",
"                                                                                                ",
"                                                                                                ",
"                                      . + @ # $ % & * = -                                       ",
"                                = = ; > , ' ) ! @ - = ~ ~ = { ]                                 ",
"                          = & % ^ / ( _ : < [ } | 1 ; ; { { 2 3 4 .                             ",
"                        5 6 7 8 9 4 0 a b c d } } e f g / ^ h i j ' k l                         ",
"                    m n o p & ~ & q + r 4 c . } s t f u v k 8 w f > d h ,                       ",
"                  x y z 6 A B C D > $ 8 : $ E # F 8 _ G ] H k H j l f w # . I                   ",
"                J K x m - L M = N O P Q % R t w 3 ] > . 9 S S 9 S ' v f T d H h                 ",
"              U V W B m - % X > / v Y ! v Z 8 G > , / + @ ` ` @ v )  .9 ..+., ^ $               ",
"            U @.#.$.B z %.&.*.H . j # +.0 ^ G =.( d Y O -.F -.O  .` j =.e Q + k Z               ",
"            ;.@.V $.y z 6 7 f D >.9 > N ! ^ =./ ` +.F 1 ' T T ! P 4 # j @ ,. .G q '.            ",
"          ;.).!.~.J y C {.{ t G 9 v E f ( Y / ` O P T ,.].^.^.s ) 1 4 @ ) s / % = './.          ",
"        @.(.)._.:.<.[.C 6 7 w >.l d . 8 ] , d +.P T s ..| | | [ ^.) Q  .}...d h : L |.          ",
"        ).(.(.).!.#.[.z 6 i ] 8 ; i t 3 > j N F ! ,...e 1.}.1.a [ ].T F ' a ' Z N 2.M 3.        ",
"        ).).4.(._.<.y m & t = ~ 7 R *.G . + +.P T ].[ 1.5.r r }.e } ) Q Y d D # ) d w 2         ",
"      V _.;.(.).!.U B 5 7 6.o - 7 R u H 9 @ O Q ) ..e 1.5.7.r 5.a } ,.1 +./ -.7.Q 9 t X '.      ",
"      @.:.!.;.!.:.$.A 8.A A o - { R u k S ` 4 Q ) ..e }.r 7.r }.e } ,.Q  ./ | 1.4 >.R 6 A       ",
"      #.<.U <.U K x n U y /.5 = ; E u H S @ O 1 ) ^.| 1.5.r 5.1.| ^.) P Y ( 1 | +.H % o /.      ",
"    $.J $.9.0.a._.A :.<.b.n '.6 : < *.] , d +.P 0 ].[ a 1.1.a [ ].0 Q 4 ` S c.].` _ 2 8.B K     ",
"    <.W J d.a.a.0.b.!.V W 3.m * & % t _ >.v Y F ! ,...| } P ) | ^.) ,.s  .( 5.' v *.& C b.U     ",
"    #.b.(.e.0.a.0.:.@.~.K x A 5 = ; h 8 k S @ +.P ' ' +.P  .4 1 ,.^.^.,.1 Q f. .G q {.|.J #.    ",
"    <.[.).e.0.g.d.e.(.@.U b.n 8.* X % t _ =./ # O d S G ( F s a c.b h.i.1.].F d d 2 6.[.~.~.    ",
"    ;.y J U <.g.e.5 3._.#.$.x A 5 %.2 E *.D >.( H f f , 4 s }.h.j.k.l.m.n.o.} f.( =.X J !.;.    ",
"    4.!.[.p.d.a.a.0.W ~.:.U b.|.m o ~ { R w _ 2.< % H # ' | b q.r.s.t.u.v.j.7.].+.>._ w.(.4.    ",
"    4.!.:.W :.0.g.0.9.(.W L K x M '.w.& { E < E X 2., O s 5.x.l.u.f.h.y.t.v.x.a 1 v 3 *.U (.    ",
"    4.!.:.:.:.!.g.0.d.(._.:.U p.B A 6.w.- : f = 7 I / F ].7.z.k.+.( + A.B.s.q.7.) # H g R C.    ",
"    4.!.~.:.(.9.a.0.C.e.).!.#.J b.3.A 6.w.'.= 6 < D j F ].r h.v >.v ` + c.t.k.i.].Y > t $ x     ",
"    4._.V V _.d.D.g.0.C.4.;.@.<.$.[.3.A m 2 L 6 i _ / -.s [ H D >.j d + 9 [ m.i.]. .> f $ c     ",
"      ;.~.#.~.4.D.E.a.z $.z * U /.K [.3.[.L 6.{.&.^ 9 +.f.t t _ l 9 ( / , k 1 7.,.N H Z { &     ",
"      (.:.<.#.@.4.C.M 6.* c i 3 j { K b.<.z m w.7 w =.S : ; q 8 ] >., 9 . H *./ 1 + D h 2 6 <.  ",
"      4.!.#.U #.!._.C M 8.* p h G @ >.[.|.3./.F.c q 2.'.o c < f 3 H > =.l _ Z 2 Z . u < c * n   ",
"        ;.V U U ~.#.n 3.M 6.~ % 2.k @  .t [.B C {.~ J y m 6 2 R 2.I D D ^ t $ %.A {.g { ~ L C   ",
"        (.@.U K J z 3.y B A L X i *.H =.{ J b.3.6.{.; g _ . _ : &.h g g Z f.# , 3 h % X * '.B   ",
"          ;.V K K C 3.[.[.3.m {.: i t 2.& #.U W n F.- % 2.G Z o = X c c : # ( H *.i p %.6.M y   ",
"          (.@.U K z n x [.B /.6.{.X { % L #.#.<.p.n 6.= { R p B A 8.'.'.F.k 3 t < p %.F.C n U   ",
"            ).~.K b.A |.B B n m 6.* %.~ B U #.#.<.p.|.8.w.& F.V J p.b.b.x Z E 7 X {.5 m /.3.C.  ",
"              _.#.$.y C M M n /.8.6.F.5 B $.#.#.V U p.3.C 6.3.9.).!.:.:.<.2 X = * 5 8.A n x     ",
"              ).!.U W A m z z A A z m A B 3.<.#.V V J b.B /.$.g.C.9.e.4._.%.* L 6.m A M 3.W     ",
"                d.@.U p.C 6.'.'.8.z A /.|.(.J <.#.V #.J p.x #.G.H.g.a.0.e.F.6.8.C /.M 3.[.I.    ",
"                  J.@.U p.M 5 5 F.'.m /.3.J b.U U <.#.#.J W !.K.L.G.E.M.a.C A M M |.3.y U       ",
"                      _.<.W n 6.6.F.6.m A 3.!.$.U J U <.<.J ).N.O.K.I.I.M.|.3.|.3.B y W         ",
"                        D.~.W A z 8.'.'.m A 3._.J J K J U U K p.[.y x 3.|.x B B x b.K P.        ",
"                          Q.9.p.y |.M A A C C y 9.K J K $.K K K W p.b.y y y y b.W U R.          ",
"                            S.T.E.#.W y 3.y W W J d.J J K $.W W p.p.p.p.p.W $.K !.T.            ",
"                                S.U.T.V.L.0.(.;.).9.K.W.g.U K $.W W W W $.K !.R.                ",
"                                                          X.Y.K.0.d.d.M.V.                      ",
"                                                                                                "};
